<svg xmlns="http://www.w3.org/2000/svg" viewBox="0 0 418.57 36.28"><defs><style>.cls-1{fill:#00a985;}.cls-1,.cls-2{fill-rule:evenodd;}</style></defs><g id="Layer_2" data-name="Layer 2"><g id="Layer_1-2" data-name="Layer 1"><path d="M9.38,7.24h3.93l9.26,27.39H18.88L14.11,19.34c-1-3.07-1.87-6.07-2.75-9.23H11.2c-.85,3.17-1.73,6.16-2.71,9.23L3.66,34.63H.11ZM5,23.51H17.59v2.78H5Z" transform="translate(-0.11 -1.62)"/><path d="M24.62,24.52c0-6.77,4.57-10.67,9.76-10.67a8.53,8.53,0,0,1,5.93,2.38L38.55,18.5a5.84,5.84,0,0,0-4-1.79c-3.67,0-6.37,3.16-6.37,7.81s2.55,7.76,6.28,7.76a7.3,7.3,0,0,0,4.76-2l1.49,2.3a9.89,9.89,0,0,1-6.56,2.58C28.73,35.14,24.62,31.23,24.62,24.52Z" transform="translate(-0.11 -1.62)"/><path d="M42.77,24.52c0-6.77,4.57-10.67,9.76-10.67a8.51,8.51,0,0,1,5.93,2.38L56.71,18.5a5.88,5.88,0,0,0-4-1.79c-3.67,0-6.37,3.16-6.37,7.81s2.55,7.76,6.28,7.76a7.3,7.3,0,0,0,4.76-2l1.49,2.3a9.87,9.87,0,0,1-6.56,2.58C46.88,35.14,42.77,31.23,42.77,24.52Z" transform="translate(-0.11 -1.62)"/><path d="M60.92,24.52c0-6.6,4.45-10.67,9.12-10.67,5.17,0,8.09,3.71,8.09,9.52A10.8,10.8,0,0,1,78,25.32H64.31c.25,4.29,2.88,7.08,6.74,7.08a8.88,8.88,0,0,0,5-1.62L77.33,33a11.88,11.88,0,0,1-6.7,2.11C65.22,35.14,60.92,31.18,60.92,24.52ZM75.1,22.86c0-4.07-1.83-6.28-5-6.28-2.85,0-5.4,2.29-5.82,6.28Z" transform="translate(-0.11 -1.62)"/><path d="M80.87,32.32l1.7-2.26a9.13,9.13,0,0,0,6,2.4c2.66,0,4-1.42,4-3.15,0-2.09-2.39-3-4.64-3.84-2.84-1-6.05-2.44-6.05-5.86,0-3.25,2.6-5.76,7-5.76a10.25,10.25,0,0,1,6.31,2.28l-1.64,2.2a7.6,7.6,0,0,0-4.63-1.81c-2.56,0-3.73,1.36-3.73,2.91,0,1.93,2.2,2.66,4.5,3.52,2.92,1.1,6.18,2.29,6.18,6.15,0,3.29-2.61,6-7.4,6A12.23,12.23,0,0,1,80.87,32.32Z" transform="translate(-0.11 -1.62)"/><path d="M98.36,32.32l1.69-2.26a9.13,9.13,0,0,0,6,2.4c2.66,0,4-1.42,4-3.15,0-2.09-2.4-3-4.64-3.84-2.85-1-6-2.44-6-5.86,0-3.25,2.6-5.76,7-5.76a10.25,10.25,0,0,1,6.31,2.28L111,18.33a7.6,7.6,0,0,0-4.63-1.81c-2.55,0-3.73,1.36-3.73,2.91,0,1.93,2.2,2.66,4.5,3.52,2.93,1.1,6.19,2.29,6.19,6.15,0,3.29-2.62,6-7.4,6A12.18,12.18,0,0,1,98.36,32.32Z" transform="translate(-0.11 -1.62)"/><path d="M116.58,24.52c0-6.6,4.45-10.67,9.12-10.67,5.18,0,8.1,3.71,8.1,9.52a10.8,10.8,0,0,1-.16,1.95H120c.24,4.29,2.87,7.08,6.74,7.08a8.93,8.93,0,0,0,5.05-1.62L133,33a11.88,11.88,0,0,1-6.7,2.11C120.89,35.14,116.58,31.18,116.58,24.52Zm14.19-1.66c0-4.07-1.83-6.28-5-6.28-2.86,0-5.41,2.29-5.82,6.28Z" transform="translate(-0.11 -1.62)"/><path d="M137.34,24.52c0-6.58,4.15-10.67,8.78-10.67a8.34,8.34,0,0,1,5.69,2.35l-.15-3.48V4.9h3.43V34.63h-2.83L152,32.24h-.12a8.94,8.94,0,0,1-6.15,2.9C140.63,35.14,137.34,31.28,137.34,24.52Zm14.32,5V18.85a7.11,7.11,0,0,0-4.95-2.11c-3.24,0-5.82,3.13-5.82,7.75,0,4.86,2,7.76,5.57,7.76C148.33,32.25,150,31.33,151.66,29.48Z" transform="translate(-0.11 -1.62)"/><path d="M167.37,14.35h3.54l3.84,11.52c.6,2,1.26,4.05,1.87,6h.17c.6-1.94,1.26-4,1.87-6l3.83-11.52h3.37l-7.18,20.28h-4Z" transform="translate(-0.11 -1.62)"/><path d="M189.15,8a2.38,2.38,0,0,1,4.74,0,2.38,2.38,0,0,1-4.74,0Zm.63,6.39h3.43V34.63h-3.43Z" transform="translate(-0.11 -1.62)"/><path d="M198.79,29.37c0-4.42,3.81-6.63,12.46-7.57,0-2.61-.88-5.13-4.19-5.13A11.2,11.2,0,0,0,201,18.85l-1.34-2.35a14.82,14.82,0,0,1,8-2.65c5,0,7,3.29,7,8.34V34.63h-2.84l-.28-2.42h-.12a10.76,10.76,0,0,1-6.71,2.93C201.34,35.14,198.79,33,198.79,29.37Zm12.46.32V24.05c-6.8.82-9.1,2.48-9.1,5.08,0,2.3,1.57,3.24,3.56,3.24S209.28,31.42,211.25,29.69Z" transform="translate(-0.11 -1.62)"/><g id="Page-1"><g id="axate-logo-linear_reversedreendot_cmyk-2" data-name="axate-logo-linear reversedreendot cmyk-2"><g id="axate-logo-linear_reversedreendot_cmyk" data-name="axate-logo-linear reversedreendot cmyk"><path id="Fill-1" class="cls-1" d="M272,33.4a4.52,4.52,0,1,1-4.52-4.5A4.51,4.51,0,0,1,272,33.4" transform="translate(-0.11 -1.62)"/><path id="Fill-2" class="cls-2" d="M248.92,29.79h-6.41l9.24-16.94,9,16.48a7.92,7.92,0,0,1,6.34-3.57L255,3.52a3.65,3.65,0,0,0-6.41,0L233.19,31.69a3.62,3.62,0,0,0,3.2,5.35h12.53a3.63,3.63,0,1,0,0-7.25" transform="translate(-0.11 -1.62)"/><path id="Fill-3" class="cls-2" d="M301.59,19.74a8.23,8.23,0,0,0-6.62-3.3c-4.19,0-6.9,3.46-6.9,7.3A7,7,0,0,0,295.14,31a7.83,7.83,0,0,0,6.45-3.29ZM308.77,37h-6.9V34.89a11.22,11.22,0,0,1-7.45,2.69,13.47,13.47,0,0,1-10.1-4.5,14.24,14.24,0,0,1-3.42-9.34c0-7.85,5.85-13.89,13.13-13.89a12.32,12.32,0,0,1,7.84,2.69V10.4h6.9V37Z" transform="translate(-0.11 -1.62)"/><polyline id="Fill-4" class="cls-2" points="325.34 16.36 330.64 8.78 338.87 8.78 329.87 21.19 340.13 35.41 331.63 35.41 325.34 26.41 319.05 35.41 310.55 35.41 320.82 21.19 311.82 8.78 320.05 8.78 325.34 16.36"/><path id="Fill-5" class="cls-2" d="M358.79,19.74a8.25,8.25,0,0,0-6.63-3.3c-4.19,0-6.89,3.46-6.89,7.3A7,7,0,0,0,352.33,31a7.85,7.85,0,0,0,6.46-3.29ZM366,37h-6.9V34.89a11.18,11.18,0,0,1-7.45,2.69,13.49,13.49,0,0,1-10.1-4.5,14.3,14.3,0,0,1-3.42-9.34c0-7.85,5.85-13.89,13.14-13.89a12.29,12.29,0,0,1,7.83,2.69V10.4H366V37Z" transform="translate(-0.11 -1.62)"/><path id="Fill-6" class="cls-2" d="M411.34,20.29a5.32,5.32,0,0,0-5.29-4.67,5.8,5.8,0,0,0-5.74,4.67ZM418,32.81a14.56,14.56,0,0,1-11,4.77c-8,0-14-5.49-14-13.84,0-7.41,5.08-13.89,13-13.89,7.39,0,12.63,6.21,12.63,13.62a11.69,11.69,0,0,1-.16,2H400a7,7,0,0,0,7.22,6.32,9.47,9.47,0,0,0,6.74-3.08L418,32.81Z" transform="translate(-0.11 -1.62)"/><path id="Fill-7" class="cls-2" d="M391.35,37.13a17.42,17.42,0,0,1-4.49.56c-4.33,0-7.5-1.44-9.33-3.87-1.39-1.82-2-4.2-2-8V16.42h-6.34V10.34h6.34V2.88h7.22v7.46h8.88v6.08h-8.88V26.64a4.92,4.92,0,0,0,.89,3.37,4.56,4.56,0,0,0,3.66,1.32,17.76,17.76,0,0,0,2.94-.27l1.11,6.07" transform="translate(-0.11 -1.62)"/></g></g></g></g></g></svg>