<svg id="Layer_1" data-name="Layer 1" xmlns="http://www.w3.org/2000/svg" width="179" height="36" viewBox="0 0 179 36">
  <defs>
    <style>
      .cls-1 {
        fill: #222;
      }

      .cls-2 {
        fill: #1e3a6d;
      }
    </style>
  </defs>
  <title>Edinburgh Evening News</title>
  <g>
    <g>
      <path class="cls-1" d="M78.95,28.11c-3.7,0-4.71-1.34-4.71-2.29s.85-1.69,2.11-2c-1.49-.33-2.17-1-2.17-2.09a2.09,2.09,0,0,1,1.49-1.9,2.4,2.4,0,0,1-1.3-2.17c0-1.86,1.78-3.45,4.25-3.45a5,5,0,0,1,1.71.29h2.85V15h-2a2.84,2.84,0,0,1,1.4,2.54c0,1.65-1.49,3-3.94,3a5.79,5.79,0,0,1-2.39-.41c-.87.23-1.16.74-1.16,1,0,.66.72,1,1.63,1S78.64,22,80,22c2.17,0,3.36,1.14,3.36,2.89S82,28.11,78.95,28.11Zm-.37-13.56c-1.18,0-1.92,1.09-1.92,2.93s.68,2.6,1.88,2.6,1.86-.8,1.86-2.6S79.74,14.55,78.58,14.55ZM78.81,24c-2.72,0-3.2.72-3.2,1.71s1.32,2,3.34,2c2.31,0,3.59-.91,3.59-2.15S81.35,24,78.81,24Z"/>
      <path class="cls-1" d="M13.25,21.82a2.91,2.91,0,0,0,.12,1,1,1,0,0,0,.87.5c.21,0,.5,0,.87,0H16.3a3.29,3.29,0,0,0,3-1.49A5.89,5.89,0,0,0,20,19.36h.58l-.17,4.71H9.35v-.58H10c1,0,1.2-.23,1.2-1.12V11.85c0-.89-.23-1.12-1.2-1.12H9.35v-.58H20.51l.16,4.15h-.58a4.53,4.53,0,0,0-.8-2.41c-.66-.89-1.4-1.16-3-1.16H15c-.81,0-1.3.08-1.47.27s-.27.62-.27,1.38v4h1.16a2.38,2.38,0,0,0,2.37-1.09A4.2,4.2,0,0,0,17,13.56h.6v6.07H17a3.11,3.11,0,0,0-.5-1.94,2,2,0,0,0-.91-.62,5,5,0,0,0-1.12-.1h-1.2v4.85Z"/>
      <path class="cls-1" d="M27.59,22.35a2.61,2.61,0,0,1-2.48,1.94,3.26,3.26,0,0,1-2.66-1.49,5.94,5.94,0,0,1-1.09-3.61,5.51,5.51,0,0,1,1.11-3.43,3.21,3.21,0,0,1,2.64-1.47,2.56,2.56,0,0,1,2.48,1.84V12.07A1.88,1.88,0,0,0,27.39,11c-.12-.16-.45-.23-1-.23H26v-.58c.89,0,2-.06,3.39-.12,0,9.91,0,11.91,0,12.82,0,.37.31.62.93.62h.56v.58H29.43c-.25,0-.85,0-1.84.1Zm-4.07-3.28c0,2.95.64,4.42,1.94,4.42s2.11-1.47,2.11-3.82a10,10,0,0,0-.31-3c-.39-1.18-1.07-1.77-2-1.77C24.1,14.92,23.51,16.29,23.51,19.07Z"/>
      <path class="cls-1" d="M34.82,22.89c0,.27.08.45.27.5a1.58,1.58,0,0,0,.64.08h.56v.58H31.49v-.58H32a1.58,1.58,0,0,0,.64-.08c.19-.06.27-.23.27-.5V16.62a3,3,0,0,0-.17-1.38c-.1-.16-.43-.23-.93-.23h-.47v-.54c.81,0,2,0,3.41-.16v8.57Zm.31-11.33a1.36,1.36,0,1,1-1.34-1.36A1.35,1.35,0,0,1,35.13,11.56Z"/>
      <path class="cls-1" d="M40.16,16a2.87,2.87,0,0,1,2.68-1.75,2.7,2.7,0,0,1,2.13.91,3.33,3.33,0,0,1,.6,2.13v5.59c0,.39.31.58.91.58H47v.58H42.23v-.58h.54c.64,0,.91-.19.91-1.09V17.15c0-1.32-.48-2-1.44-2-1.22,0-2.09,1.11-2.09,2.68v5c0,.27.08.45.27.5a1.58,1.58,0,0,0,.64.08h.56v.58H36.84v-.58h.58a1.58,1.58,0,0,0,.64-.08c.19-.06.27-.23.27-.5V16.2c0-1-.06-1.16-1.07-1.16h-.45v-.56a18.69,18.69,0,0,0,3.32-.23V16Z"/>
      <path class="cls-1" d="M47.57,12.16a2.16,2.16,0,0,0-.19-1.2c-.1-.16-.45-.23-1-.23H46v-.58q2.59,0,3.37-.12v6a2.55,2.55,0,0,1,2.48-1.78,3.15,3.15,0,0,1,2.6,1.44,5.59,5.59,0,0,1,1.09,3.53,5.3,5.3,0,0,1-1.26,3.59,3.74,3.74,0,0,1-3,1.47,3.48,3.48,0,0,1-2.58-1.42A11.39,11.39,0,0,0,48,24.25h-.41Zm2,5.1a16.24,16.24,0,0,0-.19,2.66c0,2.52.66,3.8,2,3.8a1.65,1.65,0,0,0,1.45-.93,7.81,7.81,0,0,0,.56-3.55c0-3.06-.5-4.25-1.82-4.25C50.47,15,49.8,15.75,49.52,17.26Z"/>
      <path class="cls-1" d="M62.33,22.39a2.74,2.74,0,0,1-2.73,1.9,2.54,2.54,0,0,1-2.29-1.16,4.1,4.1,0,0,1-.35-2V16.18c0-.52-.06-.83-.19-1a1.34,1.34,0,0,0-.89-.19H55.4v-.56a31.77,31.77,0,0,0,3.39-.16v6.75c0,1.77.5,2.21,1.47,2.21a1.82,1.82,0,0,0,1.65-1,3.66,3.66,0,0,0,.39-2.06v-4c0-.52-.06-.83-.19-1a1.55,1.55,0,0,0-1-.19H60.7v-.56a31.82,31.82,0,0,0,3.43-.16v8.5c0,.37.29.64.91.64h.56V24H64.13a12.25,12.25,0,0,0-1.84.12V22.39Z"/>
      <path class="cls-1" d="M69.58,15.95a2.53,2.53,0,0,1,2.31-1.69,2.09,2.09,0,0,1,2.06,2,1.44,1.44,0,0,1-1.36,1.57,1.3,1.3,0,0,1-1.3-1.2,1.14,1.14,0,0,1,.81-1.14c.19-.06.27-.16.27-.25,0-.27-.21-.39-.6-.39a2.08,2.08,0,0,0-1.63,1A3.58,3.58,0,0,0,69.56,18v4.91c0,.27.08.45.27.5a1.58,1.58,0,0,0,.64.08H71v.58H66.22v-.58h.56a1.58,1.58,0,0,0,.64-.08c.19-.06.27-.23.27-.5V16.2c0-.52-.06-.83-.19-1S67.1,15,66.61,15h-.43v-.56a25.16,25.16,0,0,0,3.39-.19Z"/>
      <path class="cls-1" d="M87,16.1a2.76,2.76,0,0,1,2.7-1.86,2.55,2.55,0,0,1,2.66,2.85v5.78c0,.27.08.45.27.5a1.58,1.58,0,0,0,.64.08h.56V24H89v-.58h.56a1.58,1.58,0,0,0,.64-.08c.19-.06.27-.23.27-.5V17.11c0-.89-.25-1.9-1.38-1.9A2.36,2.36,0,0,0,87,17.81v5.06c0,.27.08.45.27.5a1.58,1.58,0,0,0,.64.08h.56V24H83.64v-.58h.56c.6,0,.91-.19.91-.58V12a3.52,3.52,0,0,0-.06-.8.68.68,0,0,0-.6-.47,3.32,3.32,0,0,0-.5,0h-.43v-.58q2.62,0,3.43-.12V16.1Z"/>
    </g>
    <g>
      <path class="cls-2" d="M152.4,7.9c.08,0,.33,0,.33,0h0c0,.06-.06.29,0,.29a.34.34,0,0,0,.27.06s0-.17.06-.17,0,0,0,0a.36.36,0,0,0,.14,0c.25.19-.06.72-.14.91,0,0,0,0,0,0s0,.31,0,.47,0,.17,0,.17v0h-.12c-.21-.27-.54-.21-.91-.21,0-.14,0-.27,0-.43l-.17-.33c-.08-.21-.14-.78.21-.78a.1.1,0,0,1,.08,0c0,.12,0,.23,0,.35C152.36,8.28,152.44,8.19,152.4,7.9Z"/>
      <path class="cls-2" d="M148.66,9a.73.73,0,0,1,.37.43c0,.23-.14.74.17.76s.23-.37.37-.37v0c.08,0,.37,0,.37,0h0c0,.08,0,.35,0,.35v0c.1,0,.27,0,.35-.1s0-.23.12-.29c.33-.17.45.12.45.37.08,0,.33,0,.33,0h0a.49.49,0,0,1,.06-.29c.06-.08.43-.1.43,0v.33c.08,0,.33,0,.33,0s0-.08,0-.12V9.89h0v0h.58c0,.33.12.35.43.35v0h0s0,0,0,0V9.87h.08a1.47,1.47,0,0,1,.5,0c0,.08,0,.33.08.33a1.47,1.47,0,0,0,.5,0c.06-.23,0-.48,0-.7s.33-.43.33-.5c.35.21.31.54.31.93a1.13,1.13,0,0,1-.06.45c-.08.17-.29.33-.35.52a4.51,4.51,0,0,0,0,1,17.71,17.71,0,0,0-4.05,0c-.45.06-.85.16-1.26.23l-.37.12v0h0a4,4,0,0,0,0-1.28c-.06-.21-.25-.37-.35-.54a1.57,1.57,0,0,1-.06-1A1.85,1.85,0,0,1,148.66,9Z"/>
      <path class="cls-2" d="M146.37,10.32c.52,0,.39.35.39.78,0,0,0,0,0,0a.3.3,0,0,0-.12.21H147a1.33,1.33,0,0,1,.62,0h.87v.25c-.21,0-.8-.06-.8.21h0v0a2.2,2.2,0,0,1,.72,0h0v.12c-.19,0-.93,0-.93.17-.06,0,0,0,0,0h1v.14c-.23,0-1.12-.08-1.12.17-.06,0,0,0,0,0h1v.08l-.68.1c-.6,0-1.18,0-1.8,0-.06,0,0,0,0,0h0v0a4.84,4.84,0,0,1,.33-.76v-.08H146v0c-.41.47-.33.83-1,1.12a1.09,1.09,0,0,1-.45.14s-.06-.12,0-.12l1.16-1.34a2,2,0,0,0,.39-.52,2.71,2.71,0,0,0,0-.7Z"/>
      <path class="cls-2" d="M156,10.73c.21,0,.41,0,.62,0,0,.08,0,.43,0,.43v0c.37,0,.33-.06.33-.39h.08a1,1,0,0,1,.43,0c0,.14,0,.27,0,.39h0v0c.08,0,.37,0,.37,0a.77.77,0,0,0,.08-.43h0l0,0v0c.12,0,.33-.06.41.06a4.49,4.49,0,0,1,0,1.69l0,0c-.17.08-.43-.06-.58-.08-.37-.08-.74-.16-1.12-.21a2.81,2.81,0,0,0-.58-.1,1.87,1.87,0,0,0,0-.66c-.12-.31-.64-.33-.93-.29l-.41.14c0-.1,0-.27.06-.33A4.27,4.27,0,0,1,156,11,1.39,1.39,0,0,1,156,10.73Z"/>
      <path class="cls-2" d="M159,11.12h.29c.12.19.43.56.43.78-.37,0-.74,0-1.12,0v-.08c0-.12,0-.54.1-.6A1.47,1.47,0,0,0,159,11.12Z"/>
      <path class="cls-2" d="M159,12.07h.54v.81c-.1,0-.62-.14-.62-.21A5.64,5.64,0,0,0,159,12.07Z"/>
      <path class="cls-2" d="M152.38,12.14c.33,0,.68,0,1,0l1.63.16c1.09.16,2.11.33,3.14.56.37.1.74.17,1.12.25l2.52.76a3.22,3.22,0,0,0,.8.27l0-.06v0l-.14-.17-.12-.41s-.06-.08,0-.08.37-.48.37-.54a3.36,3.36,0,0,1,.47.5v.08h0v0l-.47,0v.08h.08a2,2,0,0,1,.33.08c.12.45.16,1.44-.5,1.4a2.67,2.67,0,0,1-.56-.16l-2-.62a40.24,40.24,0,0,0-6.21-1c-.45,0-.91,0-1.34,0a17.39,17.39,0,0,0-3.39.31l-1.26.35-.5.17v0h0c0-.17,0-.35,0-.54s0-.21,0-.33l.5-.19a10,10,0,0,1,1.3-.39,2.62,2.62,0,0,1,.7-.14.74.74,0,0,1,.37-.08,2.13,2.13,0,0,1,.87-.1,1,1,0,0,1,.43,0Z"/>
      <path class="cls-2" d="M145.54,13.11c.23.14.14,1.73.16,2.09s0,.68,0,1a10.35,10.35,0,0,0,0,1.11,3.07,3.07,0,0,1-.06,1.12c-.19.39-.58.62-.8,1a0,0,0,0,1,0,0c-.06.1,0,.27-.06.39s-.21.47-.33.7-.16.39-.25.58-.37.5-.54.74c0,0,0,.06,0,.08h-.08c0-.06,0-.12,0-.12.16-.66.54-1.2.72-1.82,0-.06,0-.1.08-.1v-.1c-.06,0-.08,0-.08,0A6.19,6.19,0,0,0,143,22.13l-.27.5h-.08a5.69,5.69,0,0,1,1-2.42l.17-.39a4.4,4.4,0,0,1,.8-.91v0c0-.31,0-.62,0-.93,0-1,0-2.08,0-3.16a5.38,5.38,0,0,1,0-1.26A2.4,2.4,0,0,1,145.54,13.11Z"/>
      <path class="cls-2" d="M146.41,13.13c.17.08.17.5.12.5v0h-.33v-.5A.82.82,0,0,0,146.41,13.13Z"/>
      <path class="cls-2" d="M166,13.42c.08,0,.21,0,.21.08s0,.48.06.7a12.17,12.17,0,0,1,.56,1.12c0,.19,0,.41,0,.6a6.88,6.88,0,0,0-.91-.14l.06-.41c.08-.08.58.08.74.08a.87.87,0,0,0-.19-.25c-.12-.08-.7-.21-.66-.37s.47,0,.47.06h0c0-.06,0-.08,0-.08s-.47-.17-.45-.35.17,0,.06-.27c0,0,0-.1-.08-.1a.1.1,0,0,0-.08,0,5,5,0,0,1-.37.66,1.91,1.91,0,0,1-.31.1c-.12,0-.19.14-.31.17l-.81.19v0h.08c.1-.31.37-.54.43-.87s0-.43,0-.62l.29,0c.19-.06.21.47.14.47v0c-.06,0-.21,0-.21,0h0v0s0,0,0,.08a5.8,5.8,0,0,0,.8-.08c.16-.17.14-.37.14-.64,0-.06,0,0,0,0A1.84,1.84,0,0,0,166,13.42Z"/>
      <path class="cls-2" d="M152.44,13.5l2,.08a19.45,19.45,0,0,1,3.06.41c1.12.21,2.27.5,3.36.78l1,.29.31.14v.08a8.8,8.8,0,0,1-1-.23l-.64-.16v0a.52.52,0,0,0,.16.14l.58.23c.39.17.76.37,1.16.52l.29.1c0,.06.08.12.08.17l-2.25-.64a.31.31,0,0,0,.1.17l.58.23,1.47.68a2,2,0,0,1,.29.14v.12l-2.35-.64c0,.06,0,.14.08.14.33.17,2.21.83,2.21,1.14L161.42,17a3,3,0,0,0-.83-.17s0,.08,0,.08v0l2.27,1c0,.06,0,.08,0,.08a9.55,9.55,0,0,1-2.06-.54,1,1,0,0,1-.21-.08v0h0v.08a4.08,4.08,0,0,1,.5.25l.76.35a1.17,1.17,0,0,0,.43.17v.08l-.33.06a7.42,7.42,0,0,1-1.12-.31l-.29-.06v.12h0a8.92,8.92,0,0,0,1.3.64V19a4.93,4.93,0,0,1-1.09-.25l-.29-.1v.12c.1.06.23.21.37.21v0a1,1,0,0,0-.43.06c-.19.12-.1.29-.41.29-.14-.41-.27-.35-.72-.35v-.64l-.66,0a2.19,2.19,0,0,1-.5,0s-.08,0-.08-.06h0s0,0,0,0v-.08c.37-.1,1,.08,1.34-.1.06-.14-.64-1.14-.72-1.36a2.69,2.69,0,0,1,0-.89.38.38,0,0,0-.08-.27c-.21-.21-.56,0-.8,0V16c-.64,0-1.28,0-1.92,0-.06,0-.17,0-.17,0h0c0-.06,0-.21-.08-.21l-.16-.1c-.16-.19,0-.31-.35-.33-.06,0-.08,0-.08,0h0v-.29a1.89,1.89,0,0,0-.47,0c-.41,0-.54,0-.54.43-.08,0-.43,0-.43,0h0c0,.08-.08.45-.08.35s-.12.08-.17.08V16c-.64,0-1.28,0-1.88,0v0h0c0-.56-.1-.68-.68-.64-.06,0-.14,0-.14.06-.14.29,0,.87-.1,1.2-.14.52-.52,1-.68,1.47a.07.07,0,0,1,0,.06c.39,0,.8,0,1.18,0l.08.06c0,.25-1,.16-1.12.16v.6c-.17,0-.43,0-.56.06s-.1.35-.31.37-.21-.31-.45-.39a2.09,2.09,0,0,0-.78,0l-.21.06c-.06.16-.06.35-.29.31s-.17-.33-.06-.45a7.53,7.53,0,0,1,1.3-.8s.1-.06.1-.12h0s0,0,0,0v0a3.92,3.92,0,0,0-1.44.54c-.14.08-.23.17-.39.16s0,0,0,0c.21-.06.48-.39.7-.52.39-.25.83-.37,1.2-.66l0,0s0-.06,0-.1h0l-.91.29a6.7,6.7,0,0,1-.66.27v-.08h-.08s0,0,0,0v0a14.73,14.73,0,0,1,1.4-.83.68.68,0,0,1,.27-.12v-.1a3.49,3.49,0,0,0-1.11.33l-.45.19v0h0v-.1a12.64,12.64,0,0,0,1.63-1h0c-.37.16-.76.25-1.12.41-.12,0-.23.1-.37.14v0h0c0-.06,0-.08,0-.08.19-.35,1.55-.76,1.55-1a6.9,6.9,0,0,0-1.09.29l-.41.14v0h0v0a.76.76,0,0,1,.16-.19c.25-.17,1.4-.52,1.4-.81h-.08l-1.38.47c0-.1,0-.17.08-.23a4.8,4.8,0,0,1,1.36-.62s0,0,0,0V14.3h0v0h0l-.93.23-.37.12v0h0c0-.06,0-.12,0-.12a5.63,5.63,0,0,1,2-.6,1.07,1.07,0,0,1,.5-.1l.29,0a1.26,1.26,0,0,1,.39,0l.29,0a1.23,1.23,0,0,1,.47,0C151.68,13.44,152.13,13.58,152.44,13.5Z"/>
      <path class="cls-2" d="M146.49,14.49a2.6,2.6,0,0,1,.08.68.49.49,0,0,1-.29-.06c-.14-.08-.12-.45,0-.54A1.63,1.63,0,0,0,146.49,14.49Z"/>
      <path class="cls-2" d="M163.36,14.74l.5.14c0,.06-.06.14-.14.16a1.15,1.15,0,0,1-.48-.08h0v0A1.25,1.25,0,0,0,163.36,14.74Z"/>
      <path class="cls-2" d="M165.28,14.92l.35,0c.06,0,.1.12.16.12,0,.25.06.93-.35.85s-.25-.56-.29-.81c0,0,0,0,0,0A.68.68,0,0,1,165.28,14.92Z"/>
      <path class="cls-2" d="M154.28,15.13c.08,0,.47,0,.47,0h0c0,.12,0,.23,0,.35h0v0a.71.71,0,0,1,.29,0c.12.08.06.25.16.33l.23.1s0,0,0,.06c.12.29,0,.37.41.39,0,0,.08,0,.08,0s0,.14-.06.17a2,2,0,0,1-.48.06,1.18,1.18,0,0,1-.25.06l-.19-.06-.35,0-.6,0-.29.1-.41-.08c-.08,0-.33,0-.33,0h0v-.17h0v0c.39,0,.37,0,.37-.39a2.52,2.52,0,0,1,.33-.16c.16-.08-.08-.39.35-.41.06,0,.12,0,.12,0C154.23,15.46,154.23,15.29,154.28,15.13Z"/>
      <path class="cls-2" d="M167.16,15.13a.45.45,0,0,1,.35.12.69.69,0,0,1-.21.87c-.31.1-.25-.41-.27-.58l-.06-.29Z"/>
      <path class="cls-2" d="M164.87,15.25c0,.14.06.29.08.43a4.48,4.48,0,0,1-1,.14c-.14,0-.16-.31,0-.31l.21,0a1.7,1.7,0,0,1,.72-.17Z"/>
      <path class="cls-2" d="M150.75,15.42c.29.12.16.74.17,1,0,0,0,.08,0,.08v0h-.12s0,0,0,0A2.65,2.65,0,0,1,150.75,15.42Z"/>
      <path class="cls-2" d="M158.26,15.54h.21a8.09,8.09,0,0,0,0,1s0,0,0,0v0h-.16C158.28,16.22,158.28,15.87,158.26,15.54Z"/>
      <path class="cls-2" d="M164.91,15.93c.08,0,.21.08.21.17H165a3.27,3.27,0,0,1-1.16.21s0-.1,0-.14l1-.21A.06.06,0,0,0,164.91,15.93Z"/>
      <path class="cls-2" d="M146.29,16l.17,0c0,.21,0,.5-.19.56-.06,0-.1,0-.1,0h0c0-.08,0-.5,0-.5A.18.18,0,0,0,146.29,16Z"/>
      <path class="cls-2" d="M165.63,16.06l1.34.39c.08,0,.17.12.25.12s-.1.14-.19.14a5.54,5.54,0,0,1-1.45-.47.12.12,0,0,1-.06-.12C165.57,16.12,165.59,16.08,165.63,16.06Z"/>
      <path class="cls-2" d="M165.38,16.24h0c0,.45,0,.91,0,1.36a.82.82,0,0,0,.06.48c.12.17.47.19.66.25a3.21,3.21,0,0,1,1.09.45s.08.16,0,.16v0h0l-.72-.25a3.53,3.53,0,0,0-1-.31.41.41,0,0,0,.14.29c.23.21,1.78.6,1.78.87a2.11,2.11,0,0,1-.62-.19c-.35-.14-.7-.25-1-.39-.14-.06-.29-.21-.45-.21,0,0,0,0,0,0v0h0v.08a2.62,2.62,0,0,1,.64.5l.5.27a6.55,6.55,0,0,0,1,.47c.06,0,.25.06.25.16l-1-.25v.08a3.19,3.19,0,0,1,.43.27,5.26,5.26,0,0,1,1.36,1c.16.19.25.43.39.62a3.22,3.22,0,0,0,.52.5s.06.08.12.08v0a2.42,2.42,0,0,1-1.18-.83,3.29,3.29,0,0,0-.5-.54,11,11,0,0,1-1.12-.81c-.25-.25-.43-.56-.68-.8a6,6,0,0,0-.7-.52c-.08,0-.17-.16-.27-.16s0,.08,0,.08c.14.33.56.56.81.83l.5.62c.31.31.66.5,1,.8a17.31,17.31,0,0,1,1.24,1.44l.17.17c.16.1.85.35.85.58,0,0,0,0,0,0v.08h0a6.91,6.91,0,0,1-1.3-.68c-.43-.45-.83-.91-1.26-1.36-.08-.12-.17-.21-.25-.33-.25-.25-.58-.39-.83-.64s-.41-.64-.68-.89l-.7-.45c-.12-.08-.25-.21-.39-.21s0,.08,0,.08c.27.41.68.6,1,1l.58.87c.23.29.58.47.83.78.45.54.81,1.14,1.28,1.69l.47.41s.12.08.12.14h0v0l-.35-.1a3.09,3.09,0,0,1-.47-.39l-.64-.58-.56-.7-.83-.81c-.31-.39-.81-1.45-1.38-1.45v0c.54.68,1,1.42,1.49,2.11l1,1s.06.12.12.12v0a3.37,3.37,0,0,1-.52-.27l-.39-.19a3.32,3.32,0,0,1-.39-.52l-1-1.4c-.17-.21-.48-.35-.58-.58,0,0,0,0,0,0a5.73,5.73,0,0,1,0-1.63c0-.56,0-1.14,0-1.71,0-.14.06-.27.06-.39h.16v.35c.25,0,.27-.14.29-.39,0-.06,0,0,0,0v0l.29,0c0,.08,0,.35,0,.35v0h0c.23-.16.25-.14.25-.47Z"/>
      <path class="cls-2" d="M165.49,16.61a6.42,6.42,0,0,1,1.4.37l.33.1v.17c-.1,0-.66-.16-.66,0s.45.31.52.35.17.16.08.16v0a6,6,0,0,1-1.63-.54v-.06c.06-.14.74.27.7,0a.15.15,0,0,1,0-.08C166,16.84,165.59,16.93,165.49,16.61Z"/>
      <path class="cls-2" d="M157.21,16.82a2.18,2.18,0,0,1,.39,0l.19.06c0,.25,0,.52,0,.78l-.06.29a2.47,2.47,0,0,0-.39,0l-.29.06v0h0c0-.14,0-1.14.08-1.14l.14,0Z"/>
      <path class="cls-2" d="M151.51,16.86c.1,0,.54,0,.54.08h0v1.18s0,0,0,0v0a4,4,0,0,0-.68,0,5.29,5.29,0,0,1,0-1.24A.4.4,0,0,1,151.51,16.86Z"/>
      <path class="cls-2" d="M155.54,17h.72c0,.33.12.39.47.39,0,.23,0,.47,0,.72H152.4v-.64a.83.83,0,0,0,.33-.08s0-.12.06-.17.35-.19.54-.17.16,0,.16.06h0c0,.1,0,.21,0,.31s.62,0,.62,0h0c0-.12,0-.21,0-.31s.8-.08.8,0h0c0,.12,0,.21,0,.31C155.52,17.36,155.41,17.42,155.54,17Z"/>
      <path class="cls-2" d="M165.49,17.56a7.2,7.2,0,0,1,1.69.58.39.39,0,0,1,.06.21h-.08l-.76-.23c-.17-.08-.37-.14-.56-.21s-.21-.06-.27-.14A.55.55,0,0,1,165.49,17.56Z"/>
      <path class="cls-2" d="M152.31,18.35c.12,0,.06.17.14.17v0a5.38,5.38,0,0,0,.8,0c.12,0,.21-.16.33-.16,0,.21-.06,1.32.12,1.32s.14-1,.14-1.14a4.83,4.83,0,0,1,.85-.12c.48,0,.35.35.37.74,0,.16.08.29.08.43.06,0,.12,0,.16-.08a5.43,5.43,0,0,0,.1-1.16s0,0,0,0h0a.5.5,0,0,0,.17.17c.19.08,1.14.12,1.14-.17h.12c.1.08.17.17.27.25s0,.64,0,.87h.08l.29,0v0l.14,0c-.06-.29.1-.33.37-.33l.29,0c0,.08,0,.39,0,.39v0c.16,0,.5,0,.58-.1s0-.21.1-.25a1.46,1.46,0,0,1,.58,0c.06,0,.17,0,.17,0h0c0,.06-.06.29,0,.29v0c.14,0,.68,0,.68-.08a.63.63,0,0,1,.08-.25,1.07,1.07,0,0,1,.78,0c.12.1,0,.27.19.31a2.92,2.92,0,0,0,.72,0,.86.86,0,0,1,0-.58c.14-.23.93-.23,1,.06a3.46,3.46,0,0,1,0,1.42c-.1.19-.31.31-.35.54s0,.68,0,1,0,1,0,1.45c0,.1,0,.54-.08.54a7.37,7.37,0,0,1-1.47,0c-1.18,0-2.39,0-3.55,0-.14,0-.43,0-.43-.14h.08a5.35,5.35,0,0,1,1.26,0h3.65a.29.29,0,0,1,.17-.08v-.08c-.41-.06-.81,0-1.22,0-1.28-.06-2.64,0-3.94,0-.14,0-.47,0-.47-.14H157l.33,0a4,4,0,0,1,1.18,0,2.16,2.16,0,0,1,.8,0h1.92a4.94,4.94,0,0,0,.93,0c.06,0,.08,0,.08-.08l-1.92-.08c-.81,0-1.67,0-2.46,0a3.57,3.57,0,0,1-1.38-.1,1.73,1.73,0,0,1-.56-.43,2.11,2.11,0,0,1-.06-.62c0-.19,0-.41,0-.6-.08-.74-.52-1.38-1.36-1.28s-1,.87-1,1.59a2.6,2.6,0,0,1,0,.87l-.33.31c-.1.08-.16.16-.27.17l-1.22,0-2,0c-.47,0-.93,0-1.42.08s-.89,0-1.34,0c-.06,0,0,0,0,0h0v0h0a4.56,4.56,0,0,0,1.47.08,3.71,3.71,0,0,1,1,0h1.92a4.71,4.71,0,0,1,1,0,.21.21,0,0,1,.16.19c-1.24,0-2.58,0-3.84,0-.47,0-.91,0-1.34,0a1.34,1.34,0,0,0-.48,0l-.06,0h0v0a6.43,6.43,0,0,0,1.63.08h3.94v.12c-.27,0-.48.1-.76.1-1.18,0-2.35,0-3.55,0h-.91a3.07,3.07,0,0,1-.6,0l-.1-.06a26.61,26.61,0,0,1,0-2.83c0-.33-.29-.43-.41-.68a3.59,3.59,0,0,1,0-1.2.57.57,0,0,0,0-.19c.17-.29.68-.1.93-.1,0,.12,0,.23,0,.35l.06.29s0,0,0,0,.76,0,.76-.12a1.46,1.46,0,0,0,0-.29h.08v0h.76v0c-.06.12,0,.29,0,.39a1.75,1.75,0,0,0,.72-.06.46.46,0,0,0,.14-.31c.1-.14.5-.1.66-.1,0,.08,0,.39,0,.39v0h.23l.25-.08c.06-.06,0-.29.1-.29v0h.68c0,.08,0,.35,0,.35v0c.1,0,.31,0,.37-.06s0-.52.08-.68A1.06,1.06,0,0,1,152.31,18.35Z"/>
      <path class="cls-2" d="M158.59,18.41h0a.87.87,0,0,1,.08.47c-.06,0-.21,0-.21,0h0v0a2.25,2.25,0,0,1,.08-.35Z"/>
      <path class="cls-2" d="M151.3,18.49h.25c0,.08,0,.39-.08.39s-.21.06-.21,0h0A3.43,3.43,0,0,1,151.3,18.49Z"/>
      <path class="cls-2" d="M150.38,18.53h.25c0,.19,0,.39-.25.39Z"/>
      <path class="cls-2" d="M157.58,18.53h.29a.94.94,0,0,0,0,.23c0,.06-.08.1-.08.16C157.58,18.84,157.58,18.72,157.58,18.53Z"/>
      <path class="cls-2" d="M154.21,20.62c.06,0,.21,0,.21,0h0v0h-.08A.21.21,0,0,1,154.21,20.62Z"/>
      <path class="cls-2" d="M154.57,20.62c.08,0,.33,0,.33.12h0v0l-.29,0v0h0A.46.46,0,0,0,154.57,20.62Z"/>
      <path class="cls-2" d="M163.73,20.87a3.5,3.5,0,0,1,1.16,1l.19.37a3.18,3.18,0,0,0,1.2,1.42s0,0,0,.06h0v0a1.53,1.53,0,0,1-.6-.16,4.75,4.75,0,0,1-.81-.83,1.77,1.77,0,0,1-.41-.45s0-.06,0-.06v0a1.32,1.32,0,0,0,.43.17,1.68,1.68,0,0,0-.27-.52,1.53,1.53,0,0,0-.45-.27A1.28,1.28,0,0,1,163.73,20.87Z"/>
      <path class="cls-2" d="M154.11,20.91c.1,0,.33,0,.33.14h0v0c-.08,0-.33,0-.33,0h0v0c.06,0,0,0,0,0Z"/>
      <path class="cls-2" d="M154.69,20.91l.25,0V21c-.06,0-.39.14-.39,0h0v0a.29.29,0,0,1,.17-.08Z"/>
      <path class="cls-2" d="M153.78,20.95c.06,0,.17,0,.17.12h0v0c-.06,0-.14,0-.14,0a.1.1,0,0,1,0-.08Z"/>
      <path class="cls-2" d="M155,21c.06,0,.17,0,.17,0h0v.12h0v0c-.06,0-.21-.06-.21-.14Z"/>
      <path class="cls-2" d="M154.21,21.22c.14.06.17.16.17.33l-.29,0c0-.08,0-.14,0-.21h0A.18.18,0,0,0,154.21,21.22Z"/>
      <path class="cls-2" d="M153.74,21.26c.06,0,.17,0,.17,0h0v.17h-.33v0h0A.69.69,0,0,0,153.74,21.26Z"/>
      <path class="cls-2" d="M154.65,21.26c.12,0,.25.1.25.25h-.37v-.17A.41.41,0,0,0,154.65,21.26Z"/>
      <path class="cls-2" d="M144.7,21.3c0,.23-.23.43-.33.6a4.49,4.49,0,0,1-.35.68c-.17.19-.41.31-.56.5a5.67,5.67,0,0,0-.47.72l-.41.58s0,.08-.08.08a.1.1,0,0,1-.08,0v-.08c.19-.45.39-.89.58-1.36a5,5,0,0,1,.7-.74c.21-.25.43-.52.66-.78A1.36,1.36,0,0,0,144.7,21.3Z"/>
      <path class="cls-2" d="M155,21.3h.25v.08c-.08.08-.08.14-.21.14v0A.53.53,0,0,1,155,21.3Z"/>
      <path class="cls-2" d="M163.5,21.55a2,2,0,0,1,.52.62l.68.91a4.31,4.31,0,0,0,.7.87v0h0v0a1.07,1.07,0,0,1-.52-.23l-.33-.21a5.71,5.71,0,0,1-.58-.81c-.1-.14-.21-.25-.31-.39A3.74,3.74,0,0,1,163.5,21.55Z"/>
      <path class="cls-2" d="M153.64,21.69c.06,0,.25,0,.25,0h0c0,.06-.06.21,0,.21a.2.2,0,0,0,.16.08v0h0c0-.16,0-.23.17-.27s.08,0,.08,0h0c0,.06,0,.25,0,.25v0h.08v0c0-.06.06-.25.14-.25v0c.06,0,.12,0,.12,0s.1.29.14.29v0h0v0H155c0-.12,0-.23.17-.25s.12,0,.12,0a3.52,3.52,0,0,1,0,1.36c.08,0,.12,0,.16.06a3.52,3.52,0,0,1,.45,1c0,.1-.08.14-.08.21a10.27,10.27,0,0,0-1.34,0H153v-.14c.08-.16.17-.31.25-.47a3.43,3.43,0,0,0,.41-.8A5.15,5.15,0,0,0,153.64,21.69Z"/>
      <path class="cls-2" d="M169.43,22.58c.06,0,.21.1.21.17h0Z"/>
      <path class="cls-2" d="M144.45,22.79h.08c-.14.19-.27.39-.39.58s-.8,1.53-1.09,1.53v0h0v0h0c.14-.23.21-.48.33-.72l.21-.27c.06-.1.12-.19.17-.31A4,4,0,0,1,144.45,22.79Z"/>
      <path class="cls-2" d="M155.7,22.83a.57.57,0,0,1,.25.1l.91,1.44,0,0h0v0a.43.43,0,0,1-.27,0A5.12,5.12,0,0,1,155.7,22.83Z"/>
      <path class="cls-2" d="M153.2,22.87c.06,0,.17,0,.17,0h0a5.76,5.76,0,0,1-.89,1.49c-.1.06-.16,0-.27,0s0,0,0,0C152.6,23.86,152.91,23.37,153.2,22.87Z"/>
      <path class="cls-2" d="M144.9,23.34c0,.31-.25.37-.41.58s-.25.66-.6.66a1.8,1.8,0,0,1,.52-.93A4.13,4.13,0,0,1,144.9,23.34Z"/>
      <path class="cls-2" d="M158.16,24.15c.89,0,1.73,0,2.6,0,.06,0,.29,0,.29,0h0v0l-.58.06c-.7,0-1.45,0-2.13,0C158.26,24.29,158.16,24.29,158.16,24.15Z"/>
      <path class="cls-2" d="M148.83,24.23a6.8,6.8,0,0,0,1.42,0,5,5,0,0,1,1.22,0s0,0,0,0h0c0,.06,0,.14,0,.14v0a13.12,13.12,0,0,0-1.51,0h-2.48l-.16,0s0-.08.08-.08C147.81,24.13,148.41,24.34,148.83,24.23Z"/>
    </g>
    <g>
      <g>
        <path class="cls-1" d="M107.27,20.45v-7c0-2-.48-2.7-1.9-2.75v-.58h4.27v.58h-.1c-1.18,0-1.61.74-1.61,2.75V24.23h-.54L99.51,12.07v9c0,1.14.25,1.88.78,2.19a2.44,2.44,0,0,0,1.26.21V24H97v-.58h.23c1.16,0,1.63-.66,1.63-2.41V11.79c0-.93-.23-1.16-1.2-1.16H97v-.52h3.59Z"/>
        <path class="cls-1" d="M111.17,19.22a10.71,10.71,0,0,0,.17,2,2.46,2.46,0,0,0,2.42,2.21,3,3,0,0,0,2.85-2.58h.6a3.94,3.94,0,0,1-3.92,3.36,3.74,3.74,0,0,1-3-1.42A5.63,5.63,0,0,1,109,19.11a4.93,4.93,0,0,1,1.26-3.41,3.8,3.8,0,0,1,3-1.45,3.91,3.91,0,0,1,3.47,2.46,6.69,6.69,0,0,1,.52,2.54l-6.07,0Zm4-.58a14.68,14.68,0,0,0-.19-2.25,1.93,1.93,0,0,0-1.84-1.57,1.71,1.71,0,0,0-1.67,1.3,8.1,8.1,0,0,0-.29,2.52Z"/>
        <path class="cls-1" d="M123.91,16.06a1.46,1.46,0,0,0-.52-.87,1.82,1.82,0,0,0-.89-.17h-.43v-.58h5.14V15h-.76c-.5,0-.76.16-.76.45a2.8,2.8,0,0,0,.19.72l1.9,5.41,1.67-4.44a3.8,3.8,0,0,0,.29-1.26.86.86,0,0,0-.33-.74,1.79,1.79,0,0,0-.78-.12h-.25v-.58H132V15h-.21c-.74,0-1.09.35-1.53,1.55l-2.87,7.64h-.62l-2.42-7-2.13,6.94h-.66l-3-7.72a4,4,0,0,0-.54-1.11A1.44,1.44,0,0,0,117,15h-.31v-.58h4.83V15h-.31c-.64,0-1,.17-1,.48a2,2,0,0,0,.19.66l2.09,5.41,1.55-5.08Z"/>
        <path class="cls-1" d="M138.86,17.73h-.52c-.56-1.9-1.69-3-3.1-3a1.49,1.49,0,0,0-1.57,1.42c0,.78.58,1.3,1.77,1.61a7.82,7.82,0,0,1,3.12,1.34,2.55,2.55,0,0,1,.85,2,3.16,3.16,0,0,1-3.2,3.12,3.49,3.49,0,0,1-2.29-.85c-.29-.25-.48-.37-.58-.37s-.35.33-.5,1h-.52c0-.58.08-2.73.12-4.09h.52a10.13,10.13,0,0,0,.47,1.59,3.79,3.79,0,0,0,1.26,1.57,2.71,2.71,0,0,0,1.67.62,1.78,1.78,0,0,0,1.84-1.65c0-.74-.62-1.32-1.88-1.71a14.74,14.74,0,0,1-2.89-1.14A2.42,2.42,0,0,1,132.31,17a2.88,2.88,0,0,1,2.87-2.81,3.86,3.86,0,0,1,2.25.68c.21.16.33.23.39.23s.25-.21.5-.8h.52v3.39Z"/>
      </g>
      <g>
        <path class="cls-1" d="M110.62,10h2v.52h-1.44v.54h1.24v.5h-1.24v.56h1.44v.52h-2l0-2.66Z"/>
        <path class="cls-1" d="M112.93,10h.64l.7,1.86L115,10h.62l-1.07,2.68H114Z"/>
        <path class="cls-1" d="M116,10h2v.52h-1.42v.54h1.24v.5h-1.24v.56H118v.52h-2Z"/>
        <path class="cls-1" d="M118.54,10h.54l1.24,1.63V10h.58v2.66h-.5L119.12,11v1.69h-.58V10Z"/>
        <path class="cls-1" d="M121.56,10h.58v2.66h-.58Z"/>
        <path class="cls-1" d="M122.8,10h.54l1.24,1.63V10h.58v2.66h-.5L123.39,11v1.69h-.58V10Z"/>
        <path class="cls-1" d="M125.69,11.33h0a1.36,1.36,0,0,1,1.4-1.38,1.49,1.49,0,0,1,1,.37l-.37.45a1,1,0,0,0-.7-.27.79.79,0,0,0-.76.83h0a.78.78,0,0,0,.8.83,1,1,0,0,0,.54-.16v-.39h-.58v-.5h1.14v1.14a1.69,1.69,0,0,1-1.12.43A1.32,1.32,0,0,1,125.69,11.33Z"/>
      </g>
    </g>
  </g>
</svg>
