<svg id="Layer_1" data-name="Layer 1" xmlns="http://www.w3.org/2000/svg" viewBox="0 0 179 36"><defs><style>.cls-1{fill:#222;}.cls-2{fill:#29306e;}</style></defs><title>News Letter_Logo</title><path class="cls-1" d="M12.65,9.77h5.41l9.45,11V13.3a2.37,2.37,0,0,0-.68-1.78,2.94,2.94,0,0,0-1.95-.74v-1h6.37v1a3,3,0,0,0-1.91.73,2.49,2.49,0,0,0-.58,1.79V25.83H27.4L16.65,13.16v8.78a2.86,2.86,0,0,0,.75,2.2,2.64,2.64,0,0,0,1.86.69h.29v1h-7v-1H13a2.29,2.29,0,0,0,1.75-.76,2.75,2.75,0,0,0,.71-2V11.75a2.5,2.5,0,0,0-2-1h-.78Z"/><path class="cls-1" d="M40.9,20.95H33.16a4.78,4.78,0,0,0,.94,3.15,3,3,0,0,0,2.31,1,3.79,3.79,0,0,0,1.92-.52,6.25,6.25,0,0,0,1.86-1.89l.86.49a6.31,6.31,0,0,1-2.29,2.33,6.54,6.54,0,0,1-3.15.7,6.28,6.28,0,0,1-4.39-1.52,5,5,0,0,1-1.67-3.9,5.25,5.25,0,0,1,1.69-4,5.8,5.8,0,0,1,4.14-1.6,6.21,6.21,0,0,1,2.92.64,4.54,4.54,0,0,1,1.9,1.87A6.87,6.87,0,0,1,40.9,20.95Zm-7.74-1h3.68a1,1,0,0,0,.74-.24,1.28,1.28,0,0,0,.22-.87,2.81,2.81,0,0,0-.62-1.95,2,2,0,0,0-1.59-.69,2,2,0,0,0-1.75.93A5.71,5.71,0,0,0,33.16,20Z"/><path class="cls-1" d="M40.51,15.67h5.7v1h-.33a1.46,1.46,0,0,0-.75.14.41.41,0,0,0-.21.35.69.69,0,0,0,.08.32l2.32,4.7,2-4.38a2.77,2.77,0,0,0-.74-1,2.17,2.17,0,0,0-1-.16v-1h6.18v1H53.4a1.48,1.48,0,0,0-.78.15.45.45,0,0,0-.21.39,1.29,1.29,0,0,0,.17.6l2.18,4.38,1.89-4.25a1.09,1.09,0,0,0,.07-.39.84.84,0,0,0-.24-.64.87.87,0,0,0-.63-.23h-.45v-1h4.4v1A2.16,2.16,0,0,0,57.85,18l-3.57,8.17H53.4l-3.4-7-3.11,7H46l-4.22-8.75a1.59,1.59,0,0,0-.48-.62,1.61,1.61,0,0,0-.78-.18Z"/><path class="cls-1" d="M66.88,16l.77-.86h.72l.24,3.48h-1A5.09,5.09,0,0,0,66,16.64a4.06,4.06,0,0,0-2.19-.56,3,3,0,0,0-1.69.39,1.16,1.16,0,0,0-.58,1,1,1,0,0,0,.45.89,8.1,8.1,0,0,0,2.45.69,17.09,17.09,0,0,1,2.42.57,3.89,3.89,0,0,1,1.79,1.26,3.12,3.12,0,0,1,.64,2,2.91,2.91,0,0,1-1.23,2.37,5.11,5.11,0,0,1-3.24,1,6.7,6.7,0,0,1-1.75-.21,6.1,6.1,0,0,1-1.63-.74l-.84.91h-.9l-.21-3.84h1a4.37,4.37,0,0,0,4.29,2.91,3.41,3.41,0,0,0,1.91-.45,1.28,1.28,0,0,0,.66-1.07,1,1,0,0,0-.41-.86,7.14,7.14,0,0,0-2.19-.63,18.43,18.43,0,0,1-2.62-.62,3.89,3.89,0,0,1-1.79-1.18,2.83,2.83,0,0,1-.6-1.82,3.18,3.18,0,0,1,1.1-2.49,4.28,4.28,0,0,1,2.94-1,6.11,6.11,0,0,1,1.61.2A6.21,6.21,0,0,1,66.88,16Z"/><path class="cls-1" d="M73.93,10.78v-1h9v1H81.37a1.39,1.39,0,0,0-.91.23.94.94,0,0,0-.26.74V23.7q0,.73.25.93a2.14,2.14,0,0,0,1.17.2h2.51a3.65,3.65,0,0,0,2.62-1.23,8.28,8.28,0,0,0,1.86-3.92h1.06l-.4,6.16H73.93v-1h1.53a1.1,1.1,0,0,0,.77-.24.87.87,0,0,0,.26-.67V11.63a.76.76,0,0,0-.27-.65,1.56,1.56,0,0,0-.91-.2Z"/><path class="cls-1" d="M101.56,20.82H93.83A4.78,4.78,0,0,0,94.76,24a3,3,0,0,0,2.31,1A3.79,3.79,0,0,0,99,24.47a6.25,6.25,0,0,0,1.86-1.89l.86.49a6.31,6.31,0,0,1-2.29,2.33,6.54,6.54,0,0,1-3.15.7,6.28,6.28,0,0,1-4.39-1.52,5,5,0,0,1-1.67-3.9,5.25,5.25,0,0,1,1.69-4A5.8,5.8,0,0,1,96,15.11a6.21,6.21,0,0,1,2.92.64,4.54,4.54,0,0,1,1.9,1.87A6.87,6.87,0,0,1,101.56,20.82Zm-7.74-1h3.68a1,1,0,0,0,.74-.24,1.28,1.28,0,0,0,.22-.87,2.81,2.81,0,0,0-.62-1.95,2,2,0,0,0-1.59-.69,2,2,0,0,0-1.75.93A5.71,5.71,0,0,0,93.83,19.83Z"/><path class="cls-1" d="M105.5,11.49h1v4.18h3.64v1.17h-3.64V23.3a1.34,1.34,0,0,0,.36,1,1.27,1.27,0,0,0,.94.35q1.66,0,1.75-2.83h1a5.5,5.5,0,0,1-.52,2.43,3.39,3.39,0,0,1-1.39,1.42,4.13,4.13,0,0,1-2,.5,3.74,3.74,0,0,1-1.72-.37,2.79,2.79,0,0,1-1.16-1.1,3.09,3.09,0,0,1-.43-1.59V16.84h-2v-1a4.47,4.47,0,0,0,2.8-1.27A5.28,5.28,0,0,0,105.5,11.49Z"/><path class="cls-1" d="M115,11.49h1v4.18h3.64v1.17h-3.64V23.3a1.34,1.34,0,0,0,.36,1,1.27,1.27,0,0,0,.94.35q1.66,0,1.75-2.83h1a5.5,5.5,0,0,1-.52,2.43,3.39,3.39,0,0,1-1.39,1.42,4.13,4.13,0,0,1-2,.5,3.74,3.74,0,0,1-1.72-.37,2.79,2.79,0,0,1-1.16-1.1,3.09,3.09,0,0,1-.43-1.59V16.84h-2v-1a4.47,4.47,0,0,0,2.8-1.27A5.28,5.28,0,0,0,115,11.49Z"/><path class="cls-1" d="M132,20.82h-7.74a4.78,4.78,0,0,0,.94,3.15,3,3,0,0,0,2.31,1,3.79,3.79,0,0,0,1.92-.52,6.25,6.25,0,0,0,1.86-1.89l.86.49a6.31,6.31,0,0,1-2.29,2.33,6.54,6.54,0,0,1-3.15.7,6.28,6.28,0,0,1-4.39-1.52,5,5,0,0,1-1.67-3.9,5.25,5.25,0,0,1,1.69-4,5.8,5.8,0,0,1,4.14-1.6,6.21,6.21,0,0,1,2.92.64,4.54,4.54,0,0,1,1.9,1.87A6.87,6.87,0,0,1,132,20.82Zm-7.74-1H128a1,1,0,0,0,.74-.24,1.28,1.28,0,0,0,.22-.87,2.81,2.81,0,0,0-.62-1.95,2,2,0,0,0-1.59-.69A2,2,0,0,0,125,17,5.71,5.71,0,0,0,124.28,19.83Z"/><path class="cls-1" d="M139.49,24.82v1h-7.71v-1h1a1.4,1.4,0,0,0,.86-.21.69.69,0,0,0,.27-.57V18A1.4,1.4,0,0,0,133.5,17a1.42,1.42,0,0,0-1-.34h-.63v-1l4.72-.23v3.31A4.8,4.8,0,0,1,138,16.2a3.43,3.43,0,0,1,2.31-.89,2.6,2.6,0,0,1,1.73.54,1.73,1.73,0,0,1,.64,1.38,1.61,1.61,0,0,1-.44,1.18,1.45,1.45,0,0,1-1.08.45,1.36,1.36,0,0,1-1-.39,1.33,1.33,0,0,1-.41-1,1.53,1.53,0,0,1,.19-.71.81.81,0,0,0,.1-.29.29.29,0,0,0-.08-.22.35.35,0,0,0-.24-.07,1.45,1.45,0,0,0-.93.46,5.34,5.34,0,0,0-1.3,2.2,9,9,0,0,0-.53,3V24a.74.74,0,0,0,.22.58.9.9,0,0,0,.62.2Z"/><path class="cls-2" d="M157.57,24.21c0-.56,0-1.11,0-1.11h-.27a3.34,3.34,0,0,1,.11,1.18c0,.78-.17,1.08-.27,1.18a2.53,2.53,0,0,1-.28.26.82.82,0,0,0,.28-.06l.12-.1,0,.29.12-.27s0,0,.1.11a.84.84,0,0,0,.26.13,4.26,4.26,0,0,1-.21-.4A5.58,5.58,0,0,1,157.57,24.21Z"/><path class="cls-2" d="M158,25.18a3.45,3.45,0,0,1-.09-.94c0-.32.06-1.21.06-1.21l-.15,0h-.08s0,1.63.05,2.07a1.07,1.07,0,0,0,.28.49.79.79,0,0,0,.27.19.8.8,0,0,1-.07-.13.91.91,0,0,1,0-.15,1.09,1.09,0,0,0,.18.05l.19,0,0,0c-.05,0-.11-.12-.11-.11h.19l.23,0-.13,0A2.72,2.72,0,0,1,158,25.18Z"/><path class="cls-2" d="M156.72,11.65a.49.49,0,1,1-.48-.55A.52.52,0,0,1,156.72,11.65Zm-.48-.09a.27.27,0,1,0,.3.27A.29.29,0,0,0,156.24,11.56Z"/><path class="cls-2" d="M158.7,11.81a.55.55,0,0,1-.64.39.49.49,0,0,1-.29-.65.55.55,0,0,1,.64-.39A.49.49,0,0,1,158.7,11.81Zm-.43-.22a.3.3,0,0,0-.37.18.27.27,0,0,0,.2.34.3.3,0,0,0,.37-.18A.27.27,0,0,0,158.27,11.6Z"/><path class="cls-2" d="M160.57,12.48a.57.57,0,0,1-.73.2.48.48,0,0,1-.07-.7.57.57,0,0,1,.73-.2A.48.48,0,0,1,160.57,12.48Zm-.76-.25a.26.26,0,0,0,.08.38.31.31,0,0,0,.41-.07.26.26,0,0,0-.08-.38A.31.31,0,0,0,159.81,12.24Z"/><path class="cls-2" d="M162.27,12.91a.48.48,0,0,1-.16.69.58.58,0,0,1-.77,0,.48.48,0,0,1,.16-.69A.58.58,0,0,1,162.27,12.91Zm-.8.25a.26.26,0,0,0,0,.38.31.31,0,0,0,.42,0,.26.26,0,0,0,0-.38A.31.31,0,0,0,161.46,13.16Z"/><path class="cls-2" d="M163.44,15a.58.58,0,0,1-.76-.09.49.49,0,0,1,.25-.67.58.58,0,0,1,.76.09A.49.49,0,0,1,163.44,15Zm-.58-.52a.26.26,0,0,0-.1.38.31.31,0,0,0,.41.09.26.26,0,0,0,.1-.38A.31.31,0,0,0,162.86,14.45Z"/><path class="cls-2" d="M164.27,16.67a.56.56,0,0,1-.7-.28c-.07-.24.13-.49.44-.58a.56.56,0,0,1,.7.28C164.78,16.34,164.59,16.59,164.27,16.67Zm0-.45a.3.3,0,0,0-.36-.19.27.27,0,0,0-.21.34.3.3,0,0,0,.36.19A.27.27,0,0,0,164.23,16.22Z"/><path class="cls-2" d="M165.19,18.2c0,.24-.22.47-.55.49a.55.55,0,0,1-.64-.39c0-.24.22-.47.55-.49A.55.55,0,0,1,165.19,18.2Zm-.82-.2a.28.28,0,0,0-.27.3.29.29,0,0,0,.32.25.28.28,0,0,0,.27-.3A.29.29,0,0,0,164.37,18Z"/><path class="cls-2" d="M154.69,11.87a.49.49,0,0,1-.29.65.55.55,0,0,1-.64-.39.49.49,0,0,1,.29-.65A.55.55,0,0,1,154.69,11.87Zm-.49,0a.27.27,0,0,0-.2.34.3.3,0,0,0,.37.18.27.27,0,0,0,.2-.34A.3.3,0,0,0,154.2,11.91Z"/><path class="cls-2" d="M153,12.55a.48.48,0,0,1-.07.7.57.57,0,0,1-.73-.2.48.48,0,0,1,.07-.7A.57.57,0,0,1,153,12.55Zm-.46.18a.26.26,0,0,0-.08.38.31.31,0,0,0,.41.07.26.26,0,0,0,.08-.38A.31.31,0,0,0,152.51,12.73Z"/><path class="cls-2" d="M151.53,14.39a.58.58,0,0,1-.77,0,.48.48,0,0,1-.16-.69.58.58,0,0,1,.77,0A.48.48,0,0,1,151.53,14.39ZM151,14a.26.26,0,0,0,0,.38.31.31,0,0,0,.42,0,.26.26,0,0,0,0-.38A.31.31,0,0,0,151,14Z"/><path class="cls-2" d="M150.58,15.83a.57.57,0,0,1-.74.18.49.49,0,0,1-.34-.63.57.57,0,0,1,.74-.18A.49.49,0,0,1,150.58,15.83Zm-.24-.4a.31.31,0,0,0-.39.14.26.26,0,0,0,.15.36.31.31,0,0,0,.39-.14A.26.26,0,0,0,150.35,15.44Z"/><path class="cls-2" d="M150.08,17.37a.55.55,0,0,1-.65.38c-.33,0-.56-.26-.53-.51a.55.55,0,0,1,.65-.38C149.88,16.9,150.11,17.12,150.08,17.37Zm-.36-.31a.29.29,0,0,0-.33.24.28.28,0,0,0,.26.3.29.29,0,0,0,.33-.24A.28.28,0,0,0,149.73,17.06Z"/><path class="cls-2" d="M150,19c.07.24-.14.49-.46.57a.56.56,0,0,1-.69-.3c-.07-.24.14-.49.46-.57A.56.56,0,0,1,150,19Zm-.45-.18a.27.27,0,0,0-.22.33.3.3,0,0,0,.36.2.27.27,0,0,0,.22-.33A.3.3,0,0,0,149.53,18.87Z"/><path class="cls-2" d="M160.37,21.16A1.8,1.8,0,0,0,160.2,20a2.54,2.54,0,0,0-.54-.76,2.26,2.26,0,0,1-.19-.22,3,3,0,0,1-.26-1.28v-.12a2,2,0,0,0-.12-1,1.29,1.29,0,0,0-.42-.49.08.08,0,0,1,0-.06.08.08,0,0,1,0-.06.7.7,0,0,1,.44-.21h.22l-.17,0a1.68,1.68,0,0,0-.57.16.1.1,0,0,1-.11,0,.08.08,0,0,1,0-.1,1.37,1.37,0,0,1,.24-.22c-.22.09-.46.2-.46.2a.1.1,0,0,1-.09,0,.09.09,0,0,1,0-.06s0-.07.1-.18l.06-.06,0,0a2.45,2.45,0,0,0-.55.48,1.2,1.2,0,0,0-.25.7.57.57,0,0,1,.22-.14.37.37,0,0,1,.35.05.58.58,0,0,1,.2.57,1.44,1.44,0,0,1-.19.46,3,3,0,0,0-.26.58,3.23,3.23,0,0,0,.05,1.32.08.08,0,0,1,0,.09,8.18,8.18,0,0,0-1.47,1,5.67,5.67,0,0,0-1.21,1.87h0a4.63,4.63,0,0,0-.29,1.29,1.51,1.51,0,0,0,.39,1.12s0-1.05.32-1.39a1.86,1.86,0,0,1,1.29-.59,2.52,2.52,0,0,0,.59,0,5,5,0,0,0,1.87-.41A1.79,1.79,0,0,0,160.37,21.16Z"/><path class="cls-2" d="M165.84,16.87a1.39,1.39,0,0,0,.17-.67,1.5,1.5,0,0,0-1-1.37,1.38,1.38,0,0,0,0-.35A1.54,1.54,0,0,0,163.7,13a1.57,1.57,0,0,0-1.62-1.46h-.19a1.62,1.62,0,0,0-1.54-1,1.74,1.74,0,0,0-.61.11,1.66,1.66,0,0,0-1.37-.7,1.71,1.71,0,0,0-1,.3,1.7,1.7,0,0,0-1.1-.4,1.68,1.68,0,0,0-1.27.57,1.73,1.73,0,0,0-.77-.18,1.64,1.64,0,0,0-1.49.9,1.77,1.77,0,0,0-.34,0,1.59,1.59,0,0,0-1.61,1.27,1.56,1.56,0,0,0-1.59,1.5,1.39,1.39,0,0,0,0,.17,1.52,1.52,0,0,0-1.14,1.43,1.39,1.39,0,0,0,.11.55,1.47,1.47,0,0,0-.73,1.25,1.41,1.41,0,0,0,.32.89,1.43,1.43,0,0,0-.46,1,1.57,1.57,0,0,0,1.63,1.5,1.75,1.75,0,0,0,.54-.08l2.89-.37a8.22,8.22,0,0,0,1.46,1.43,10,10,0,0,0,1.11.69,5.43,5.43,0,0,1,1.2-1.8,8.39,8.39,0,0,1,1.45-1,3.14,3.14,0,0,1,0-1.34,3.07,3.07,0,0,1,.27-.61,1.3,1.3,0,0,0,.17-.41.42.42,0,0,0-.13-.41.17.17,0,0,0-.17,0,.51.51,0,0,0-.27.31.09.09,0,0,1-.09.06.09.09,0,0,1-.08-.07,1.47,1.47,0,0,1,.27-1.11,2.63,2.63,0,0,1,.59-.52,3.29,3.29,0,0,1,.69-.33.09.09,0,0,1,.11,0,.08.08,0,0,1,0,.1l-.37.29a2.67,2.67,0,0,1,.35-.12,2.4,2.4,0,0,1,.65,0,.09.09,0,0,1,.08.08.08.08,0,0,1-.07.08,4.77,4.77,0,0,0-.49.11h.1a1.26,1.26,0,0,1,.81.3.08.08,0,0,1,0,.1.09.09,0,0,1-.1,0,2.09,2.09,0,0,0-.74-.08.62.62,0,0,0-.26.09,1.48,1.48,0,0,1,.39.49,2.19,2.19,0,0,1,.14,1.05v.12a2.86,2.86,0,0,0,.23,1.19,2.18,2.18,0,0,0,.18.2,2.67,2.67,0,0,1,.57.81,1.93,1.93,0,0,1,.19,1.18l0,0a3.79,3.79,0,0,0,.38-.81l1.49-.54a20.64,20.64,0,0,0,2.42-.09,1.69,1.69,0,0,0,1.15-.55,1.44,1.44,0,0,0,.48-1.06A1.46,1.46,0,0,0,165.84,16.87Zm-16.48,3c-.53.12-1-.06-1.13-.4s.26-.73.79-.85,1,.06,1.13.4S149.89,19.73,149.36,19.85Zm-.17-1.93c-.54-.06-.95-.39-.9-.75s.52-.6,1.06-.54.95.39.9.75S149.74,18,149.19,17.92Zm1.55-2c-.16.33-.69.42-1.19.22s-.78-.64-.62-1,.69-.42,1.19-.22S150.9,15.58,150.74,15.9Zm.92-1.4a.94.94,0,0,1-1.21-.07c-.43-.32-.57-.8-.33-1.08a.94.94,0,0,1,1.21.07C151.77,13.74,151.91,14.22,151.67,14.5ZM153,13.39a.92.92,0,0,1-1.14-.39c-.31-.42-.29-.92,0-1.12a.92.92,0,0,1,1.14.39C153.33,12.69,153.31,13.19,153,13.39Zm1.46-.71a.88.88,0,0,1-1-.68.79.79,0,0,1,.38-1.06.88.88,0,0,1,1,.68A.79.79,0,0,1,154.45,12.68Zm1.79-.32a.83.83,0,0,1-.7-.91.73.73,0,1,1,1.4,0A.83.83,0,0,1,156.24,12.36Zm2.74-.68a.88.88,0,0,1-1,.68.79.79,0,0,1-.38-1.06.88.88,0,0,1,1-.68A.79.79,0,0,1,159,11.68Zm1.9.75a.92.92,0,0,1-1.14.39c-.32-.2-.33-.7,0-1.12a.92.92,0,0,1,1.14-.39C161.17,11.51,161.18,12,160.87,12.43Zm1.54,1.2a.94.94,0,0,1-1.21.07c-.24-.28-.1-.76.33-1.08a.94.94,0,0,1,1.21-.07C163,12.83,162.84,13.31,162.42,13.63Zm.12,1.32c-.2-.3,0-.76.48-1a.94.94,0,0,1,1.21.07c.2.3,0,.76-.48,1A.94.94,0,0,1,162.53,15Zm.86,1.48c-.1-.34.24-.73.77-.87s1,0,1.14.38-.24.73-.77.87S163.5,16.78,163.4,16.43Zm1.49,2.44c-.54,0-1-.2-1.05-.56s.38-.68.92-.73,1,.2,1.05.56S165.43,18.83,164.89,18.88Z"/></svg>