<svg xmlns="http://www.w3.org/2000/svg" viewBox="0 0 179 36"><defs><style>.a{fill:#fff;}.b{fill:#c5292d;}</style></defs><title>Sunderland Echo_Logo</title><path class="a" d="M79,28.11c-3.71,0-4.71-1.34-4.71-2.29s.85-1.69,2.11-2c-1.49-.33-2.17-1-2.17-2.09a2.09,2.09,0,0,1,1.49-1.91,2.39,2.39,0,0,1-1.3-2.17c0-1.86,1.79-3.45,4.25-3.45a5.16,5.16,0,0,1,1.71.29h2.85V15h-2a2.84,2.84,0,0,1,1.4,2.54c0,1.64-1.5,3-3.94,3a5.83,5.83,0,0,1-2.39-.4c-.87.23-1.16.73-1.16,1,0,.66.72,1,1.63,1S78.64,22,80,22c2.17,0,3.35,1.14,3.35,2.89S82,28.11,79,28.11Zm-.37-13.56c-1.18,0-1.92,1.09-1.92,2.93s.68,2.6,1.88,2.6,1.86-.8,1.86-2.6S79.74,14.55,78.58,14.55ZM78.81,24c-2.71,0-3.2.72-3.2,1.71s1.32,2,3.34,2c2.31,0,3.59-.91,3.59-2.15S81.35,24,78.81,24Z"/><path class="a" d="M13.25,21.82a2.8,2.8,0,0,0,.12,1,.94.94,0,0,0,.87.5c.22,0,.51,0,.88,0H16.3a3.28,3.28,0,0,0,3-1.49A5.89,5.89,0,0,0,20,19.36h.58l-.17,4.71H9.35v-.58H10c1,0,1.21-.23,1.21-1.12V11.85c0-.89-.24-1.12-1.21-1.12H9.35v-.58H20.51l.15,4.15h-.58a4.61,4.61,0,0,0-.79-2.41c-.66-.89-1.4-1.16-3-1.16H15c-.82,0-1.3.08-1.48.27s-.27.62-.27,1.38v3.95h1.17a2.38,2.38,0,0,0,2.36-1.08A4.11,4.11,0,0,0,17,13.56h.6v6.07H17a3.12,3.12,0,0,0-.51-1.94,2,2,0,0,0-.91-.62,4.77,4.77,0,0,0-1.12-.1H13.27v4.85Z"/><path class="a" d="M27.59,22.35a2.61,2.61,0,0,1-2.49,1.94,3.26,3.26,0,0,1-2.65-1.5,5.92,5.92,0,0,1-1.09-3.61,5.51,5.51,0,0,1,1.11-3.43,3.19,3.19,0,0,1,2.63-1.47,2.57,2.57,0,0,1,2.49,1.84V12.07a1.87,1.87,0,0,0-.2-1.11c-.11-.15-.44-.23-.95-.23H26v-.58c.89,0,2-.06,3.39-.12,0,9.91,0,11.91,0,12.82,0,.37.31.62.93.62h.56v.58H29.43c-.25,0-.85,0-1.84.1Zm-4.08-3.28c0,2.95.64,4.42,1.94,4.42s2.12-1.47,2.12-3.82a10.1,10.1,0,0,0-.31-3c-.39-1.18-1.07-1.76-2-1.76C24.1,14.92,23.51,16.29,23.51,19.07Z"/><path class="a" d="M34.82,22.89c0,.27.08.45.27.5a1.55,1.55,0,0,0,.64.08h.57v.58H31.49v-.58h.56a1.55,1.55,0,0,0,.64-.08c.19-.05.27-.23.27-.5V16.62a3.1,3.1,0,0,0-.17-1.37c-.1-.16-.43-.24-.94-.24h-.46v-.54c.81,0,2,0,3.41-.15v8.57Zm.31-11.33a1.36,1.36,0,1,1-1.34-1.36A1.35,1.35,0,0,1,35.13,11.56Z"/><path class="a" d="M40.16,16a2.87,2.87,0,0,1,2.67-1.74,2.73,2.73,0,0,1,2.14.91,3.36,3.36,0,0,1,.6,2.13v5.59c0,.39.31.58.91.58H47v.58H42.23v-.58h.54c.64,0,.92-.19.92-1.08V17.15c0-1.32-.49-2-1.44-2-1.22,0-2.09,1.11-2.09,2.68v5c0,.27.07.45.27.5a1.52,1.52,0,0,0,.64.08h.56v.58H36.84v-.58h.58a1.55,1.55,0,0,0,.64-.08c.2-.05.27-.23.27-.5V16.2c0-1-.06-1.17-1.06-1.17h-.45v-.56a19.09,19.09,0,0,0,3.32-.23V16Z"/><path class="a" d="M47.57,12.16a2.1,2.1,0,0,0-.2-1.2c-.1-.15-.44-.23-.95-.23H46v-.58c1.73,0,2.86-.06,3.38-.12v6a2.54,2.54,0,0,1,2.48-1.78,3.14,3.14,0,0,1,2.6,1.43,5.58,5.58,0,0,1,1.09,3.53,5.32,5.32,0,0,1-1.26,3.59,3.77,3.77,0,0,1-3,1.48,3.49,3.49,0,0,1-2.58-1.42A11.1,11.1,0,0,0,48,24.25h-.4Zm2,5.1a17.07,17.07,0,0,0-.19,2.66c0,2.52.66,3.8,2,3.8a1.65,1.65,0,0,0,1.45-.93,7.76,7.76,0,0,0,.57-3.55c0-3.06-.51-4.24-1.83-4.24C50.47,15,49.8,15.75,49.52,17.26Z"/><path class="a" d="M62.33,22.39a2.75,2.75,0,0,1-2.74,1.9,2.54,2.54,0,0,1-2.29-1.17,4.15,4.15,0,0,1-.35-2V16.18c0-.53-.06-.84-.19-.95a1.32,1.32,0,0,0-.89-.2H55.4v-.56a33.32,33.32,0,0,0,3.4-.15v6.75c0,1.76.5,2.21,1.47,2.21a1.82,1.82,0,0,0,1.65-1,3.66,3.66,0,0,0,.39-2.06v-4c0-.53-.06-.84-.2-.95a1.49,1.49,0,0,0-1-.2H60.7v-.56a33.29,33.29,0,0,0,3.43-.15v8.49c0,.37.29.64.91.64h.56V24H64.13a11.78,11.78,0,0,0-1.84.12V22.39Z"/><path class="a" d="M69.58,16a2.53,2.53,0,0,1,2.31-1.69,2.08,2.08,0,0,1,2,2,1.44,1.44,0,0,1-1.35,1.57,1.3,1.3,0,0,1-1.3-1.21,1.13,1.13,0,0,1,.81-1.14c.2-.06.27-.16.27-.25,0-.27-.21-.39-.6-.39a2.09,2.09,0,0,0-1.63,1.05A3.55,3.55,0,0,0,69.56,18v4.91c0,.27.08.44.27.5a1.55,1.55,0,0,0,.64.08H71v.58H66.22v-.58h.57a1.55,1.55,0,0,0,.64-.08c.19-.06.27-.23.27-.5V16.2c0-.53-.06-.84-.2-.95s-.4-.22-.89-.22h-.42v-.56a25.81,25.81,0,0,0,3.39-.19Z"/><path class="a" d="M87,16.1a2.75,2.75,0,0,1,2.69-1.86,2.55,2.55,0,0,1,2.66,2.85v5.78c0,.27.08.45.27.5a1.55,1.55,0,0,0,.64.08h.57V24H89v-.58h.56a1.55,1.55,0,0,0,.64-.08c.19-.05.27-.23.27-.5V17.11c0-.89-.25-1.9-1.38-1.9A2.36,2.36,0,0,0,87,17.81v5.06c0,.27.08.45.27.5a1.55,1.55,0,0,0,.64.08h.56V24H83.64v-.58h.56c.61,0,.92-.19.92-.58V12a3.48,3.48,0,0,0-.06-.8.68.68,0,0,0-.6-.46,3.27,3.27,0,0,0-.51,0h-.42v-.58c1.74,0,2.89-.06,3.43-.12V16.1Z"/><path class="a" d="M152.4,7.9c.08,0,.33,0,.33,0h0c0,.06-.06.3,0,.3s.19.09.27,0,0-.17.06-.17,0,0,0,0a.37.37,0,0,0,.14,0c.25.19-.06.72-.14.91,0,0,0,0,0,0s0,.31,0,.47,0,.17,0,.17v0H153c-.22-.27-.55-.21-.92-.21,0-.14,0-.28,0-.43s-.11-.21-.17-.33-.14-.78.21-.78a.1.1,0,0,1,.08,0c0,.12,0,.24,0,.35C152.36,8.28,152.44,8.19,152.4,7.9Z"/><path class="a" d="M148.66,9a.75.75,0,0,1,.37.43c0,.23-.14.73.17.75s.23-.36.37-.36v0c.08,0,.37,0,.37,0h0c0,.07,0,.34,0,.34v0c.09,0,.27,0,.35-.09s0-.24.11-.29c.33-.18.45.11.45.36.08,0,.33,0,.33,0h0a.58.58,0,0,1,0-.29c.06-.07.43-.09.43,0v.33c.08,0,.33,0,.33,0s0-.07,0-.11V9.89h0v0h.58c0,.32.12.34.43.34v0h0s0,0,0,0V9.87h.08a1.67,1.67,0,0,1,.5,0c0,.08,0,.33.08.33a1.4,1.4,0,0,0,.5,0c.06-.23,0-.48,0-.69s.33-.43.33-.51c.35.22.31.54.31.93a1.12,1.12,0,0,1-.06.45c-.08.17-.29.33-.35.52a5,5,0,0,0,0,1,17.7,17.7,0,0,0-4.05,0c-.45.06-.85.16-1.26.23l-.37.12v0h0a3.92,3.92,0,0,0,0-1.28,2.5,2.5,0,0,0-.35-.54,1.6,1.6,0,0,1-.05-.95A1.5,1.5,0,0,1,148.66,9Z"/><path class="a" d="M146.37,10.32c.52,0,.39.35.39.78,0,0,0,0,0,0a.27.27,0,0,0-.12.21H147a1.29,1.29,0,0,1,.62,0h.87v.25c-.21,0-.79-.06-.79.21h0v0a2.46,2.46,0,0,1,.72,0h0V12c-.19,0-.93,0-.93.17-.05,0,0,0,0,0h1v.14c-.23,0-1.12-.08-1.12.17-.06,0,0,0,0,0h1v.08l-.68.1c-.6,0-1.18,0-1.8,0-.06,0,0,0,0,0h0v0a4.75,4.75,0,0,1,.33-.76v-.08H146v0c-.41.47-.33.84-1,1.13a1,1,0,0,1-.44.13s-.06-.11,0-.11l1.16-1.34a2,2,0,0,0,.39-.52,2.67,2.67,0,0,0,0-.7Z"/><path class="a" d="M156,10.73c.21,0,.41,0,.62,0,0,.08,0,.42,0,.42v0c.37,0,.33,0,.33-.38h.08a1,1,0,0,1,.42,0c0,.13,0,.27,0,.38h0v0c.08,0,.37,0,.37,0a.72.72,0,0,0,.08-.42h0l0,0v0c.11,0,.33-.06.4,0a4.37,4.37,0,0,1,0,1.69v0c-.18.08-.43-.06-.59-.08-.37-.07-.73-.15-1.12-.21a2.82,2.82,0,0,0-.58-.1,1.83,1.83,0,0,0,0-.66c-.12-.31-.64-.33-.93-.29l-.41.14c0-.1,0-.27.06-.33a4.13,4.13,0,0,1,1.24-.06A1.34,1.34,0,0,1,156,10.73Z"/><path class="a" d="M159,11.12h.29c.11.19.42.56.42.77-.36,0-.73,0-1.12,0v-.07c0-.12,0-.55.1-.61A1.54,1.54,0,0,0,159,11.12Z"/><path class="a" d="M159,12.07h.54v.81c-.1,0-.62-.13-.62-.21A5.78,5.78,0,0,0,159,12.07Z"/><path class="a" d="M152.38,12.14c.33,0,.68,0,1.05,0l1.63.16c1.09.15,2.11.33,3.14.56.37.1.74.17,1.13.25l2.52.76a3.08,3.08,0,0,0,.79.27s0,0,0-.06v0l-.13-.17-.12-.41s-.06-.08,0-.08.37-.48.37-.54a3.73,3.73,0,0,1,.46.51v.07h0v0l-.46,0v.08h.08a2.25,2.25,0,0,1,.33.08c.11.44.15,1.43-.51,1.39a2.56,2.56,0,0,1-.56-.15c-.66-.22-1.32-.41-2-.62a39.07,39.07,0,0,0-6.21-1c-.44,0-.91,0-1.33,0a17.69,17.69,0,0,0-3.4.31l-1.26.35-.5.17v0h0c0-.17,0-.35,0-.54s0-.21,0-.33l.5-.19a10.19,10.19,0,0,1,1.3-.39,2.56,2.56,0,0,1,.7-.14.84.84,0,0,1,.37-.07,2,2,0,0,1,.87-.1,1,1,0,0,1,.43,0Z"/><path class="a" d="M145.54,13.11c.23.14.13,1.73.15,2.1s0,.68,0,1a9.93,9.93,0,0,0,0,1.1,3,3,0,0,1-.06,1.13c-.19.38-.58.62-.79,1a0,0,0,0,1,0,0c-.06.09,0,.27-.06.38s-.21.47-.33.7a6,6,0,0,1-.25.58c-.18.26-.37.51-.54.74,0,0,0,.06,0,.08h-.08c0-.06,0-.12,0-.12.15-.66.54-1.2.72-1.82,0-.06,0-.1.07-.1v-.1c-.06,0-.07,0-.07,0A6.22,6.22,0,0,0,143,22.13l-.28.51h-.07a5.59,5.59,0,0,1,1-2.43c.05-.13.11-.25.17-.39a4.55,4.55,0,0,1,.8-.91v0c0-.31,0-.62,0-.93,0-1,0-2.07,0-3.16a5.78,5.78,0,0,1,0-1.26A2.54,2.54,0,0,1,145.54,13.11Z"/><path class="a" d="M146.41,13.13c.17.08.17.51.12.51v0h-.33v-.51A.86.86,0,0,0,146.41,13.13Z"/><path class="a" d="M166,13.42c.08,0,.21,0,.21.08s0,.49.06.7a10.63,10.63,0,0,1,.56,1.12c0,.2,0,.41,0,.61a6.64,6.64,0,0,0-.91-.14l.06-.41c.08-.07.58.08.74.08a.85.85,0,0,0-.2-.25c-.11-.08-.7-.21-.66-.37s.47,0,.47.06h0c0-.06,0-.08,0-.08s-.47-.17-.45-.35.18,0,.06-.27c0,0,0-.1-.08-.1a.1.1,0,0,0-.08,0,4,4,0,0,1-.36.66l-.31.1c-.12,0-.2.14-.31.18-.28.05-.55.13-.82.19v0h.08c.1-.31.37-.54.43-.87s0-.43,0-.62l.29,0c.19-.06.21.46.13.46v0s-.21,0-.21,0h0v0s0,0,0,.08a5.85,5.85,0,0,0,.8-.08c.15-.17.13-.37.13-.64,0-.06,0,0,0,0A1.79,1.79,0,0,0,166,13.42Z"/><path class="a" d="M152.44,13.5l2,.08a18.81,18.81,0,0,1,3.06.41c1.13.21,2.27.5,3.36.77l1,.29.31.14v.08a8.58,8.58,0,0,1-1-.24l-.64-.15v0a.51.51,0,0,0,.16.13l.58.24c.39.17.76.36,1.16.52l.29.1c0,.05.08.11.08.17l-2.25-.64a.32.32,0,0,0,.1.18l.58.23c.49.23,1,.44,1.47.68l.3.13v.12l-2.35-.64c0,.06,0,.14.08.14.33.17,2.21.83,2.21,1.14-.47-.14-1-.25-1.42-.39a2.92,2.92,0,0,0-.83-.17s0,.07,0,.07v0l2.27,1c0,.06,0,.08,0,.08a9.7,9.7,0,0,1-2.06-.54.9.9,0,0,1-.21-.08v0h0v.08a2.92,2.92,0,0,1,.5.25l.76.35a1.14,1.14,0,0,0,.43.17v.08l-.33.06a8.56,8.56,0,0,1-1.13-.31l-.29-.06v.12h0a9.74,9.74,0,0,0,1.3.64V19a4.81,4.81,0,0,1-1.09-.25l-.29-.1v.12c.1.06.23.21.37.21v0a1,1,0,0,0-.43.06c-.19.12-.09.29-.4.29-.14-.41-.28-.35-.72-.35v-.64l-.66,0a2.17,2.17,0,0,1-.51,0s-.07,0-.07-.06h0s0,0,0,0v-.08c.37-.1,1,.08,1.34-.1a10.81,10.81,0,0,0-.72-1.36,2.59,2.59,0,0,1,0-.89.36.36,0,0,0-.08-.27c-.21-.21-.56,0-.79,0V16l-1.92,0c-.06,0-.18,0-.18,0h0c0-.06,0-.22-.08-.22l-.15-.09c-.16-.2,0-.31-.35-.33-.06,0-.08,0-.08,0h0v-.29a1.79,1.79,0,0,0-.46,0c-.41,0-.54,0-.54.42-.08,0-.43,0-.43,0h0c0,.08-.08.45-.08.35s-.11.08-.17.08V16c-.64,0-1.28,0-1.88,0v0h0c0-.57-.1-.68-.68-.64-.06,0-.14,0-.14.05-.14.3,0,.88-.1,1.21-.13.52-.52,1-.68,1.47a.13.13,0,0,1,0,.06c.38,0,.79,0,1.18,0l.08.06c0,.25-1,.15-1.13.15v.6c-.17,0-.43,0-.56.06s-.1.35-.31.37-.21-.31-.45-.39a2,2,0,0,0-.77,0l-.22.06c-.06.16-.06.35-.29.31s-.17-.33-.06-.45a8.36,8.36,0,0,1,1.3-.79s.1-.06.1-.12h0s0,0,0,0v0a3.8,3.8,0,0,0-1.43.55c-.14.07-.24.17-.39.15s0,0,0,0c.21-.06.49-.39.7-.52.39-.25.83-.37,1.2-.66l0,0s0-.06,0-.1h0l-.91.29a6.54,6.54,0,0,1-.66.28v-.08h-.08s0,0,0,0v0a14.3,14.3,0,0,1,1.4-.83c.08,0,.17-.12.27-.12v-.1a3.67,3.67,0,0,0-1.11.33l-.44.2v0h0v-.1a11.91,11.91,0,0,0,1.63-1h0c-.37.16-.76.26-1.13.41-.11,0-.23.1-.36.14v0h0c0-.06,0-.08,0-.08.19-.35,1.55-.76,1.55-1a6.73,6.73,0,0,0-1.09.29l-.41.14v0h0v0a.47.47,0,0,1,.15-.19c.25-.18,1.4-.53,1.4-.82h-.08l-1.38.47c0-.1,0-.18.08-.24a4.94,4.94,0,0,1,1.36-.62s0,0,0,0V14.3h0v0h0l-.93.23-.37.12v0h0c0-.06,0-.12,0-.12a5.67,5.67,0,0,1,2-.6,1,1,0,0,1,.5-.1l.29,0a1.63,1.63,0,0,1,.39,0l.29,0a1.22,1.22,0,0,1,.47,0C151.68,13.44,152.13,13.58,152.44,13.5Z"/><path class="a" d="M146.49,14.49a3,3,0,0,1,.07.68.49.49,0,0,1-.29-.06c-.13-.08-.11-.44,0-.54A1.68,1.68,0,0,0,146.49,14.49Z"/><path class="a" d="M163.36,14.74l.51.14c0,.06-.06.13-.14.15a1.16,1.16,0,0,1-.49-.07h0v0C163.26,14.86,163.32,14.8,163.36,14.74Z"/><path class="a" d="M165.28,14.92l.35,0c.06,0,.1.11.16.11,0,.25.05.93-.35.86s-.26-.57-.29-.82c0,0,0,0,0,0A.65.65,0,0,1,165.28,14.92Z"/><path class="a" d="M154.28,15.13c.08,0,.47,0,.47,0h0c0,.12,0,.23,0,.35h0v0a.7.7,0,0,1,.29,0c.12.07.06.25.15.33l.24.09s0,0,0,.06c.11.29,0,.37.4.39,0,0,.08,0,.08,0a.18.18,0,0,1-.06.17,1.86,1.86,0,0,1-.48.06,1.29,1.29,0,0,1-.25.06l-.2-.06-.35,0-.6,0-.29.1-.41-.08c-.07,0-.33,0-.33,0h0v-.17h0v0c.39,0,.37,0,.37-.39a2.49,2.49,0,0,1,.33-.16c.16-.07-.08-.38.35-.4.06,0,.12,0,.12,0C154.23,15.46,154.23,15.29,154.28,15.13Z"/><path class="a" d="M167.16,15.13a.44.44,0,0,1,.35.12.68.68,0,0,1-.21.87c-.31.1-.25-.41-.27-.58l-.06-.29Z"/><path class="a" d="M164.87,15.25c0,.13.06.29.08.42a4.37,4.37,0,0,1-1,.14c-.13,0-.15-.31,0-.31l.22,0a1.62,1.62,0,0,1,.71-.17Z"/><path class="a" d="M150.75,15.42c.29.12.16.74.18,1,0,0,0,.08,0,.08v0h-.12s0,0,0,0A3,3,0,0,1,150.75,15.42Z"/><path class="a" d="M158.26,15.54h.21a7.85,7.85,0,0,0,0,1s0,0,0,0v0h-.15C158.28,16.22,158.28,15.87,158.26,15.54Z"/><path class="a" d="M164.91,15.93c.08,0,.22.07.22.17h-.08a3.2,3.2,0,0,1-1.17.21.79.79,0,0,0,0-.13l1-.22A0,0,0,0,0,164.91,15.93Z"/><path class="a" d="M146.29,16l.18,0c0,.22,0,.51-.2.57-.06,0-.09,0-.09,0h0c0-.08,0-.51,0-.51A.19.19,0,0,0,146.29,16Z"/><path class="a" d="M165.63,16.06l1.34.39c.08,0,.17.12.25.12s-.1.13-.19.13a5.77,5.77,0,0,1-1.46-.46.12.12,0,0,1-.06-.12C165.57,16.12,165.59,16.08,165.63,16.06Z"/><path class="a" d="M165.38,16.24h0c0,.44,0,.91,0,1.35a.9.9,0,0,0,.05.49c.12.17.47.19.66.25s1,.29,1.09.45.08.15,0,.15v0h0l-.72-.25a3.33,3.33,0,0,0-1-.31.4.4,0,0,0,.14.29c.23.21,1.78.6,1.78.87a2.13,2.13,0,0,1-.62-.19c-.35-.14-.69-.25-1-.39-.14-.06-.3-.21-.45-.21,0,0,0,0,0,0v0h0v.07a2.57,2.57,0,0,1,.64.51l.51.27a6.39,6.39,0,0,0,1,.47s.25,0,.25.15l-1-.25v.08a3.87,3.87,0,0,1,.43.27,5.24,5.24,0,0,1,1.35,1,5.83,5.83,0,0,1,.39.62,3.14,3.14,0,0,0,.53.5s0,.08.11.08v0a2.46,2.46,0,0,1-1.18-.84,3.65,3.65,0,0,0-.51-.54,11.7,11.7,0,0,1-1.12-.81c-.25-.26-.43-.57-.68-.8a5.76,5.76,0,0,0-.7-.52c-.08,0-.17-.16-.27-.16s0,.08,0,.08c.13.33.56.56.81.83l.51.62c.31.32.66.51,1,.8a18.82,18.82,0,0,1,1.24,1.44l.17.17c.16.1.86.35.86.58,0,0,0,0,0,0v.08h0a6.72,6.72,0,0,1-1.3-.68c-.43-.45-.83-.91-1.26-1.36a4.08,4.08,0,0,1-.25-.33c-.26-.25-.59-.39-.84-.64s-.4-.64-.68-.89-.46-.29-.69-.45-.26-.21-.39-.21,0,.08,0,.08c.27.41.68.6,1,1l.58.87c.23.29.58.47.83.78.45.54.82,1.14,1.28,1.68l.47.41s.11.08.11.14h0v0l-.35-.1a3,3,0,0,1-.46-.39l-.64-.58c-.2-.23-.37-.47-.56-.7l-.84-.81c-.31-.39-.81-1.46-1.38-1.46v0c.55.68,1,1.42,1.5,2.11l1,1.05s.05.12.11.12v0a4.3,4.3,0,0,1-.52-.27c-.14-.06-.25-.14-.39-.2a3.92,3.92,0,0,1-.39-.52l-1-1.4c-.18-.21-.49-.35-.59-.58,0,0,0,0,0,0a6.35,6.35,0,0,1,0-1.63c0-.56,0-1.14,0-1.71,0-.13.06-.27.06-.38h.16v.35c.25,0,.27-.14.29-.39,0-.06,0,0,0,0v0l.29,0c0,.08,0,.35,0,.35v0h0c.23-.16.25-.14.25-.47C165.16,16.29,165.28,16.28,165.38,16.24Z"/><path class="a" d="M165.49,16.61a6.11,6.11,0,0,1,1.4.36l.33.1v.18c-.1,0-.66-.16-.66,0s.45.31.53.35.17.15.07.15v0a6.24,6.24,0,0,1-1.63-.54v-.06c.06-.14.74.27.7,0a.15.15,0,0,1,0-.08C166,16.84,165.59,16.93,165.49,16.61Z"/><path class="a" d="M157.21,16.82a2.13,2.13,0,0,1,.39,0l.19.06c0,.25,0,.52,0,.77l-.05.29a2.42,2.42,0,0,0-.39,0l-.29.06v0h0c0-.13,0-1.14.08-1.14l.13,0Z"/><path class="a" d="M151.51,16.86c.1,0,.54,0,.54.07h0v1.19s0,0,0,0v0a3.86,3.86,0,0,0-.68,0,5.78,5.78,0,0,1,0-1.25A.4.4,0,0,1,151.51,16.86Z"/><path class="a" d="M155.54,17h.72c0,.33.12.39.47.39,0,.23,0,.47,0,.72H152.4v-.64a.8.8,0,0,0,.33-.08s0-.12.06-.17.35-.2.54-.18.16,0,.16.06h0c0,.1,0,.21,0,.31s.62,0,.62,0h0c0-.11,0-.21,0-.31s.79-.08.79,0h0c0,.12,0,.21,0,.31C155.52,17.36,155.41,17.42,155.54,17Z"/><path class="a" d="M165.49,17.56a6.47,6.47,0,0,1,1.69.58.37.37,0,0,1,.06.21h-.08l-.75-.23c-.18-.08-.37-.14-.57-.22a.53.53,0,0,1-.27-.13A.58.58,0,0,1,165.49,17.56Z"/><path class="a" d="M152.31,18.35c.11,0,.05.18.13.18v0a5.31,5.31,0,0,0,.8,0c.11,0,.21-.15.33-.15,0,.21-.06,1.32.11,1.32s.14-1,.14-1.15a1.16,1.16,0,0,1,.42-.07,1,1,0,0,1,.43,0c.49,0,.35.35.37.73,0,.16.08.3.08.43s.11,0,.15-.08a5.22,5.22,0,0,0,.1-1.16s0,0,0,0h0a.48.48,0,0,0,.17.18c.2.07,1.15.11,1.15-.18h.11c.1.08.18.18.27.25.14.22,0,.64,0,.88h.08l.29,0v0l.14,0c-.06-.29.09-.33.37-.33l.29,0c0,.08,0,.39,0,.39v0c.15,0,.5,0,.58-.1s0-.21.1-.25a1.4,1.4,0,0,1,.58,0c.06,0,.17,0,.17,0h0c0,.05-.06.29,0,.29v0c.14,0,.68,0,.68-.08a.57.57,0,0,1,.08-.25,1,1,0,0,1,.77,0c.12.09,0,.27.2.31a2.77,2.77,0,0,0,.71,0,1,1,0,0,1,0-.58c.14-.24.93-.24,1,.05a3.37,3.37,0,0,1,0,1.42c-.09.19-.31.31-.35.54s0,.68,0,1,0,1,0,1.46c0,.09,0,.54-.08.54a7.21,7.21,0,0,1-1.48,0c-1.18,0-2.38,0-3.55,0-.13,0-.42,0-.42-.14h.08a5.73,5.73,0,0,1,1.26,0h3.64a.36.36,0,0,1,.18-.07v-.08c-.41-.06-.82,0-1.22,0-1.28-.06-2.64,0-3.94,0-.14,0-.47,0-.47-.13H157l.33,0a3.89,3.89,0,0,1,1.18,0,2.13,2.13,0,0,1,.8,0h1.92a4.78,4.78,0,0,0,.93,0c.06,0,.08,0,.08-.08l-1.92-.08c-.82,0-1.67,0-2.47,0a3.44,3.44,0,0,1-1.37-.09,1.72,1.72,0,0,1-.57-.43,2.44,2.44,0,0,1-.05-.62c0-.19,0-.41,0-.6-.08-.74-.53-1.38-1.36-1.28s-1,.87-1,1.59a2.5,2.5,0,0,1,0,.87c-.11.12-.23.22-.33.31s-.15.16-.27.18l-1.22,0-2,0c-.46,0-.93,0-1.41.07s-.9,0-1.34,0c-.06,0,0,0,0,0h0v0h0a4.67,4.67,0,0,0,1.47.08,3.63,3.63,0,0,1,1.05,0h1.92a4.59,4.59,0,0,1,1.05,0,.21.21,0,0,1,.15.19c-1.24,0-2.58,0-3.84,0-.46,0-.91,0-1.34,0a1.27,1.27,0,0,0-.48,0l-.06,0h0v0a6.7,6.7,0,0,0,1.63.07h3.94v.12c-.28,0-.49.1-.76.1-1.18,0-2.35,0-3.55,0h-.91a3.88,3.88,0,0,1-.6,0l-.1-.06a25.83,25.83,0,0,1,0-2.83c0-.33-.29-.43-.41-.68a3.8,3.8,0,0,1,0-1.21.49.49,0,0,0,0-.19c.18-.29.68-.1.93-.1,0,.12,0,.24,0,.35l.06.29s0,0,0,0,.76,0,.76-.11a1.5,1.5,0,0,0,0-.3h.07v0h.76v0c-.06.12,0,.3,0,.39a1.72,1.72,0,0,0,.72-.06.46.46,0,0,0,.13-.31c.1-.13.51-.09.66-.09,0,.07,0,.39,0,.39v0h.23l.26-.07c.05-.06,0-.29.09-.29v0h.68c0,.07,0,.35,0,.35v0c.1,0,.31,0,.37-.05s0-.53.08-.68S152.19,18.45,152.31,18.35Z"/><path class="a" d="M158.59,18.41h0a.83.83,0,0,1,.08.46c-.06,0-.22,0-.22,0h0v0a2,2,0,0,1,.08-.35Z"/><path class="a" d="M151.3,18.49h.25c0,.07,0,.38-.08.38s-.21.06-.21,0h0A3.25,3.25,0,0,1,151.3,18.49Z"/><path class="a" d="M150.38,18.53h.26c0,.19,0,.38-.26.38Z"/><path class="a" d="M157.58,18.53h.29a.86.86,0,0,0,0,.23c0,.06-.08.09-.08.15C157.58,18.84,157.58,18.72,157.58,18.53Z"/><path class="a" d="M154.21,20.62s.21,0,.21,0h0v0h-.08A.19.19,0,0,1,154.21,20.62Z"/><path class="a" d="M154.57,20.62c.08,0,.33,0,.33.12h0v0c-.1,0-.2,0-.3,0v0h0A.45.45,0,0,0,154.57,20.62Z"/><path class="a" d="M163.73,20.87a3.5,3.5,0,0,1,1.16,1l.2.37a3.2,3.2,0,0,0,1.2,1.42s0,0,0,.05h0v0a1.44,1.44,0,0,1-.6-.15,5,5,0,0,1-.82-.84,1.9,1.9,0,0,1-.41-.44s0-.06,0-.06v0a1.37,1.37,0,0,0,.43.17,1.72,1.72,0,0,0-.27-.52,1.5,1.5,0,0,0-.45-.27A1.32,1.32,0,0,1,163.73,20.87Z"/><path class="a" d="M154.11,20.91c.1,0,.33,0,.33.14h0v0c-.08,0-.33,0-.33,0h0v0c.06,0,0,0,0,0S154.09,20.93,154.11,20.91Z"/><path class="a" d="M154.69,20.91l.25,0V21c-.06,0-.38.13-.38,0h0v0a.25.25,0,0,1,.17-.08Z"/><path class="a" d="M153.78,21c.06,0,.17,0,.17.12h0v0c-.06,0-.14,0-.14,0a.1.1,0,0,1,0-.08Z"/><path class="a" d="M155,21c.06,0,.17,0,.17,0h0v.11h0v0c-.05,0-.21-.06-.21-.13Z"/><path class="a" d="M154.21,21.22c.13.06.17.16.17.33l-.29,0c0-.08,0-.13,0-.21h0A.18.18,0,0,0,154.21,21.22Z"/><path class="a" d="M153.74,21.26c.06,0,.18,0,.18,0h0v.17h-.33v0h0A.53.53,0,0,0,153.74,21.26Z"/><path class="a" d="M154.65,21.26c.12,0,.25.1.25.25h-.36v-.17A.59.59,0,0,0,154.65,21.26Z"/><path class="a" d="M144.7,21.3c0,.23-.23.43-.33.6a3.65,3.65,0,0,1-.35.68c-.17.19-.4.31-.56.5a8.06,8.06,0,0,0-.47.72l-.4.58s0,.08-.08.08a.1.1,0,0,1-.08,0v-.08c.2-.44.39-.89.58-1.36a5.36,5.36,0,0,1,.7-.73c.22-.26.43-.53.66-.78A1.31,1.31,0,0,0,144.7,21.3Z"/><path class="a" d="M155,21.3h.25v.08c-.08.07-.08.13-.21.13v0A.51.51,0,0,1,155,21.3Z"/><path class="a" d="M163.5,21.55a2.23,2.23,0,0,1,.52.62l.68.91a4.51,4.51,0,0,0,.7.88v0h0v0a1.05,1.05,0,0,1-.53-.23c-.11-.08-.21-.13-.33-.21a6.43,6.43,0,0,1-.58-.82l-.31-.38A3.81,3.81,0,0,1,163.5,21.55Z"/><path class="a" d="M153.64,21.69c.06,0,.26,0,.26,0h0c0,.05-.05.21,0,.21a.21.21,0,0,0,.16.08v0h0c0-.16,0-.23.17-.27s.08,0,.08,0h0c0,.05,0,.25,0,.25v0h.08v0c0-.06.05-.25.13-.25v0c.06,0,.12,0,.12,0s.09.29.13.29v0h0v0H155c0-.12,0-.24.17-.26s.12,0,.12,0a3.43,3.43,0,0,1,0,1.36c.08,0,.12,0,.16.06a3.69,3.69,0,0,1,.44,1c0,.1-.08.13-.08.21a9.84,9.84,0,0,0-1.33,0H153v-.13c.08-.16.18-.31.26-.47a3.67,3.67,0,0,0,.4-.79A5,5,0,0,0,153.64,21.69Z"/><path class="a" d="M169.43,22.58c.06,0,.22.1.22.17h0Z"/><path class="a" d="M144.45,22.79h.08c-.14.2-.27.39-.39.58s-.8,1.54-1.09,1.54v0h0v0h0a7.67,7.67,0,0,0,.33-.72l.22-.27c.05-.1.11-.19.17-.31A4.7,4.7,0,0,1,144.45,22.79Z"/><path class="a" d="M155.7,22.83a.55.55,0,0,1,.25.1l.91,1.43,0,0h0v0a.42.42,0,0,1-.27,0A5.15,5.15,0,0,1,155.7,22.83Z"/><path class="a" d="M153.2,22.87c.06,0,.17,0,.17,0h0a5.83,5.83,0,0,1-.89,1.49c-.1.06-.16,0-.27,0s0,0,0,0C152.6,23.86,152.91,23.37,153.2,22.87Z"/><path class="a" d="M144.9,23.34c0,.31-.26.36-.41.58s-.25.66-.6.66a1.8,1.8,0,0,1,.52-.93A3.12,3.12,0,0,1,144.9,23.34Z"/><path class="a" d="M158.16,24.15c.9,0,1.73,0,2.6,0,.06,0,.29,0,.29,0h0v0l-.58.05c-.7,0-1.45,0-2.13,0C158.26,24.29,158.16,24.29,158.16,24.15Z"/><path class="a" d="M148.83,24.23a7.35,7.35,0,0,0,1.42,0,4.85,4.85,0,0,1,1.22,0s0,0,0,0h0c0,.05,0,.13,0,.13v0a12.68,12.68,0,0,0-1.51,0h-2.49a1,1,0,0,0-.15,0s0-.08.08-.08C147.81,24.13,148.41,24.34,148.83,24.23Z"/><path class="a" d="M107.27,20.45v-7c0-2-.49-2.69-1.9-2.75v-.58h4.26v.58h-.09c-1.19,0-1.61.74-1.61,2.75V24.23h-.55L99.51,12.07v9c0,1.14.25,1.88.77,2.19a2.54,2.54,0,0,0,1.27.21V24H97v-.58h.23c1.16,0,1.63-.66,1.63-2.4V11.79c0-.93-.23-1.16-1.2-1.16H97v-.52h3.58Z"/><path class="a" d="M111.17,19.22a10.48,10.48,0,0,0,.17,2,2.45,2.45,0,0,0,2.42,2.21,3.06,3.06,0,0,0,2.86-2.58h.6a3.94,3.94,0,0,1-3.92,3.36,3.76,3.76,0,0,1-3-1.42A5.65,5.65,0,0,1,109,19.11a5,5,0,0,1,1.26-3.42,3.82,3.82,0,0,1,3-1.45,3.9,3.9,0,0,1,3.47,2.46,6.7,6.7,0,0,1,.53,2.54l-6.07,0Zm4-.58a15.53,15.53,0,0,0-.19-2.25,1.93,1.93,0,0,0-1.84-1.57,1.72,1.72,0,0,0-1.67,1.3,8,8,0,0,0-.29,2.52Z"/><path class="a" d="M123.91,16.06a1.49,1.49,0,0,0-.52-.87,1.82,1.82,0,0,0-.9-.18h-.42v-.58h5.14V15h-.76c-.5,0-.76.16-.76.45a2.72,2.72,0,0,0,.2.72l1.9,5.41,1.67-4.44a3.92,3.92,0,0,0,.29-1.26.87.87,0,0,0-.33-.74,1.77,1.77,0,0,0-.78-.12h-.25v-.58H132V15h-.22c-.73,0-1.08.35-1.53,1.56l-2.87,7.64h-.62l-2.43-7-2.13,7h-.66l-3-7.72a4.2,4.2,0,0,0-.55-1.11A1.44,1.44,0,0,0,117,15h-.32v-.58h4.83V15h-.31c-.64,0-1,.18-1,.49a1.91,1.91,0,0,0,.2.66l2.09,5.41,1.55-5.08Z"/><path class="a" d="M138.86,17.73h-.52c-.56-1.9-1.69-3-3.1-3a1.48,1.48,0,0,0-1.57,1.42c0,.77.58,1.3,1.76,1.61a7.76,7.76,0,0,1,3.12,1.34,2.52,2.52,0,0,1,.86,2,3.17,3.17,0,0,1-3.2,3.13,3.45,3.45,0,0,1-2.29-.86,1.32,1.32,0,0,0-.58-.36c-.2,0-.35.33-.51,1h-.52c0-.58.08-2.73.11-4.09H133a10.2,10.2,0,0,0,.46,1.59,3.75,3.75,0,0,0,1.26,1.57,2.71,2.71,0,0,0,1.67.62,1.78,1.78,0,0,0,1.84-1.64c0-.74-.62-1.32-1.88-1.71a14.58,14.58,0,0,1-2.89-1.15,2.42,2.42,0,0,1-1.1-2.17,2.88,2.88,0,0,1,2.87-2.81,3.84,3.84,0,0,1,2.25.68,1.15,1.15,0,0,0,.39.23c.09,0,.25-.21.5-.79h.52v3.39Z"/><path class="a" d="M110.62,10h2v.52h-1.43v.55h1.24v.5h-1.24v.56h1.43v.53h-2l0-2.66Z"/><path class="a" d="M112.93,10h.64l.7,1.86L115,10h.62l-1.07,2.68H114Z"/><path class="a" d="M116,10h2v.52h-1.41v.55h1.24v.5h-1.24v.56H118v.53h-2Z"/><path class="a" d="M118.54,10h.54l1.24,1.63V10h.58v2.66h-.5L119.12,11v1.69h-.58V10Z"/><path class="a" d="M121.56,10h.58v2.66h-.58Z"/><path class="a" d="M122.8,10h.55l1.24,1.63V10h.58v2.66h-.5L123.39,11v1.69h-.59V10Z"/><path class="a" d="M125.69,11.33h0a1.37,1.37,0,0,1,1.4-1.38,1.52,1.52,0,0,1,1,.37l-.37.45a1,1,0,0,0-.7-.27.78.78,0,0,0-.76.83h0a.79.79,0,0,0,.8.83.91.91,0,0,0,.54-.15v-.39h-.58v-.5h1.14v1.14a1.7,1.7,0,0,1-1.12.43A1.33,1.33,0,0,1,125.69,11.33Z"/><rect class="a" width="179" height="36"/><rect class="a" width="179" height="36"/><rect class="a" width="179" height="36"/><rect class="a" width="179" height="36"/><path class="b" d="M115,15.42l-.25-.32A3.4,3.4,0,0,0,112,13.74c-2.91,0-4.72,2.49-4.72,6.5s1.76,6.46,4.6,6.46A3.4,3.4,0,0,0,115,24.86l.26-.44,0,1.94h4.08V9.75L115,11.6Zm0,6.51a1.63,1.63,0,0,1-1.48,1.81c-1.48,0-1.67-1.83-1.67-3.42s.18-3.7,1.6-3.7c.71,0,1.55.3,1.55,1.74Z"/><path class="b" d="M30.73,21.69c0,1.22-.52,1.92-1.42,1.92-1.24,0-1.24-1.43-1.24-1.89V14.15H23.73v8.08c0,3.17,1.09,4.47,3.75,4.47a3.42,3.42,0,0,0,3.3-2l.27.06v1.63h4V14.15H30.73Z"/><path class="b" d="M75.47,16.56l-.29,0V14.15h-3.7v12.2h4.25V20.47c0-1.73.83-2.6,2.47-2.6a3.32,3.32,0,0,1,.54.09V13.89c-.16,0-.15-.06-.31-.06C76.82,13.83,75.85,14.72,75.47,16.56Z"/><path class="b" d="M89.88,13.81c-3.55,0-5.61,1.19-6.29,3.64l4,.41a1.86,1.86,0,0,1,2-1.48c1.13,0,1.68.5,1.68,1.51v.53h-.14c-5.22.16-7.87,1.73-7.87,4.65,0,2.28,1.55,3.65,4.15,3.65a4,4,0,0,0,3.71-2.07l.24-.44,0,.5a11.46,11.46,0,0,0,.21,1.64H95.5c0-.56,0-1.23,0-2.14V18.5C95.51,15.12,93.93,13.81,89.88,13.81Zm1.38,8.1a1.87,1.87,0,0,1-2,2.11c-1,0-1.5-.45-1.5-1.36,0-1.2,1.2-2,3.3-2.28l.16,0Z"/><path class="b" d="M163.27,13.81a6.08,6.08,0,0,0-6.39,6.44,6.4,6.4,0,1,0,12.79,0A6.08,6.08,0,0,0,163.27,13.81Zm0,10c-1.56,0-1.76-1.92-1.76-3.6s.2-3.6,1.76-3.6,1.77,2.06,1.77,3.6S164.86,23.85,163.27,23.85Z"/><path class="b" d="M157.62,16.41c-.39-1.88-1.51-2.68-3.59-2.68a3.6,3.6,0,0,0-3,1.46l-.26.33V9.75l-4.31,1.85V26.35h4.31V18.77c0-1.23.52-1.93,1.44-1.93,1.25,0,1.25,1.44,1.25,1.91v7.6h4.33v-2a7,7,0,0,1-1.19-4.09A7.19,7.19,0,0,1,157.62,16.41Z"/><path class="b" d="M141.85,13.81A5.94,5.94,0,0,0,138.07,15a6.43,6.43,0,0,0-2.34,5.09c0,3.93,2.51,6.57,6.24,6.57A5.59,5.59,0,0,0,146.16,25V21.86l-2.41-.23c-.13,1.34-.76,2.2-1.62,2.2-1.46,0-1.76-1.52-1.76-3.8s.51-3.35,1.55-3.35,1.48,1,1.65,2.13l2.59-.23V15.51A5.52,5.52,0,0,0,141.85,13.81Z"/><path class="b" d="M135.83,22.68h-5.45V19.51h5.09a6.94,6.94,0,0,1,1.09-3.23v-.15h-6.18V13.35h7.52V9.68h-12V26.35H138v-.59A6.11,6.11,0,0,1,135.83,22.68Z"/><path class="b" d="M107.13,18.17c0-3.1-1.11-4.36-3.74-4.36a3.44,3.44,0,0,0-3.32,2l-.28-.07V14.15h-4v12.2h4.31V18.81c0-1.22.52-1.92,1.44-1.92,1.24,0,1.24,1.43,1.24,1.9v7.56h4.33v-4a11.75,11.75,0,0,1-.18-2.13A11.24,11.24,0,0,1,107.13,18.17Z"/><path class="b" d="M83.36,21.22v-3.5l-.13,0,0-.16.09-.33V9.75L79,11.6V26.35h4.32V24.91a4.11,4.11,0,0,1-.4-1.83A4.16,4.16,0,0,1,83.36,21.22Z"/><path class="b" d="M65,13.83a6.18,6.18,0,0,0-4.46,1.66,6.5,6.5,0,0,0-2,4.17v0q0,.33,0,.66a6.29,6.29,0,0,0,6.67,6.43,6.1,6.1,0,0,0,6-3.56v-.66l-4-.25a1.83,1.83,0,0,1-1.93,1.52c-1.32,0-2.08-.88-2.08-2.41v-.29h8V18A6.23,6.23,0,0,0,65,13.83Zm2,5h-3.7v-.34a1.84,1.84,0,0,1,1.84-2.1c1.19,0,1.86.81,1.86,2.22Z"/><path class="b" d="M58.56,18.15V9.75L54.22,11.6v3.82L54,15.1a3.37,3.37,0,0,0-2.78-1.36c-2.91,0-4.72,2.49-4.72,6.5s1.77,6.46,4.6,6.46a3.4,3.4,0,0,0,3.12-1.84l.27-.44,0,1.94h4.09v-4a6.94,6.94,0,0,1,0-4.23Zm-4.34,3.78a1.64,1.64,0,0,1-1.49,1.81c-1.48,0-1.67-1.83-1.67-3.42s.18-3.7,1.6-3.7c.71,0,1.56.3,1.56,1.74Z"/><path class="b" d="M46.63,17.11c-.26-2.33-1.38-3.3-3.69-3.3a3.44,3.44,0,0,0-3.32,2l-.28-.07V14.15h-4v12.2h4.31V18.81c0-1.22.52-1.92,1.44-1.92,1.24,0,1.24,1.43,1.24,1.9v7.56h4.34V23.61a10.07,10.07,0,0,1-.52-3.37A10,10,0,0,1,46.63,17.11Z"/><path class="b" d="M23.44,19.43a4,4,0,0,0-1.28-1.89A8.81,8.81,0,0,0,18.45,16l-.58-.15L17,15.62c-1.39-.32-2.22-.52-2.22-1.47,0-.78.78-1.37,1.82-1.37a2.61,2.61,0,0,1,2.72,1.68l3.88-1.17a6.22,6.22,0,0,0-6.27-4c-4.11,0-6.87,2.2-6.87,5.48,0,2.57,1.51,4,5.37,5,.44.12.84.21,1.19.29,1.4.33,2.24.52,2.24,1.63,0,.79-.8,1.32-2,1.32-1.77,0-2.83-.69-3.24-2.1l-4.3.85c.82,3.18,3.46,4.93,7.44,4.93a7.49,7.49,0,0,0,5.36-2,5.06,5.06,0,0,0,1.32-2.11c0-.13,0-.25,0-.37Z"/></svg>