<?xml version="1.0" encoding="utf-8"?>
<!-- Generator: Adobe Illustrator 22.1.0, SVG Export Plug-In . SVG Version: 6.00 Build 0)  -->
<svg version="1.1" id="Layer_1" xmlns="http://www.w3.org/2000/svg" xmlns:xlink="http://www.w3.org/1999/xlink" x="0px" y="0px"
	 viewBox="0 0 179 36" style="enable-background:new 0 0 179 36;" xml:space="preserve">
<style type="text/css">
	.st0{fill:#1A428D;}
	.st1{fill:#C31630;}
</style>
<g>
	<polyline class="st0" points="22.9,11.8 22.9,29.6 15.5,29.6 15.5,11.8 10.6,11.8 10.6,6.7 27.8,6.7 27.8,11.8 22.9,11.8 	"/>
	<path class="st0" d="M28.8,29.6V6.7h6.1v7.7H35c1.3-1.7,2.6-2.2,4.1-2.2c3.2,0,5.2,1.6,5.2,5.1v12.3H38V19c0-1.6-0.5-2-1.6-2
		c-0.9,0-1.3,0.3-1.3,1.8v10.8H28.8"/>
	<polyline class="st0" points="98.3,6.7 106.7,18 106.8,18 106.8,6.7 113.8,6.7 113.8,29.6 107.3,29.6 98.9,17.8 98.8,17.8 
		98.8,29.6 91.9,29.6 91.9,6.7 98.3,6.7 	"/>
	<polyline class="st0" points="140.7,12.5 144.3,12.5 146.6,20.5 146.7,20.5 148.9,12.5 154.9,12.5 150.1,29.6 145,29.6 142.6,22.2 
		142.5,22.2 140,29.6 134.9,29.6 130.1,12.5 136.1,12.5 138.3,20.5 138.4,20.5 140.7,12.5 	"/>
	<path class="st0" d="M161.3,16.3L161.3,16.3c1.2-0.1,2,0.4,2,1.3l5,0c0-0.1,0-0.4,0-0.4c-0.2-2.9-3.6-5-7.5-4.8
		c-2.1,0.1-4,0.9-5.2,2.1l0,0c-1.1,1-1.7,2.3-1.6,3.9c0.3,4.8,8.1,3.9,8.3,5.9c0.1,0.9-0.6,1.3-1.6,1.4c-1-0.1-1.9-0.5-1.9-1.3l-5,0
		c0,0.1,0,0.4,0,0.5c0.2,3,3.7,5.2,7.9,5c2.2-0.1,4.2-1,5.5-2.1l-0.1,0c0.8-0.9,1.3-2.1,1.1-3.8c-0.4-5.9-8-4.3-8.1-6.4
		C160,16.7,160.6,16.4,161.3,16.3"/>
	<path class="st0" d="M130.9,22.3v-1.6c0-4.3-1.6-8.6-8.2-8.5c-5.7,0-8.1,4.1-8.1,8.8c0,4.7,2.4,8.8,8.1,8.8c4.8,0,7.9-2.2,7.9-5.8
		H125c0,1.4-0.7,2.1-2,2.1c-0.1,0-0.3,0-0.4,0c-1.4-0.3-1.6-2.3-1.7-3.3v-0.5H130.9 M120.9,18.5c0-1.6,0.9-2.3,2.1-2.3
		c1.2,0,2,0.7,2,2.3v0.7h-4.1V18.5z"/>
	<path class="st0" d="M61.7,22.3v-1.6c0-4.3-1.6-8.6-8.2-8.5c-5.7,0-8.1,4.1-8.1,8.8c0,4.7,2.4,8.8,8.1,8.8c4.8,0,7.9-2.2,7.9-5.8
		h-5.6c0,1.4-0.7,2.1-2,2.1c-0.1,0-0.3,0-0.4,0c-1.4-0.3-1.6-2.3-1.7-3.3v-0.5H61.7 M51.7,18.5c0-1.6,0.9-2.3,2.1-2.3
		c1.2,0,2,0.7,2,2.3v0.7h-4.1V18.5z"/>
	<path class="st1" d="M79.8,10.3V9.3c0-0.1,0.9,0.2,1.5,0.3v0.9C80.7,10.5,79.8,10.1,79.8,10.3"/>
	<path class="st1" d="M76.2,26.6l-2.6,0.3c0.2,0.1,0.4,0.2,0.6,0.3l0-0.1l0.3,0l0,0.2c0.1,0,0.2,0.1,0.3,0.1l0-0.3l0.3,0l0,0.4
		c0.1,0,0.2,0,0.3,0l0-0.4l0.3,0l0,0.4C76,27.3,76.2,26.9,76.2,26.6"/>
	<path class="st1" d="M73.8,27.5l-0.1,0.2c0.1,0,0.2,0.1,0.3,0.1l0.1-0.1C74,27.6,73.9,27.5,73.8,27.5"/>
	<path class="st1" d="M72.7,26.6c-0.2-0.2-0.5-0.1-0.2,0.2c0.1,0.1,0.2,0.2,0.4,0.3l0.2-0.2C73,26.9,72.8,26.8,72.7,26.6"/>
	<path class="st1" d="M74.9,27.9c-0.2-0.1-0.4-0.1-0.6-0.2l0,0.1C74.4,27.9,74.7,27.9,74.9,27.9"/>
	<path class="st1" d="M73.3,27.1l-0.2,0.2c0.1,0.1,0.3,0.2,0.5,0.2l0.1-0.2C73.5,27.3,73.4,27.2,73.3,27.1"/>
	<path class="st1" d="M85.4,29.8c0.3-0.2,0.5-0.4,0.7-0.6c0-0.1,0-1.6,0-1.6l-1.2,0V27c0.2,0,0.3,0.1,0.5,0.1l0.5,0.2
		c0.1,0,0.2,0,0.2-0.1c0.1-0.1,0.1-0.2,0-0.3L86,26.6c-0.3-0.7-0.6-2,0.6-3l0.6-0.5c0.1-0.1,0.1-0.2,0.1-0.3c0-0.1-0.1-0.2-0.2-0.1
		l-0.7,0.1l0,0l-0.2-0.3c-0.3-0.6-0.6-1.9,0.6-3.2l0.6-0.7c0.1-0.1,0.1-0.2,0-0.3C87.3,18,87.2,18,87.1,18l-1,0.4
		c-0.5,0.2-0.9,0.4-1.3,0.5v-0.4h-0.1v-1h-0.1v1h-0.1V19c-0.2,0.1-0.4,0.2-0.5,0.3c-0.2-1.2,0-2.7,1-3.6l0.6-0.5
		c0.1-0.1,0.1-0.2,0.1-0.3c0-0.1-0.1-0.2-0.2-0.1l-0.8,0.1c-0.3,0-0.6,0.1-0.9,0.2c0,0,0-0.1,0-0.1l-0.1-0.3c-0.2-0.5-0.3-1-0.3-1.4
		c0-0.9,0.4-1.7,1.2-2.4l0.7-0.6c0.1-0.1,0.1-0.2,0.1-0.3c0-0.1-0.2-0.1-0.3-0.1l-0.9,0.2c-0.9,0.2-1.8,0.5-2.5,1v-0.2h-0.1V9.4
		h-0.1v1.5h0v0.3c-0.5,0.4-1,0.8-1.3,1.2c-1.1,1.3-1.3,4-1.3,4.5l0,0c0,0.1,0,0.2,0.2,0.3l0,0c0,0,0.1,0.1,0.1,0.1
		c0.1,0,0.2,0,0.3-0.1c0,0,0.3-0.4,0.8-0.8c0.3-0.3,0.8-0.5,1.2-0.7V16c-1,0.5-1.8,1-2.2,1.6l0,0l0,0C79.1,17.7,79,17.9,79,18
		c-0.8-2.4-0.5-5.3,0.9-6.7c0.1-0.1,0.1-0.2,0-0.3c-0.1-0.1-0.2-0.1-0.3-0.1c-0.4,0.2-0.8,0.4-1.3,0.6l0,0l-0.1-0.3
		c-0.1-0.4-0.2-0.7-0.2-1c0-1.3,1.1-2.7,1.2-2.7c0.1-0.1,0.1-0.2,0-0.3c-0.1-0.1-0.2-0.1-0.3-0.1c-0.8,0.2-1.5,0.5-2.1,0.9V7.4h-0.1
		v-2h-0.2v2h-0.1v1c-0.5,0.4-0.9,0.8-1.3,1.3l0,0c-0.8,1.2-1.1,3.1-0.7,4.2c0,0.1,0.1,0.2,0.2,0.2c0.1-0.1,0.2-0.1,0.2-0.2
		c0.1-0.3,0.3-0.6,0.7-0.9c0.3-0.2,0.6-0.5,0.9-0.6v0.4c-0.6,0.4-1.1,0.8-1.6,1.2l0,0.1c0,0.1-0.1,0.2-0.2,0.2l0,0
		c-0.4,0.4-0.7,0.7-1,1.1c-1.6,2.3-1.1,6.7-1.1,6.9c0,0.1,0.1,0.2,0.2,0.2c0.1,0,0.2-0.1,0.2-0.2c0.3-1.2,1.8-2.1,3.4-2.5v0.4
		c-1.2,0.4-2.2,0.9-3,1.6l0,0c-0.6,0.8-1.1,2.6-0.9,4.1c-0.6-0.6-1.3-1.5-2.2-2.4l2.2,0l0-0.2l-2.3,0c-1-1.1-2-2.2-3-3.3l2.4-0.1
		l0-0.2L67,19.6c-1.4-1.5-2.4-2.7-2.4-2.7c-0.1-0.1-0.4,0-0.2,0.1l2.4,2.6l-2.1,0.1l0,0.2l2.3-0.1l2.2,2.4c-0.1,0.1-0.2,0.2-0.2,0.3
		l0.4,0.5l-1.6,0l0,0.2l1.8,0l2,2.4c-0.5,0.3-0.5,1.6,0.9,2.2c0.2,0.4,0.5,0.7,0.8,1.1c0,0.4,0,0.7,0.2,1.3c-1.4,0-1.5,0.3-0.2,0.3
		c4.5,0.3,9.5,0.2,13.2-0.2C89.3,30,88.2,29.8,85.4,29.8 M86.2,23.2L86.2,23.2c-0.7,0.6-0.9,1.4-0.9,2.1c0,0.6,0.2,1.1,0.3,1.4
		l-0.1,0c-0.6-0.2-1.2-0.3-1.8-0.3l-0.1-0.3c-0.2-0.6-0.5-1.4-0.3-2.3C83.9,23.6,84.9,23.4,86.2,23.2 M83.8,27.5L83.8,27.5
		c-0.4,0.1-0.8,0.1-1.2,0.1l-0.1-0.1c-0.3,0-0.6,0-0.8-0.1v-0.3c0.1,0.1,0.2,0.1,0.3,0.1l0.3-0.1c0.4-0.1,0.7-0.2,1.1-0.2l0.1,0
		c0.1,0,0.2,0,0.2-0.1c0.3,0,0.6,0,0.9,0.1v0.5L83.8,27.5z M84.6,27.9l0,0.3l-0.2,0l0-0.3L84.6,27.9z M83.9,27.8l0,0.3l-0.3,0l0-0.3
		L83.9,27.8z M83,27.8l0,0.3l-0.3,0l0-0.3L83,27.8z M82.1,27.8l0,0.3l-0.3,0l0-0.3L82.1,27.8z M82,26.6c0.1,0,0.2,0,0.3,0.1
		c-0.1,0-0.1,0-0.2,0c0,0,0,0,0,0l0,0C82,26.6,82,26.6,82,26.6 M86.3,18.8L86.3,18.8L86.3,18.8c-0.7,0.8-0.9,1.7-0.9,2.3
		c0,0.6,0.2,1,0.3,1.4l0,0c-0.7,0-1.3,0-2,0.2c0.2-0.3,0.4-0.5,0.7-0.7l0.7-0.7c0.1-0.1,0.1-0.2,0-0.3c0-0.1-0.1-0.1-0.2-0.1l-0.3,0
		c0-0.1,0-0.1,0-0.2l-0.1-0.3c-0.1-0.2-0.1-0.4-0.2-0.6C84.7,19.5,85.4,19.2,86.3,18.8 M84.2,21.5c-0.1,0.1-0.2,0.2-0.2,0.2
		c-0.5,0.4-0.8,0.9-1,1.3c-0.1,0.2-0.1,0.4-0.2,0.6l0,0c0,0.2-0.1,0.4-0.1,0.6c0,0.1,0,0.2,0,0.3c0,0.7,0.2,1.4,0.4,1.9l-0.1,0
		c-0.4-0.1-0.8-0.2-1.1-0.3c-0.2,0-0.3,0-0.5-0.1c-0.9-0.1-1.8,0-2.7,0.2c0,0,0-0.1,0-0.1v-0.7c0,0,0-0.1,0-0.1
		c-0.1-0.4-0.2-0.7-0.3-1.1c0.1-0.4,0.4-0.8,0.8-1.1c0.5-0.4,1.2-0.8,2.4-1.1c0.2-0.1,0.3-0.1,0.5-0.1c0.5-0.1,1.1-0.2,1.8-0.3
		C84,21.5,84.1,21.5,84.2,21.5 M80.4,27.2l-0.1,0.1c-0.5-0.1-1.1-0.1-1.6-0.2L78.6,27c-0.5-0.1-1.3-0.2-1.8-0.3v-0.5
		c0.4,0,0.8,0.1,1.2,0.1c0,0.1,0.1,0.2,0.1,0.2l0.1,0.2c0,0.1,0.2,0.2,0.3,0.1l0.3-0.1c0.9-0.3,1.8-0.3,2.7-0.2v0.9
		C81.1,27.3,80.7,27.3,80.4,27.2 M81.1,27.7l0,0.4l-0.3,0l0-0.4L81.1,27.7z M80,27.5l0,0.5l-0.4,0l0-0.4L80,27.5z M79,27.4l0,0.5
		l-0.4,0l0-0.5L79,27.4z M77.6,27.3l0,0.6l-0.4,0l0-0.6L77.6,27.3z M78.4,23.4c0-0.4,0-0.7,0.1-1.1c0,0.2,0.1,0.4,0.2,0.5l0,0
		c0,0,0,0.1,0.1,0.1C78.6,23.1,78.4,23.2,78.4,23.4 M79.3,22.5c0.2-0.8,1.1-1.2,2.1-1.3v0.4C80.5,21.8,79.8,22.1,79.3,22.5
		 M81.7,21.4v-0.4c0.1,0,0.2,0,0.3,0C81.9,21.2,81.8,21.3,81.7,21.4C81.8,21.4,81.7,21.4,81.7,21.4 M82.4,21.3
		c0-0.1,0.1-0.2,0.2-0.2c0.4,0,0.7,0,1,0C83.1,21.1,82.8,21.2,82.4,21.3 M79.9,16.1c-0.2,0.2-0.4,0.4-0.6,0.5
		c0.1-0.9,0.3-2.8,1.1-3.8c0.8-1.1,2.2-1.9,3.8-2.2l0,0c-0.9,0.8-1.4,1.7-1.4,2.7c0,0.5,0.1,1,0.3,1.5h0
		C82.4,14.8,80.8,15.4,79.9,16.1 M83,15.3c-0.4,0.1-0.9,0.3-1.3,0.5v-0.2C82.2,15.5,82.6,15.4,83,15.3 M79,19.1L79,19.1
		c0.1,0,0.2,0,0.2-0.1c0-0.1,0-0.2,0-0.2c0-0.1,0-0.1-0.1-0.2c0.1-0.3,0.2-0.5,0.4-0.8c0.8-1,3.4-2.2,5.2-2.4l0,0
		c-0.9,0.8-1.2,2-1.2,3.1c0,0.4,0,0.7,0.1,1c0,0.2,0.1,0.3,0.1,0.5c0,0.2,0.1,0.4,0.2,0.6l0,0c-0.2,0-0.5,0-0.8,0
		c-0.2,0-0.4,0-0.7,0c-1.3,0.1-3,0.4-3.4,1.7c-0.1-0.3-0.1-0.6-0.1-0.9c0.3-0.6,0.7-1.2,1.2-1.7c0.1-0.1,0.1-0.2,0-0.3
		c0-0.1-0.1-0.1-0.2-0.1c-0.3,0-0.5,0.1-0.8,0.1C79,19.2,79,19.2,79,19.1 M75.2,12.5c-0.2,0.2-0.4,0.4-0.5,0.6c0-0.1,0-0.2,0-0.3
		c0-0.9,0.3-2,0.8-2.8c0.7-1,1.7-1.7,2.9-2.1c-0.4,0.6-0.8,1.5-0.8,2.4l0,0.1c0,0.3,0.1,0.7,0.2,1.1h0C77,11.4,76,11.8,75.2,12.5
		 M77.8,11.8c-0.3,0.2-0.6,0.4-0.9,0.6v-0.3C77.2,11.9,77.5,11.8,77.8,11.8L77.8,11.8z M72.9,21c0-0.2,0-0.3,0-0.5
		c0-1.5,0.2-3.8,1.1-5.1c0.9-1.3,3.1-2.7,4.9-3.6c-0.6,1-0.9,2.2-0.9,3.6c0,1.1,0.2,2.2,0.7,3.3l0,0l0,0C76.9,18.8,74,19.5,72.9,21
		 M78.5,19.1c0,0.1,0,0.1-0.1,0.2c-0.6,0.1-1.1,0.2-1.6,0.4v-0.3C77.4,19.3,78,19.2,78.5,19.1 M73.7,21.8c1.2-0.9,2.8-1.6,4.6-2
		c0.2,0,0.3-0.1,0.5-0.1c0.1,0,0.2,0,0.4-0.1c-0.2,0.2-0.3,0.4-0.4,0.6c-0.2,0.3-0.4,0.6-0.5,0.9c-0.3,0.6-0.4,1.3-0.4,2
		c0,0.3,0,0.6,0.1,0.9c0.1,0.4,0.2,0.8,0.3,1.3v0.4c-0.1,0-0.3,0-0.4-0.1c-1.8-0.2-3.1-0.1-4.8,0.2c-0.1-0.3-0.2-0.7-0.2-1.1
		C72.9,23.7,73.3,22.4,73.7,21.8 M76.4,26.1v0.7c-0.1,1.2-1.8,1-3.2-0.4C74.4,26.2,75.3,26.1,76.4,26.1 M84.8,29.5
		c-0.1,0-0.2,0-0.3,0l0,0.2l-0.2,0l0-0.2c-0.2,0-0.3,0-0.5,0l0,0.2l-0.3,0l0-0.2c-0.2,0-0.3,0-0.5,0l0,0.3l-0.3,0l0-0.2
		c-0.2,0-0.5,0-0.7,0l0,0.2l-0.3,0l0-0.2c-0.2,0-0.5,0-0.7,0l0,0.3l-0.3,0l0-0.3c-0.2,0-0.5,0-0.7,0l0,0.3l-0.4,0l0-0.3
		c-0.2,0-0.5,0-0.7,0l0,0.3l-0.4,0l0-0.3c-0.3,0-0.6,0-1,0l0,0.3l-0.4,0l0-0.3c-0.4,0-0.8,0-1.2-0.1v0.3h-0.4v-0.4
		c-0.4,0-0.8-0.1-1.2-0.1c-0.1-0.1-0.3-0.3-0.5-0.4c3.1,0.4,7.6,0.6,11,0.4C84.9,29.3,84.9,29.4,84.8,29.5 M84.6,28.7l0,0.2l-0.2,0
		l0-0.2c-0.2,0-0.3,0-0.5,0l0,0.2l-0.3,0l0-0.2c-0.2,0-0.3,0-0.5,0l0,0.2l-0.3,0l0-0.2c-0.2,0-0.5,0-0.7,0l0,0.2l-0.3,0l0-0.2
		c-0.2,0-0.5,0-0.7,0l0,0.2l-0.3,0l0-0.2c-0.2,0-0.5,0-0.7,0l0,0.3l-0.4,0l0-0.3c-0.2,0-0.5,0-0.7,0l0,0.3l-0.4,0l0-0.3
		c-0.3,0-0.6,0-0.9-0.1l0,0.4l-0.4,0l0-0.4c-0.4,0-0.8-0.1-1.2-0.1v0.4h-0.4v-0.4c-0.1,0-0.2,0-0.2,0c0.2,0,0.4-0.1,0.6-0.2
		c-0.2,0-0.2,0-0.3,0c-1.7,0.2-3.4-0.7-3.5-1.3c-0.2-0.7,0.2-0.8,0.3-0.6c0.7,0.8,1.8,1.5,3.3,1.8l0,0c2.8,0.3,6.4,0.5,9.2,0.4
		c0,0.1,0,0.2,0,0.3C84.8,28.7,84.7,28.7,84.6,28.7"/>
	<polyline class="st1" points="78.7,18.7 78.7,18.6 78.7,18.7 78.7,18.7 	"/>
	<path class="st1" d="M74.8,13.9L74.8,13.9c-0.1,0-0.1,0.1-0.2,0.2l0,0C74.7,14,74.8,14,74.8,13.9"/>
	<path class="st1" d="M76.3,6.9V5.8c-0.7-0.1-1.8-0.5-1.8-0.3v1.1C74.5,6.4,75.6,6.9,76.3,6.9"/>
	<path class="st1" d="M73,15.5c-0.1-0.1-0.2-0.1-0.3,0l-0.1,0c-0.8,0.5-1.4,1.1-1.9,1.7c0.1-2.7,2.1-5.6,2.2-5.6
		c0.1-0.1,0.1-0.2,0-0.3c-0.1-0.1-0.2-0.1-0.3,0c-0.2,0.1-4.3,2.7-5.7,6.8l0,0l-0.1,0.6c0,0.1,0,0.2,0.1,0.2c0.1,0.1,0.2,0.1,0.3,0
		l0.5-0.3c0.5-0.3,1.6-0.8,2.5-0.6l0.1,0c-0.6,1.1-0.9,2.2-1.1,3.1l0,0l0,0l0,0l-0.1,0.4c0,0.1,0,0.2,0.1,0.2c0.1,0.1,0.2,0.1,0.2,0
		l0.5-0.2c0.9-0.3,1.4-0.5,1.8-0.4l0.3,0c0.1,0,0.1,0,0.2-0.1c0.1,0,0.1-0.1,0.1-0.2l0-0.3c-0.1-2,0.1-3.2,0.8-5
		C73.1,15.6,73.1,15.5,73,15.5 M70.2,17.5c-1.1-0.2-2.2,0.4-2.8,0.7c0,0,0,0-0.1,0l0-0.1c1-2.8,3.3-4.9,4.6-5.9
		C71.2,13.5,70.3,15.6,70.2,17.5L70.2,17.5L70.2,17.5 M71.8,19.9c0,0.3,0,0.6,0,0.9l0,0c-0.5-0.1-1.1,0.1-2,0.5l-0.1,0l0,0l0,0
		c0.3-1.6,1-3.6,2.7-5C72,17.5,71.8,18.6,71.8,19.9"/>
	<path class="st1" d="M120.9,7.2c-0.1,0-0.1-0.1-0.3-0.1c-0.2,0-0.3,0.1-0.4,0.2V7.2h-0.7v2.3h0.7V8c0-0.2,0.1-0.2,0.3-0.2
		c0.1,0,0.2,0.1,0.3,0.1L120.9,7.2 M118.6,8.3c0,0.5-0.1,0.6-0.2,0.6c-0.2,0-0.2-0.2-0.2-0.6c0-0.5,0.1-0.6,0.2-0.6
		C118.5,7.7,118.6,7.9,118.6,8.3 M119.2,8.3c0-0.8-0.3-1.2-0.9-1.2c-0.6,0-0.9,0.4-0.9,1.2c0,0.8,0.3,1.2,0.9,1.2
		C118.9,9.5,119.2,9.1,119.2,8.3 M116.6,8.4c0,0.5-0.1,0.6-0.2,0.6c-0.1,0-0.1,0-0.2-0.1V7.8c0.1,0,0.1-0.1,0.2-0.1
		C116.5,7.7,116.6,7.8,116.6,8.4 M117.2,8.3c0-0.8-0.2-1.2-0.6-1.2c-0.2,0-0.3,0.1-0.4,0.2V7.2h-0.7v3.1l0.7-0.3V9.4
		c0.1,0.1,0.2,0.2,0.4,0.2C117,9.5,117.2,9.2,117.2,8.3"/>
	<path class="st1" d="M124.2,8.8c0-0.4-0.2-0.6-0.7-0.8c-0.2-0.1-0.2-0.1-0.2-0.2c0-0.1,0-0.1,0.1-0.1c0.1,0,0.2,0,0.4,0.2l0.3-0.5
		c-0.2-0.2-0.4-0.3-0.7-0.3c-0.5,0-0.8,0.3-0.8,0.7c0,0.4,0.2,0.6,0.7,0.8c0.2,0.1,0.2,0.1,0.2,0.2c0,0.1-0.1,0.2-0.2,0.2
		c-0.1,0-0.2,0-0.5-0.2l-0.3,0.5c0.3,0.2,0.5,0.3,0.8,0.3C123.9,9.5,124.2,9.3,124.2,8.8 M122.3,8.9c-0.1,0.1-0.2,0.1-0.3,0.1
		c-0.1,0-0.2-0.1-0.2-0.2v-1h0.4V7.2h-0.4V6.3l-0.7,0.3v0.6H121v0.6h0.3v1.2c0,0.4,0.2,0.6,0.5,0.6c0.2,0,0.3,0,0.4-0.1L122.3,8.9z"
		/>
	<path class="st1" d="M136,9.1c0-0.2-0.2-0.4-0.4-0.4c-0.2,0-0.4,0.2-0.4,0.4c0,0.2,0.2,0.4,0.4,0.4C135.8,9.5,136,9.4,136,9.1
		 M134.9,9.5V7.9c0-0.5-0.2-0.7-0.6-0.7c-0.2,0-0.3,0.1-0.5,0.2v-1l-0.7,0.3v2.9h0.7V7.8c0.1-0.1,0.1-0.1,0.2-0.1
		c0.1,0,0.2,0.1,0.2,0.3v1.5H134.9z M132.8,8.9c-0.1,0.1-0.2,0.1-0.3,0.1c-0.1,0-0.2-0.1-0.2-0.2v-1h0.4V7.2h-0.4V6.3l-0.7,0.3v0.6
		h-0.3v0.6h0.3v1.2c0,0.4,0.2,0.6,0.5,0.6c0.2,0,0.3,0,0.4-0.1L132.8,8.9z M131.3,9.5V7.2h-0.7v1.7c-0.1,0.1-0.1,0.1-0.2,0.1
		c-0.1,0-0.2-0.1-0.2-0.3V7.2h-0.7v1.6c0,0.5,0.2,0.7,0.6,0.7c0.2,0,0.4-0.1,0.5-0.2v0.1H131.3z M128.6,8.3c0,0.5-0.1,0.6-0.2,0.6
		c-0.2,0-0.2-0.2-0.2-0.6c0-0.5,0.1-0.6,0.2-0.6C128.5,7.7,128.6,7.9,128.6,8.3 M129.3,8.3c0-0.8-0.3-1.2-0.9-1.2
		c-0.6,0-0.9,0.4-0.9,1.2c0,0.8,0.3,1.2,0.9,1.2C128.9,9.5,129.3,9.1,129.3,8.3 M127.2,9.5V7.9c0-0.5-0.2-0.7-0.6-0.7
		c-0.2,0-0.4,0.1-0.5,0.2c-0.1-0.1-0.3-0.2-0.5-0.2c-0.2,0-0.3,0.1-0.5,0.2V7.2h-0.7v2.3h0.7V7.8c0.1-0.1,0.1-0.1,0.2-0.1
		c0.1,0,0.2,0.1,0.2,0.3v1.5h0.7V7.8c0.1-0.1,0.1-0.1,0.2-0.1c0.1,0,0.2,0.1,0.2,0.3v1.5H127.2z"/>
	<path class="st1" d="M139.1,8.3c0,0.5-0.1,0.6-0.2,0.6c-0.2,0-0.2-0.2-0.2-0.6c0-0.5,0.1-0.6,0.2-0.6
		C139.1,7.7,139.1,7.9,139.1,8.3 M139.8,8.3c0-0.8-0.3-1.2-0.9-1.2c-0.6,0-0.9,0.4-0.9,1.2c0,0.8,0.3,1.2,0.9,1.2
		C139.5,9.5,139.8,9.1,139.8,8.3 M137.9,8.9l-0.5-0.3c-0.1,0.3-0.2,0.4-0.3,0.4c-0.2,0-0.2-0.2-0.2-0.6c0-0.5,0.1-0.6,0.2-0.6
		c0.1,0,0.2,0.1,0.2,0.4l0.5-0.3c-0.1-0.4-0.3-0.7-0.8-0.7c-0.6,0-0.9,0.4-0.9,1.2c0,0.8,0.3,1.2,0.9,1.2
		C137.5,9.5,137.7,9.3,137.9,8.9"/>
	<path class="st1" d="M145,9.5l-0.5-1.6l0.5-0.7h-0.7l-0.1,0.2c-0.1,0.2-0.2,0.4-0.3,0.6c0-0.2,0-0.4,0-0.6v-1l-0.7,0.3v2.9h0.7V8.7
		l0.1-0.2l0.3,1H145 M142.8,9.5V7.2h-0.7v1.7C142.1,8.9,142,9,141.9,9c-0.1,0-0.2-0.1-0.2-0.3V7.2h-0.7v1.6c0,0.5,0.2,0.7,0.6,0.7
		c0.2,0,0.4-0.1,0.5-0.2v0.1H142.8z M140.8,9.1c0-0.2-0.2-0.4-0.4-0.4c-0.2,0-0.4,0.2-0.4,0.4c0,0.2,0.2,0.4,0.4,0.4
		C140.7,9.5,140.8,9.4,140.8,9.1"/>
</g>
</svg>
