<?xml version="1.0" encoding="utf-8"?>
<!-- Generator: Adobe Illustrator 22.1.0, SVG Export Plug-In . SVG Version: 6.00 Build 0)  -->
<svg version="1.1" id="Layer_1" xmlns="http://www.w3.org/2000/svg" xmlns:xlink="http://www.w3.org/1999/xlink" x="0px" y="0px"
	 viewBox="0 0 179 36" style="enable-background:new 0 0 179 36;" xml:space="preserve">
<style type="text/css">
	.st0{fill:#E52428;}
</style>
<g>
	<g>
		<g>
			<path class="st0" d="M18.2,10.5h13v4.4h-3.7v14.4h-5.5V14.9h-3.7V10.5z"/>
			<path class="st0" d="M39.5,19.9c0-1.1-0.4-1.4-1-1.4c-0.7,0-1.1,0.6-1.1,1.4v9.4H32V10.5h5.3v6.2h0.1c0.8-1.4,2.1-2,3.8-2
				c1.9,0,3.6,1,3.6,3.6v11h-5.3V19.9z"/>
		</g>
	</g>
	<path class="st0" d="M51.1,24.9c0,0.8,0.1,1.8,1.2,1.8c1,0,1.2-0.9,1.2-2.4h4.8c0,1.9-0.5,3.3-1.6,4.1c-1,0.8-2.6,1.2-4.4,1.2
		c-5.9,0-6.5-3.5-6.5-7.5c0-4,0.6-7.5,6.5-7.5c6.1,0,6.1,3.6,6.1,8.1V23h-7.3V24.9z M53.4,19.5c0-1.4-0.3-1.8-1.2-1.8
		c-0.8,0-1.1,0.4-1.1,1.8v0.8h2.3V19.5z"/>
	<g>
		<g>
			<path class="st0" d="M70.3,19.1H77v10.2h-3.8l-0.1-1.5H73c-0.9,1.7-2.4,1.9-4,1.9c-5.6,0-5.7-4.7-5.7-9.7c0-5.4,0.3-9.8,7-9.8
				c5.4,0,6.6,2.6,6.6,6.4h-5.2v-0.8c0-1.4-0.3-2.1-1.4-2.1c-1.3,0-1.4,1.2-1.4,2.3v7.7c0,1.2,0.1,2.5,1.4,2.5c1.3,0,1.5-1,1.5-2.4
				v-1.3h-1.6V19.1z"/>
		</g>
		<g>
			<path class="st0" d="M90.2,27.2c0,0.7,0.2,1.4,0.5,2.1h-5c-0.2-0.5-0.2-1-0.2-1.5l-0.1,0c-0.6,1.4-2,1.9-3.5,1.9
				c-2.8,0-4-1.4-4-4.2c0-3.2,1.5-4,3.5-4.5l2.5-0.6c1.1-0.2,1.5-0.6,1.5-1.5c0-0.7-0.4-1.1-1-1.1c-1.1,0-1.3,0.8-1.3,1.6h-4.7
				c0-3.2,1.8-4.8,6-4.8c4.9,0,5.8,1.9,5.8,4.1V27.2z M85.3,22.4C85,22.6,84.6,22.7,84,23c-0.9,0.3-1,1-1,1.8c0,0.8,0.3,1.4,1.1,1.4
				c1,0,1.3-0.9,1.3-1.7V22.4z"/>
			<path class="st0" d="M96.1,19h-4.8v-3.9h11.3v3.8l-5.2,6.5h5.4v3.9H91.1v-3.9L96.1,19z"/>
		</g>
		<g>
			<path class="st0" d="M108.6,24.9c0,0.8,0.1,1.8,1.2,1.8c1,0,1.2-0.9,1.2-2.4h4.8c0,1.9-0.5,3.3-1.6,4.1c-1,0.8-2.6,1.2-4.4,1.2
				c-5.9,0-6.5-3.5-6.5-7.5c0-4,0.6-7.5,6.5-7.5c6.1,0,6.1,3.6,6.1,8.1V23h-7.3V24.9z M110.9,19.5c0-1.4-0.3-1.8-1.2-1.8
				c-0.8,0-1.1,0.4-1.1,1.8v0.8h2.3V19.5z"/>
			<path class="st0" d="M117.8,10.9h5.3v4.2h1.9v3.3h-1.9v6.3c0,0.9,0.1,1.3,1,1.3c0.4,0,0.7,0,0.9-0.1v3.4
				c-0.4,0.1-1.8,0.2-2.6,0.2c-3,0-4.6-0.1-4.6-3.3v-7.8h-1.6v-3.3h1.6V10.9z"/>
		</g>
		<g>
			<path class="st0" d="M127.3,10.9h5.3v4.2h1.9v3.3h-1.9v6.3c0,0.9,0.1,1.3,1,1.3c0.4,0,0.7,0,0.9-0.1v3.4
				c-0.4,0.1-1.8,0.2-2.6,0.2c-3,0-4.6-0.1-4.6-3.3v-7.8h-1.6v-3.3h1.6V10.9z"/>
			<path class="st0" d="M140.2,24.9c0,0.8,0.1,1.8,1.2,1.8c1,0,1.2-0.9,1.2-2.4h4.8c0,1.9-0.5,3.3-1.6,4.1c-1,0.8-2.6,1.2-4.4,1.2
				c-5.9,0-6.5-3.5-6.5-7.5c0-4,0.6-7.5,6.5-7.5c6.1,0,6.1,3.6,6.1,8.1V23h-7.3V24.9z M142.5,19.5c0-1.4-0.3-1.8-1.2-1.8
				c-0.8,0-1.1,0.4-1.1,1.8v0.8h2.3V19.5z"/>
		</g>
	</g>
	<g>
		<path class="st0" d="M154.2,5.6c0.1,0.5,0,0.5,0,0.9c-0.1,0.4-0.1,1.1-0.1,1.3s0.2,0.3,0.2,0.3s0-0.5,0.3-0.7
			c0.3-0.3,0.7-0.4,0.8-0.7c0.1-0.3,0.1-0.7,0.2-0.8c0.1-0.1,0.2-0.2,0.2-0.2s0.1-0.9,0.1-1.1c0-0.2,0.1-0.5,0.1-0.5
			s-0.4,0.3-0.5,0.5c-0.2,0.2-0.3,0.5-0.5,0.5s-1.1-0.2-1.1-0.2S154.2,5.2,154.2,5.6z"/>
		<path class="st0" d="M155.7,8.3c0,0.3,0.1,0.4,0.1,0.4c0.1,0,0.2,0,0.2-0.3c0-0.2,0-1.3,0-1.8c0-0.5,0.3-1.7,0.3-1.9
			s0.2-0.5,0.1-0.6c-0.1-0.1-0.2,0-0.2,0.1c0,0.1-0.4,1.8-0.5,2.2C155.7,6.8,155.7,8,155.7,8.3z"/>
		<path class="st0" d="M153.8,12.6c0,0,0.2,0,0.5-0.1c0,0,0,0,0,0.1c0,0-0.1,0.4-0.2,0.7c0,0.3,0,0.8,0.1,0.8c0.1,0,0.2,0.1,0.3,0
			c0.1,0,0.1-0.1,0.1-0.2c0,0,0-0.1,0-0.1l0-0.8c0,0,0.1-0.2,0.1-0.3c0-0.1,0-0.2-0.1-0.3c0.2,0,0.4-0.1,0.6-0.2
			c0,0.3-0.1,1-0.1,1.2c0,0.2,0.1,0.3,0.2,0.3c0.1,0,0.2,0,0.2-0.1c0-0.2,0-0.7,0-1c0-0.2,0-0.4,0-0.5c0.2,0,0.4-0.1,0.6-0.1
			c0,0,0,0.1,0,0.1c0,0.1-0.1,0.6-0.1,0.9c0,0.3,0,0.5,0.1,0.5s0.1,0,0.1,0.1c0,0,0,0.1,0,0.1c0,0,0.1,0,0.1,0c0,0,0.1-0.1,0.1-0.2
			s0-0.1,0-0.1s0.1,0,0.1,0c0,0,0.1-1,0-1.2c0-0.2-0.2-0.3-0.2-0.3s0,0,0-0.1c0.6-0.2,1.2-0.3,1.3-0.4c0.2-0.1,0.2-0.2,0.1-0.4
			c-0.1-0.1-0.3-0.5-0.3-0.5s0.2-0.2,0-0.3s-0.4-0.1-0.4-0.1s0.1-0.6-0.2-0.9c-0.2-0.3-0.4-0.4-0.6-0.5c-0.2-0.1-0.7-0.2-1.1-0.1
			c-0.5,0.2-0.6,0.8-0.6,0.8c0,0.1-0.1,0.1-0.1,0.1c0,0.1,0,0.2,0,0.2s-0.1,0.2-0.1,0.3c0,0.2,0,0.5,0,0.5s-0.1,0-0.3,0.1
			c-0.2,0.1-0.2,0.3-0.3,0.3s-0.1,0.2-0.1,0.3c0,0.1,0.2,0.1,0.3,0.1c0.1,0,0,0.1,0,0.1s-0.6,0.4-0.6,0.4c0,0.1-0.1,0.2,0,0.3
			C153.6,12.6,153.7,12.6,153.8,12.6z M155,9.9c0-0.3,0.3-0.5,0.4-0.5c0.3-0.2,0.6,0,0.8,0.3c0.2,0.2,0.1,0.9,0.1,0.9l-1.2,0.2
			C155,10.8,155,10.2,155,9.9z"/>
		<path class="st0" d="M157,12.5c0,0.1,0,0.8,0,0.9c0,0.1,0.1,0.1,0.2,0.1c0.1,0,0.1,0,0.2-0.2c0-0.1,0-1.1,0-1.2
			c0,0-0.1-0.1-0.1-0.1c0-0.1,0.1-0.1,0.1-0.2c0,0-0.1-0.2-0.2,0c0,0-0.1,0.3-0.1,0.4C157.1,12.4,157.1,12.4,157,12.5
			C157.1,12.4,157,12.4,157,12.5z"/>
		<path class="st0" d="M160.8,17c-0.1,0-0.2-0.1-0.2-0.1s-0.9-0.7-1-0.8c-0.1-0.1-0.3-0.3-0.4-0.4c0,0-0.1,0-0.1,0c0,0-0.1,0-0.1,0
			c0,0,0,0,0-0.1c0,0,0.1,0,0.1-0.1c0-0.1,0-0.2,0-0.2s0.1-0.1,0.1-0.1c0,0,0,0,0,0s0,0.1,0.1,0.1c0.1,0,0.1,0,0.1-0.1
			c0-0.1-0.1-0.2-0.2-0.2c-0.1,0-0.1,0-0.1,0s0-0.3-0.1-0.6c-0.1-0.3-0.2-0.5-0.3-0.6c-0.1-0.1-0.1-0.1-0.1-0.1s0.1-1,0-1
			s-0.1-0.2-0.2-0.1c-0.1,0.1-0.1,0.3-0.2,0.5c0,0.3,0,0.8,0,0.8s-0.2,0.1-0.3,0.3c-0.1,0.1-0.2,0.4-0.2,0.4s-0.5,0-0.7,0
			c-0.2,0-0.4,0.1-0.5,0.1c0,0-0.1-0.1,0-0.1c0.1,0,0.6,0,0.7,0c0.1,0,0.5-0.3,0.5-0.3c0-0.1,0-0.2,0-0.2c0,0-0.2-0.2-0.4-0.2
			c-0.2,0-1,0.2-1.2,0.3c-0.2,0-1.2,0.3-1.4,0.3c-0.2,0-0.7,0.2-0.8,0.2c0,0-0.1,0.1,0,0.2c0,0.1,0.3,0,0.4,0c0.1,0,0.2-0.1,0.2-0.1
			c0,0,0.1,0,0.1,0c0,0,0,0.1-0.2,0.2c-0.2,0.1-0.5,0.2-0.5,0.2s-0.4-0.6-0.4-0.8s0-0.7-0.1-0.8c0-0.1,0-0.2-0.2-0.2
			c-0.1,0-0.1,0.1-0.1,0.3c0,0.2,0,0.5,0,0.7s0.1,0.3,0.1,0.3s-0.3,0.4-0.5,0.8s-0.4,0.8-0.4,1c0,0.1,0,0.2,0.1,0.3s0.1,0.1,0.1,0.1
			l0,0.8c0,0-0.4,0.2-0.6,0.4c-0.2,0.2-0.5,0.6-0.5,0.6s-0.1,0-0.1-0.1c0-0.1,0.2-0.4,0.4-0.5c0.1-0.1,0.5-0.5,0.6-0.5
			c0.1-0.1,0.1-0.2,0-0.2c-0.1,0-0.2-0.1-0.3,0c0,0-0.1,0.2-0.1,0.2s-0.6,0.6-0.7,0.7c-0.1,0.1-0.2,0.2-0.2,0.3c0,0.1,0,0.3,0,0.4
			c0,0.2,0.1,0.2,0.1,0.4c0,0.1,0.1,1.3,0.2,1.5c0,0.2,0,1,0,1c0,0.1,0,0.1,0.1,0.1c0.1,0,0.1,0,0.2-0.2c0.1-0.1,0.7-0.9,0.9-1.1
			c0.2-0.2,0.9-0.8,1.1-0.9c0.2-0.1,1.2-0.3,1.5-0.3c0.3-0.1,1.5-0.3,1.9-0.4c0.4-0.1,1-0.1,1.1-0.1c0.1,0,0.6,0.5,0.8,0.7
			c0.2,0.2,0.8,1,0.9,1c0.1,0.1,0.1,0.1,0.2,0.1c0.1-0.1,0.2-0.5,0.3-0.9c0.1-0.4,0.3-1.3,0.3-1.5c0.1-0.2,0.2-0.5,0.2-0.6
			C160.8,17.1,160.8,17,160.8,17z M158.3,14.2c0.1-0.1,0.2-0.1,0.2-0.1c0,0,0.2,0.2,0.2,0.4c0,0.2,0,0.3,0,0.3c0,0-0.2,0-0.3-0.1
			c-0.1,0-0.3,0-0.3-0.1C158,14.5,158.2,14.3,158.3,14.2z M158.1,17.1c0-0.1,0-0.8,0-1.1s0.1-0.7,0.1-0.7c0,0,0-0.1,0.1-0.1
			c0,0,0.3,0,0.3,0s0.1,0,0.1,0.1c0,0.1-0.1,0.9-0.2,1.2c0,0.3-0.2,0.8-0.2,0.8s0,0-0.1,0s-0.2,0-0.2,0
			C158.1,17.3,158.1,17.2,158.1,17.1z M154.5,15.6c0.1,0,0.9-0.3,1.1-0.3c0.2,0,0.6-0.1,0.7-0.2s0.6-0.1,0.7-0.1
			c0.1,0,0.3-0.1,0.4-0.1c0.1,0,0.2,0,0.3,0.2c0,0.1,0,0.3-0.1,0.3c0,0,0,0.1,0,0.2c0,0.1,0,1.1,0,1.1s-0.2,0.1-0.2,0.1s0-0.4,0-0.6
			c0-0.3,0-0.7,0-0.8c0,0,0,0,0.1-0.1c0-0.1,0-0.1-0.1-0.1c-0.1,0-0.2,0-0.3,0.1c-0.1,0-0.4,0-0.6,0s-0.2,0.1-0.4,0.1
			c-0.1,0-0.3,0-0.5,0c-0.2,0-0.3,0.1-0.4,0.1c-0.1,0-0.2,0-0.2,0C155,15.5,154.5,15.6,154.5,15.6C154.5,15.6,154.5,15.6,154.5,15.6
			z M156.6,17.2c0.4,0,0.9-0.1,1-0.1c0,0,0,0,0,0c0,0,0,0.1,0,0.1c0,0,0,0.1,0,0.1c0,0-0.4,0-0.7,0.1c-0.3,0-1.3,0.3-1.6,0.3
			S154.1,18,154,18c-0.1,0,0-0.2,0-0.2c0,0,0-0.1,0-0.1c0,0,0.3-0.2,0.7-0.3C155.1,17.4,156.2,17.2,156.6,17.2z M155,16.6
			c0-0.1,0-0.7,0-0.7c0-0.1,0.1-0.1,0.1-0.1c0,0,0,0.1,0.1,0.1c0,0.1,0,0.6,0,0.8c0,0.1,0,0.2-0.1,0.3c0,0-0.1,0-0.1,0
			C155,16.9,155,16.7,155,16.6z M155.4,15.8c0,0,0-0.1,0.1-0.1c0.1,0,0.2,0,0.2,0c0,0,0,0.1,0,0.4c0,0.2,0,0.7,0,0.7s-0.1,0-0.1,0
			c0,0-0.1,0.1-0.1,0.1c0,0-0.1,0-0.1,0s0-0.2,0-0.4S155.4,15.8,155.4,15.8z M155.9,16.4C155.9,16.3,155.9,16.3,155.9,16.4
			c0.1-0.1,0.1-0.1,0.1-0.2s0.1-0.1,0.1,0c0.1,0.1,0.1,0.5,0,0.5c0,0-0.1,0-0.1,0C155.9,16.6,155.9,16.5,155.9,16.4z M156.6,16.5
			c0,0.1,0,0.1-0.1,0.1c0,0-0.2,0-0.2,0c0,0,0-0.2,0-0.3s0-0.6,0-0.7c0,0,0-0.1,0.1-0.1c0.1,0,0,0.1,0.1,0.1c0,0,0.1,0,0.1,0
			c0,0,0,0,0,0.1C156.5,16,156.6,16.4,156.6,16.5z M156.8,15.7C156.8,15.7,156.8,15.6,156.8,15.7c0.1,0,0.1,0.1,0.1,0.3
			c0,0.2,0,0.5-0.1,0.5c0,0,0,0,0,0C156.7,16.4,156.7,15.7,156.8,15.7z M157,15.6C157,15.6,157,15.6,157,15.6c0-0.1,0.1-0.1,0.1-0.1
			c0,0,0.1-0.1,0.1-0.1c0,0,0,0.5,0,0.7c0,0.2,0,0.6,0,0.6c0,0-0.1,0-0.2,0c0,0,0-0.2,0-0.4C157,16.2,157,15.7,157,15.6z
			 M154.5,16.1c0,0,0.2-0.1,0.2-0.1c0,0,0.1,0,0.1,0c0,0,0,1,0,1s-0.1,0-0.1,0c-0.1,0-0.1,0.1-0.1,0.1c0,0-0.1,0-0.1-0.1
			c0-0.1,0-0.4,0-0.5C154.5,16.2,154.5,16.1,154.5,16.1z M154,16.1c0,0,0-0.2,0.1-0.3c0.1-0.1,0.1-0.1,0.1-0.1c0,0.1,0,0.1,0,0.3
			c0,0.1,0,1.3,0,1.3c0,0-0.2,0.1-0.2,0.1c0,0,0-1,0-1.1c0,0-0.1,0-0.1-0.1C153.9,16.2,153.9,16.1,154,16.1z M153.1,15.3
			c0.1-0.2,0.3-0.5,0.3-0.5c0.1,0,0,0,0.1,0c0,0,0,0.3,0,0.3c0,0.1,0.1,0.1,0.1,0.2c0,0,0,0.1,0,0.1c0,0.1-0.1,0.1-0.2,0.2
			c-0.1,0.1-0.4,0.2-0.4,0.1S153.1,15.5,153.1,15.3z M153.6,18C153.6,18,153.6,18.1,153.6,18c-0.1,0.1-0.3,0.2-0.3,0.2
			c-0.1,0-0.1,0-0.1-0.1c0-0.1,0-1.6,0-1.6c0,0,0,0,0-0.1c0,0-0.1-0.1,0-0.2c0.1-0.1,0.4-0.3,0.5-0.3s0,0.6,0,1
			C153.5,17.4,153.5,18,153.6,18z M151.7,19.3c-0.1-0.1-0.1-0.3,0-0.5c0.1-0.1,0.6-0.7,0.8-0.8c0.1-0.1,0.1-0.1,0.2-0.1
			c0.1,0,0.1,0,0.1,0.2c0,0.1-0.2,0.3-0.4,0.5c-0.2,0.2-0.4,0.8-0.5,0.8C151.8,19.4,151.8,19.4,151.7,19.3z M159.9,19.1
			c-0.1,0.2-0.1,0.3-0.2,0.3c0,0-0.1-0.1-0.2-0.1c-0.1-0.1-0.9-1-1.1-1.1c-0.1-0.1-0.6-0.1-0.9-0.1c-0.3,0-0.8,0.1-1,0.1
			c-0.2,0-0.7,0.1-0.8,0.1c-0.1,0-0.2,0.1-0.4,0.1s-0.5,0.1-0.8,0.1s-0.5,0.2-0.5,0.2s-0.4,0-0.5,0c0,0,0,0.1,0,0.1
			s-0.3,0.2-0.4,0.3c-0.1,0.1-1.3,1.2-1.3,1.2c0,0,0,0,0,0c0,0,0-0.7,0-0.7s0.1,0,0.2,0c0.1,0,0.1-0.1,0.2-0.2
			c0.1-0.1,0.5-0.7,0.5-0.7c0,0,0,0,0,0.1c0,0,0,0.2,0.1,0.2c0.2,0,0.2-0.1,0.4-0.3s0.4-0.2,0.5-0.3c0.2-0.1,0.3,0,0.4,0
			c0,0,0.2-0.1,0.3-0.2c0.1,0,0.4-0.1,0.4-0.1c0.1,0,0.3-0.1,0.6-0.2c0.2-0.1,1-0.1,1.3-0.2c0.3,0,0.4-0.1,0.8-0.1
			c0.3,0,0.5,0,0.6,0c0.1,0,0.3,0.2,0.3,0.2s0.1-0.1,0.2-0.1s0-0.1,0-0.1c0,0,0.1,0,0.1,0c0,0,0.6,0.7,0.7,0.9
			c0.2,0.1,0.2,0.1,0.3,0c0.1,0,0.1-0.3,0.1-0.3c0-0.1-0.1-0.1-0.2-0.3c-0.1-0.1-0.8-0.8-0.8-0.8s0,0,0-0.1c0,0,0-0.4,0-0.4
			c0,0,0-0.1,0-0.1c0.1,0,0.7,0.7,0.9,0.9c0.2,0.2,0.3,0.3,0.3,0.6C160.2,18.4,160,18.9,159.9,19.1z M160.2,17.4
			c0,0-0.4-0.3-0.6-0.5c-0.2-0.2-0.7-0.7-0.7-0.7c0,0,0-0.1,0-0.1c0,0,0-0.1,0.1,0c0.1,0,0.4,0.4,0.7,0.6c0.2,0.2,0.6,0.6,0.6,0.6
			C160.3,17.3,160.2,17.4,160.2,17.4z"/>
		<path class="st0" d="M152.7,27.4c0,0,1.2-3.3,1.2-3.3c0-0.1-0.2-0.1-0.2-0.1c0,0,0-0.1-0.1-0.1c-0.1,0-0.2,0-0.2,0
			c0,0,0-0.1,0-0.1c0.2,0,0.6-0.1,1-0.1c0.5-0.1,2.7-0.4,3.4-0.4s1.1-0.1,1.2-0.2c0.1-0.1,0-0.1,0-0.2c0-0.1,0.1-0.1,0.2-0.2
			c0.1-0.1,0.3-0.8,0.4-1.1c0.1-0.3,0.3-0.6,0.3-0.8c0-0.2-2-2-2-2c-0.1,0-3.3,0.6-3.7,0.6c-0.2,0-0.6,0.1-0.7,0.3
			c-0.2,0.2-1,1.1-1.3,1.3c-0.3,0.3-0.5,0.6-0.4,0.7c0.1,0.1,0.2,0.1,0.2,0.1s0.5,0.7,0.6,0.8c0.1,0.1,0.2,0.3,0.2,0.4
			c0.1,0.1,0.3,0.4,0.4,0.5c-0.1,0-0.2,0.1-0.2,0.1c0,0-0.2,0-0.2,0.1c0,0.1-0.4,1.4-0.7,2.2c-0.2,0.8-0.5,1.8-0.7,2.3
			c-0.2,0.5-0.6,1.8-0.7,2c-0.1,0.2-0.1,0.4-0.1,0.5c0.1,0.1,0.1,0.1,0.2,0c0.1-0.1,0.1-0.2,0.2-0.2s0.1,0.1,0.1,0.2
			c0,0.1-0.2,0.2-0.1,0.3c0,0.1,0.2,0.4,0.2,0.4c0.1,0,0.1,0,0.1,0c0.1,0,0.1-0.4,0.2-0.4c0.1-0.1,0.2-0.2,0.2-0.3
			c0-0.1,0-0.3,0-0.3L152.7,27.4z"/>
		<path class="st0" d="M159.7,31.1c0,0,0.1-0.1,0-0.2c0-0.1-0.1-0.3-0.1-0.3s-0.5-2.5-0.6-2.8c-0.1-0.4-0.4-3.6-0.5-3.8
			c0-0.2-0.3-0.5-0.5-0.5c-0.2,0-0.4,0-0.5,0.2c-0.1,0.2,0,0.3,0,0.3c0,0,0,0.2,0,0.2s-0.3,0-0.5,0.2c-0.2,0.1-1.6,1.1-1.6,1.1
			s-0.3-0.3-0.5-0.6c-0.2-0.3-0.4-0.6-0.5-0.7c-0.1,0-0.3,0-0.3,0c-0.1,0.1-0.1,0.1-0.1,0.3s0.3,0.7,0.5,1c0.2,0.3,0.3,0.4,0.3,0.4
			s-0.3,0.3-0.7,0.7c-0.4,0.4-0.6,0.6-0.6,0.6s-0.2-0.3-0.2-0.3s-0.2,0-0.2,0c0,0-0.2-0.1-0.3,0c-0.1,0.1-0.2,0.4-0.2,0.4l0.1,0.3
			c0,0-0.5,0.7-0.5,0.9c0,0.2,0.3,0.4,0.4,0.3c0.1,0,0.1-0.1,0.1-0.1s0.1,0,0.2-0.1c0.1-0.1,0.3-0.4,0.3-0.4l1.1,1.1
			c0,0-0.9,0.7-1.1,0.9c-0.2,0.2-0.3,0.5-0.3,0.5c-0.1,0-0.3,0-0.3,0.1s-0.2,0.6-0.2,0.7c0,0.1,0.1,0.1,0.2,0.1c0.1,0,0.2,0.1,0.4,0
			c0.2-0.1,0.4-0.5,0.7-0.7s0.7-0.6,0.9-0.8c0.2-0.2,0.3-0.3,0.3-0.3s0.9,0.8,1.3,1.2c0.4,0.4,0.8,0.8,1,0.8c0.2,0,0.4,0.1,0.5,0.1
			c0.1,0,0.2,0,0.2,0c0-0.1-0.1-0.2-0.1-0.2c0-0.1,0-0.2-0.3-0.5c-0.3-0.3-2.1-1.9-2.1-1.9s1.3-1.3,1.3-1.3c0.1,0,0.1-0.1,0.2,0
			c0.1,0.1,0.5,0.4,0.6,0.5c0.1,0.1,0.3,0.1,0.3,0.5c0,0.4,0.1,1.2,0.1,1.7c0.1,0.5,0.1,1,0.3,1.1c0.2,0.1,0.4,0.1,0.5-0.1
			c0.1-0.1,0.1-0.2,0.2-0.2c0.1,0,0.1-0.1,0.1-0.2c0-0.1-0.3-1.6-0.4-2.1c0-0.5,0-1.1-0.1-1.3c-0.1-0.2-0.1-0.5,0-0.5
			c0.1,0,0.1,0.1,0.2,0.5c0,0.4,0.1,0.8,0.1,1.1c0.1,0.3,0.1,0.4,0.1,0.6c0,0.3,0.2,1.7,0.2,1.8c0,0.1,0.1,0.1,0.2,0.1
			c0.1,0,0.3,0.1,0.3,0.1c0,0,0.1-0.4,0-0.5C159.8,31.1,159.7,31.1,159.7,31.1z M155.1,28.9c0,0-0.9-1-0.9-1.1c0,0,0-0.1,0.3-0.4
			c0.2-0.2,1-1,1-1s0.3,0.2,0.4,0.4c0.2,0.2,0.6,0.8,0.6,0.8L155.1,28.9z M157.9,27.7c0,0-0.2,0-0.3-0.1c-0.1-0.1,0.1-0.2,0.1-0.4
			c0-0.2-0.1-0.3-0.2-0.3s-0.3,0.1-0.4,0.1c-0.1,0-0.2-0.1-0.4-0.4c-0.3-0.3-0.6-0.7-0.6-0.7s1-0.7,1.2-0.9s0.4-0.3,0.4-0.3l0.1,0
			C157.7,24.7,157.9,27.7,157.9,27.7z"/>
	</g>
</g>
</svg>
