<svg id="Layer_1" data-name="Layer 1" xmlns="http://www.w3.org/2000/svg" viewBox="0 0 179 36"><defs><style>.cls-1{fill:#333787;}.cls-2{fill:#d0372a;}</style></defs><title>THE_STAR_179x36_logo</title><path class="cls-1" d="M27.86,2.4l.95,2.08,1.65,3.6.93,2c.28.62.56,1.24.85,1.86.16.35.11.29.44.24s1-.09,1.46-.14l1.45-.17,1-.1,1.5-.17,1-.1,1.56-.17,1-.09c.35,0,.71-.09,1.06-.12a.25.25,0,0,1,.2.1q.42.93.81,1.88a.21.21,0,0,1,0,.18l-1.59,1.5-.06.06-1.7,1.65-1.93,1.85-1.89,1.8-.53.48,1.57,3.47L39,27.29q.6,1.34,1.2,2.68a.25.25,0,0,1,0,.22q-.77.77-1.56,1.51a.23.23,0,0,1-.21,0l-2.82-1.61L33,28.57l-2.25-1.28-1.3-.75-1.28,1.13-1.8,1.58-.84.75-1.83,1.61L22.34,32.8l-.87.8h-.09s0-.06-.07-.08l-2-1.15a.29.29,0,0,1-.12-.23c.14-.67.29-1.34.44-2l.79-3.58c.33-1.48.65-3,1-4.42,0-.13,0-.16-.1-.22l-3.07-1.82-3.8-2.28-2.24-1.33v-.09a.25.25,0,0,0,0-.07c.18-.65.35-1.3.54-1.94,0-.06.08-.15.13-.16.3,0,.61-.07.91-.1L14.8,14l1.52-.17,1.46-.14,1.56-.17,1-.09,1.47-.17,1.46-.14a.24.24,0,0,0,.16-.15q.17-.71.31-1.42c.29-1.41.56-2.83.85-4.24s.62-3,.94-4.53a.29.29,0,0,1,.2-.17c.48-.06,1-.09,1.44-.14.18,0,.35-.06.52-.09Zm7.76,12.7,0-.07L30,15.62l-2.44-5.45L26.35,16l-5.7.6c.58.42,1.16.79,1.74,1.16,1,.63,1.94,1.27,2.92,1.88.16.1.17.19.13.35-.12.51-.22,1-.33,1.53l-.6,2.94-.21,1,0,0,4.39-3.9,5.09,2.65-.21-.47c-.26-.58-.52-1.15-.78-1.72-.41-.93-.81-1.87-1.23-2.81a.2.2,0,0,1,0-.28L33,17.65l1.41-1.41C34.82,15.85,35.23,15.48,35.63,15.1Z"/><path class="cls-2" d="M105.33,28.76V20.13l.13,0h2.44c.16,0,.19.06.22.21a16.79,16.79,0,0,0,.45,1.72,5.45,5.45,0,0,0,1,1.74,5.91,5.91,0,0,0,1.57,1.33,6.27,6.27,0,0,0,2.54.83,4.7,4.7,0,0,0,2.65-.36A2.81,2.81,0,0,0,118,23.49a2.17,2.17,0,0,0-.79-2,7,7,0,0,0-2.45-1c-1.39-.35-2.79-.65-4.17-1a12.28,12.28,0,0,1-2.12-.84,5.66,5.66,0,0,1-2.77-2.84A5.73,5.73,0,0,1,105.2,14a13,13,0,0,1-.08-1.49,7,7,0,0,1,.69-2.92A5.79,5.79,0,0,1,108.25,7a9.31,9.31,0,0,1,2.67-.94,15.47,15.47,0,0,1,1.61-.19c.29,0,.59,0,.88,0a8.58,8.58,0,0,1,3.32.55,11.38,11.38,0,0,1,2.57,1.35l.53-1.53h2.49v8.09h-2.76a6.2,6.2,0,0,0-1.24-3.08,5.69,5.69,0,0,0-3.52-2.19,4.9,4.9,0,0,0-.95-.12,4.08,4.08,0,0,0-2.43.62,2.17,2.17,0,0,0-.93,1.57,3.78,3.78,0,0,0,0,1.15,1.81,1.81,0,0,0,1,1.14,10.06,10.06,0,0,0,2.55.85,43,43,0,0,1,4.22,1.11A9.29,9.29,0,0,1,121,16.8a5.58,5.58,0,0,1,1.78,2.42,7.71,7.71,0,0,1,.46,2.3,8,8,0,0,1-.45,3.26,5.71,5.71,0,0,1-1,1.73,7,7,0,0,1-3.92,2.25A13.28,13.28,0,0,1,116,29a11.57,11.57,0,0,1-1.68,0,11,11,0,0,1-3.68-.79,8.16,8.16,0,0,1-1.95-1.14c-.11-.09-.16-.05-.21.05l-.59,1.36c-.06.14-.12.23-.31.23-.69,0-1.39,0-2.09,0Z"/><path class="cls-2" d="M73.72,15.48c.19-.27.38-.55.58-.82A5.36,5.36,0,0,1,76.17,13a4.34,4.34,0,0,1,1.7-.49,12.46,12.46,0,0,1,1.59,0,3.78,3.78,0,0,1,2.72,1.25,4.72,4.72,0,0,1,1,2.22,11.63,11.63,0,0,1,.18,2.36q0,3.07,0,6.15a1.65,1.65,0,0,0,.21.92.78.78,0,0,0,.67.37h1.32v2.64H76.75V25.75h.7a.84.84,0,0,0,.92-.89c0-2.19.05-4.37,0-6.56a4,4,0,0,0-.35-1.89,1.7,1.7,0,0,0-1.34-.92,2.49,2.49,0,0,0-1.21.06,2,2,0,0,0-1.1.92,2.93,2.93,0,0,0-.47,1.48q0,2.61,0,5.23c0,.36,0,.73,0,1.09a2.55,2.55,0,0,0,.17,1,.77.77,0,0,0,.7.44c.26,0,.52,0,.78,0,.06,0,.16.09.16.14,0,.83,0,1.65,0,2.49h-9V25.75H68a.86.86,0,0,0,.9-.85c0-.51,0-1,0-1.54q0-6.46,0-12.92a1.31,1.31,0,0,0-.32-1,.79.79,0,0,0-.57-.22H66.85c-.11,0-.19,0-.19-.15,0-.83,0-1.65,0-2.49h7v8.92Z"/><path class="cls-2" d="M50.11,28.39c0-.93,0-1.84,0-2.75,0-.15.08-.17.2-.16.58,0,1.15,0,1.73,0a1.05,1.05,0,0,0,1-.79,1.51,1.51,0,0,0,.05-.39q0-7.3,0-14.6V9.47a4.34,4.34,0,0,0-1.5.14,3.22,3.22,0,0,0-2.14,1.67A4.32,4.32,0,0,0,49,12.84c-.07.68-.13,1.37-.19,2.06H46.08V6.55H65.8v8.35H63c0-.16,0-.32,0-.48a8.87,8.87,0,0,0-.44-2.66A3.24,3.24,0,0,0,61,9.9a3.69,3.69,0,0,0-1.39-.4l-.92-.06v.27q0,7.2,0,14.4a2.25,2.25,0,0,0,.18.82.9.9,0,0,0,.91.55h1.69c.12,0,.2,0,.2.16,0,.91,0,1.82,0,2.75Z"/><path class="cls-2" d="M150.74,22.78h1.64c0,.08,0,.16,0,.24,0,.63,0,1.26,0,1.89a5.77,5.77,0,0,1-.41,2.26,2.5,2.5,0,0,1-1.57,1.42,6.39,6.39,0,0,1-2,.31,4.68,4.68,0,0,1-1.88-.25A3.05,3.05,0,0,1,145,27.35c-.14-.24-.25-.5-.38-.75a6,6,0,0,1-2.05,1.77,4.94,4.94,0,0,1-1.71.48,6.7,6.7,0,0,1-3-.29,3.31,3.31,0,0,1-2.1-2.21,6.62,6.62,0,0,1-.28-1.72,5,5,0,0,1,.27-2,3.12,3.12,0,0,1,1.4-1.62,8.12,8.12,0,0,1,2.65-.85c.88-.17,1.77-.32,2.63-.55a2.37,2.37,0,0,0,1.64-1.2,2.76,2.76,0,0,0,.18-1.49,2.75,2.75,0,0,0-.47-1.41,2.25,2.25,0,0,0-1.44-.91,4.67,4.67,0,0,0-2.58.17c-.24.09-.47.22-.7.33v.07l.36.08a1.83,1.83,0,0,1,1.45,1.38,1.9,1.9,0,0,1-1.19,2.25,2.9,2.9,0,0,1-2.52-.14A2.18,2.18,0,0,1,136,16.85a3.5,3.5,0,0,1,.33-1.79,3.72,3.72,0,0,1,1.57-1.57,8.21,8.21,0,0,1,2.59-.84,16.55,16.55,0,0,1,3.54-.16,6.83,6.83,0,0,1,2.71.59,3.69,3.69,0,0,1,1.92,2,5.88,5.88,0,0,1,.44,2c0,1.18.08,2.36.09,3.53,0,1.41,0,2.83,0,4.24a3.9,3.9,0,0,0,0,.54.47.47,0,0,0,.44.38.75.75,0,0,0,.84-.6,9.62,9.62,0,0,0,.18-1.36C150.76,23.49,150.74,23.14,150.74,22.78Zm-6.48-1.94c-.67.3-1.32.56-1.95.87a6,6,0,0,0-1.15.69,2,2,0,0,0-.69,2,1.53,1.53,0,0,0,1.29,1.38A1.89,1.89,0,0,0,144,24.44a5.5,5.5,0,0,0,.22-1.28C144.28,22.39,144.26,21.61,144.26,20.84Z"/><path class="cls-2" d="M90.34,21.43c0,.48.05.92.12,1.35a8.82,8.82,0,0,0,.31,1.46A2.45,2.45,0,0,0,92.63,26,2.84,2.84,0,0,0,95,25.5a3.18,3.18,0,0,0,1.24-1.69c.06-.19.1-.38.15-.58H99.8c-.06.31-.1.61-.17.91a5.9,5.9,0,0,1-1,2,6.18,6.18,0,0,1-1.8,1.62,6.9,6.9,0,0,1-2.26.88,9.88,9.88,0,0,1-1.58.2,12.26,12.26,0,0,1-2-.09,6.62,6.62,0,0,1-3.32-1.36A6.18,6.18,0,0,1,86,25.24a7.57,7.57,0,0,1-.72-2.47,20.51,20.51,0,0,1-.17-2.38,9.36,9.36,0,0,1,.78-3.66,7,7,0,0,1,5.18-4.12,9,9,0,0,1,2.26-.12,7.06,7.06,0,0,1,2.29.55A6.59,6.59,0,0,1,98,14.81a7.35,7.35,0,0,1,1.25,2,9.65,9.65,0,0,1,.67,2.26c.07.43.12.86.16,1.3s0,.69.07,1.06Zm4.6-2.66c0-.61-.06-1.2-.14-1.79a2.28,2.28,0,0,0-.57-1.2,2.05,2.05,0,0,0-1.67-.65,2.08,2.08,0,0,0-1.82,1.22,5.41,5.41,0,0,0-.28,2.42Z"/><path class="cls-2" d="M125.17,15.62h-1.76c-.18,0-.24-.05-.24-.24,0-.8,0-1.6,0-2.41.28,0,.56-.06.82-.12a3.07,3.07,0,0,0,1.92-1.43A6.72,6.72,0,0,0,126.85,9c.12-.67.21-1.35.32-2a.22.22,0,0,1,.16-.14H130c.19,0,.16.13.16.24q0,2.23,0,4.46c0,.48,0,1,0,1.46h3.63v2.66h-3.63v.2c0,3,0,6,0,9a1,1,0,0,0,.81,1.06,1.15,1.15,0,0,0,1.39-.84,3.65,3.65,0,0,0,.18-1.07c0-1,0-2,0-3h2.39v.18c0,1.1,0,2.21,0,3.31a5.4,5.4,0,0,1-.52,2.25,3.71,3.71,0,0,1-2.5,2,8,8,0,0,1-2.62.21,4.44,4.44,0,0,1-2.47-.86,3.68,3.68,0,0,1-1.25-1.73,5.24,5.24,0,0,1-.35-1.74q0-4.35,0-8.69C125.17,15.8,125.17,15.72,125.17,15.62Z"/><path class="cls-2" d="M163.48,15a1.09,1.09,0,0,0-1-.37,2.7,2.7,0,0,0-2,1.85,5.23,5.23,0,0,0-.41,2.26c0,2,0,4,0,5.95a1.84,1.84,0,0,0,.1.55.8.8,0,0,0,.78.52h1.37V28.4h-9.46V25.75h1.31A.82.82,0,0,0,155,25a3,3,0,0,0,0-.59c0-2.54,0-5.09,0-7.63a2.29,2.29,0,0,0-.17-.71.66.66,0,0,0-.67-.42c-.46,0-.93,0-1.4,0V13h7v2.57l0,0c0-.08.09-.17.12-.25a5.53,5.53,0,0,1,1.16-1.86,3,3,0,0,1,3.88-.52,3.61,3.61,0,0,1,1.65,2.49,3.44,3.44,0,0,1-.5,2.69,2.14,2.14,0,0,1-2,1.05,2.19,2.19,0,0,1-1.81-.95,2.3,2.3,0,0,1-.3-1.76,1.87,1.87,0,0,1,.48-1A1.93,1.93,0,0,1,163.48,15Z"/></svg>