<?xml version="1.0" encoding="UTF-8"?>
<svg width="501px" height="80px" viewBox="0 0 501 80" version="1.1" xmlns="http://www.w3.org/2000/svg" xmlns:xlink="http://www.w3.org/1999/xlink">
    <title>logo-toronto</title>
    <g id="final-design" stroke="none" stroke-width="1" fill="none" fill-rule="evenodd">
        <g id="logo-toronto" transform="translate(0.900000, -0.000000)" fill-rule="nonzero">
            <path d="M45.2295409,80 L45.229,79.999 L10,80 L34.3512974,40 L10.0998004,-2.84217094e-14 L489.640719,9.09494702e-13 L465.289421,40 L489.540918,80 L45.2295409,80 Z" id="Combined-Shape" fill="#006ED2"></path>
            <polygon id="Path" fill="#006ED2" points="475.848303 40 500 80 494.710579 80 470.459082 40 494.710579 9.09494702e-13 500 9.09494702e-13"></polygon>
            <polygon id="Path-Copy-3" fill="#006ED2" transform="translate(14.770459, 40.000000) rotate(-180.000000) translate(-14.770459, -40.000000) " points="5.38922156 40 29.5409182 80 24.251497 80 1.71962688e-13 40 24.251497 1.36424205e-12 29.5409182 1.36424205e-12"></polygon>
            <g id="Group" transform="translate(61.000000, 23.000000)" fill="#FFFFFF">
                <path d="M200.998004,11.8 L200.0998,12 C197.904192,5.9 195.00998,2.9 190.419162,2.9 L188.323353,2.9 L188.323353,30 C188.323353,31.7 189.620758,32.9 193.812375,32.9 L193.812375,33.6 L176.347305,33.6 L176.347305,32.9 C180.538922,32.7 181.836327,31.7 181.836327,30 L181.836327,2.8 L179.740519,2.8 C175.249501,2.8 172.055888,5.8 170.05988,11.9 L169.161677,11.7 L170.05988,1.7 L200.0998,1.7 L200.998004,11.8 Z" id="Path"></path>
                <path d="M168.463074,2.5 C163.872255,3.2 163.073852,4.9 163.073852,9.3 L163.073852,34.3 L160.578842,34.3 L139.620758,7.2 L139.520958,7.2 L139.520958,25.9 C139.520958,30.3 140.518962,32.2 145.409182,32.8 L145.409182,33.5 L132.335329,33.5 L132.335329,32.8 C136.926148,32.1 138.023952,30.2 138.023952,25.9 L138.023952,7.5 C138.023952,4.8 136.626747,2.6 132.335329,2.5 L132.335329,1.8 L143.812375,1.8 L161.477046,24.8 L161.576846,24.8 L161.576846,9.3 C161.576846,4.9 160.279441,3.1 155.389222,2.5 L155.389222,1.8 L168.463074,1.8 L168.463074,2.5 Z" id="Path"></path>
                <path d="M32.2355289,11.8 L31.3373253,12 C29.1417166,5.9 26.247505,2.9 21.6566866,2.9 L19.5608782,2.9 L19.5608782,30 C19.5608782,31.7 20.8582834,32.9 25.0499002,32.9 L25.0499002,33.6 L7.58483034,33.6 L7.58483034,32.9 C11.7764471,32.7 13.0738523,31.7 13.0738523,30 L13.0738523,2.8 L10.9780439,2.8 C6.48702595,2.8 3.29341317,5.8 1.29740519,11.9 L0.399201597,11.7 L1.29740519,1.7 L31.3373253,1.7 L32.2355289,11.8 Z" id="Path"></path>
                <path d="M227.644711,17.8 C227.644711,6.8 224.251497,2.1 218.363273,2.1 C212.47505,2.1 209.081836,6.9 209.081836,17.8 C209.081836,28.9 212.47505,33.5 218.363273,33.5 C224.151697,33.4 227.644711,28.8 227.644711,17.8 Z M234.530938,17.6 C234.530938,27.6 226.946108,34.4 218.263473,34.4 C209.281437,34.4 201.996008,27.9 201.996008,17.8 C201.996008,7.8 209.481038,1.1 218.263473,1.1 C227.245509,1.1 234.530938,7.6 234.530938,17.6" id="Shape"></path>
                <path d="M125.249501,17.8 C125.249501,6.8 121.856287,2.1 115.968064,2.1 C110.07984,2.1 106.686627,6.8 106.686627,17.7 C106.686627,28.8 110.07984,33.4 115.968064,33.4 C121.756487,33.4 125.249501,28.8 125.249501,17.8 L125.249501,17.8 Z M132.135729,17.6 C132.135729,27.6 124.550898,34.4 115.868263,34.4 C106.886228,34.4 99.6007984,27.9 99.6007984,17.8 C99.6007984,7.8 107.085828,1.1 115.868263,1.1 C124.850299,1.1 132.135729,7.6 132.135729,17.6" id="Shape"></path>
                <path d="M89.5209581,9.9 C89.5209581,5.7 87.3253493,2.8 81.237525,2.8 L78.1437126,2.8 L78.1437126,17.5 L81.1377246,17.5 C86.8263473,17.5 89.5209581,14.6 89.5209581,9.9 L89.5209581,9.9 Z M103.892216,33.5 L92.7145709,33.5 C91.4171657,32.2 89.4211577,29.9 87.2255489,26.4 C82.7345309,19.3 81.9361277,18.5 79.241517,18.5 L78.243513,18.5 L78.243513,29.9 C78.243513,31.7 78.9421158,32.7 83.1337325,32.8 L83.1337325,33.5 L66.4670659,33.5 L66.4670659,32.8 C70.758483,32.7 71.4570858,31.6 71.4570858,29.9 L71.4570858,5.4 C71.4570858,3.7 70.8582834,2.6 66.4670659,2.5 L66.4670659,1.8 L82.1357285,1.8 C91.1177645,1.8 96.1077844,4.7 96.1077844,9.8 C96.1077844,13.6 92.5149701,17.1 85.8283433,18.2 L85.8283433,18.3 C88.4231537,18.8 90.2195609,20.1 92.6147705,23.4 L95.4091816,27.1 C98.4031936,31.1 100.399202,32.8 103.792415,32.8 L103.892216,33.5 Z" id="Shape"></path>
                <path d="M58.7824351,17.8 C58.7824351,6.8 55.3892216,2.1 49.500998,2.1 C43.6127745,2.1 40.2195609,6.9 40.2195609,17.8 C40.2195609,28.9 43.6127745,33.5 49.500998,33.5 C55.2894212,33.4 58.7824351,28.8 58.7824351,17.8 Z M65.6686627,17.6 C65.6686627,27.6 58.0838323,34.4 49.4011976,34.4 C40.4191617,34.4 33.1337325,27.9 33.1337325,17.8 C33.1337325,7.8 40.6187625,1.1 49.4011976,1.1 C58.3832335,1.1 65.6686627,7.6 65.6686627,17.6" id="Shape"></path>
                <path d="M311.676647,11.8 L310.778443,12 C308.582834,5.9 305.688623,2.9 301.097804,2.9 L299.001996,2.9 L299.001996,30 C299.001996,31.7 299.9002,32.9 304.191617,32.9 L304.191617,33.6 L287.025948,33.6 L287.025948,32.9 C291.217565,32.7 292.51497,31.7 292.51497,30 L292.51497,2.8 L290.419162,2.8 C285.928144,2.8 282.734531,5.8 280.738523,11.9 L279.840319,11.7 L280.738523,1.7 L310.778443,1.7 L311.676647,11.8 Z" id="Path"></path>
                <path d="M280.638723,24.6 C280.638723,30.4 275.648703,34.4 266.666667,34.4 C261.776447,34.4 258.283433,33.1 255.988024,32 L254.391218,33.9 L253.892216,33.9 L252.894212,23.3 L253.692615,23.1 C256.786427,30.2 259.98004,33.4 266.766467,33.4 C271.856287,33.4 275.249501,30.5 275.249501,27 C275.249501,23.6 273.453094,22 267.165669,19.9 L262.674651,18.4 C257.884232,16.8 253.992016,14.2 253.992016,9.2 C253.992016,3.6 259.081836,1 266.167665,1 C270.459082,1 273.652695,2.3 275.449102,3.4 L276.546906,1.7 L277.145709,1.7 L278.043912,11.8 L277.145709,12 C275.0499,5.7 271.856287,2.1 266.167665,2.1 C261.876248,2.1 259.481038,4.4 259.481038,7.1 C259.481038,10.3 261.876248,11.5 266.167665,12.8 L271.457086,14.5 C276.646707,16.3 280.638723,19.1 280.638723,24.6" id="Path"></path>
                <path d="M365.369261,9.9 C365.369261,5.7 363.173653,2.8 357.085828,2.8 L353.992016,2.8 L353.992016,17.5 L356.986028,17.5 C362.674651,17.5 365.369261,14.6 365.369261,9.9 L365.369261,9.9 Z M379.740519,33.5 L368.562874,33.5 C367.265469,32.2 365.269461,29.9 363.073852,26.4 C358.582834,19.3 357.784431,18.5 355.08982,18.5 L354.091816,18.5 L354.091816,29.9 C354.091816,31.7 354.790419,32.7 358.982036,32.8 L358.982036,33.5 L342.51497,33.5 L342.51497,32.8 C346.806387,32.7 347.50499,31.6 347.50499,29.9 L347.50499,5.4 C347.50499,3.7 346.906188,2.6 342.51497,2.5 L342.51497,1.8 L358.183633,1.8 C367.165669,1.8 372.155689,4.7 372.155689,9.8 C372.155689,13.6 368.562874,17.1 361.876248,18.2 L361.876248,18.3 C364.471058,18.8 366.267465,20.1 368.662675,23.4 L371.457086,27.1 C374.451098,31.1 376.447106,32.8 379.840319,32.8 L379.740519,33.5 Z" id="Shape"></path>
                <path d="M327.045908,20.8 L321.956088,6.8 L321.756487,6.8 L316.467066,20.8 L327.045908,20.8 Z M342.51497,33.5 L326.047904,33.5 L326.047904,32.8 C329.441118,32.6 330.538922,32.1 330.538922,30.9 C330.538922,30.4 330.339321,29.9 330.139721,29.2 L327.345309,21.8 L316.067864,21.8 L314.670659,25.4 C313.872255,27.3 313.572854,28.8 313.572854,29.8 C313.572854,31.7 314.770459,32.5 317.56487,32.9 L317.56487,33.6 L306.586826,33.6 L306.586826,32.9 C309.780439,32.3 311.477046,30.4 313.473054,25.5 L323.153693,0.9 L326.347305,0.9 L336.826347,28.6 C337.924152,31.4 338.822355,32.4 342.51497,32.9 L342.51497,33.5 Z" id="Shape"></path>
            </g>
        </g>
    </g>
</svg>