<svg id="Layer_1" data-name="Layer 1" xmlns="http://www.w3.org/2000/svg" xmlns:xlink="http://www.w3.org/1999/xlink" viewBox="0 0 957.1 380.84"><defs><style>.cls-1{fill:none;}.cls-2{fill:#3a2e94;}.cls-3{clip-path:url(#clip-path);}.cls-4{fill:#6fbc85;}.cls-5{fill:#009767;}.cls-6{clip-path:url(#clip-path-10);}.cls-7{fill:#4a4a49;}.cls-8{fill:#fff;}.cls-9{fill:#fd0;}</style><clipPath id="clip-path"><rect class="cls-1" x="769.22" width="182.91" height="181.64"/></clipPath><clipPath id="clip-path-10"><rect class="cls-1" x="769.22" width="182.91" height="181.19"/></clipPath></defs><path class="cls-2" d="M130.05,50.44c84,0,140,19.54,140,91.67,0,80-65,100.52-152.36,100.52H106.8V362.69h59.33v13.5H0v-13.5H35.6V63.93H0V50.43H130.05ZM106.8,229.13h17.09c51.26,0,69.77-25.59,69.77-86.09,0-61.43-19-79.11-66.93-79.11H106.8Z"/><path class="cls-2" d="M381.15,150c73.1,0,113,36.3,113,113.08,0,74.46-38.92,117.73-114.87,117.73-75,0-114.87-41.88-114.87-114.48C264.38,191,308.52,150,381.15,150Zm-.95,11.17c-38.92,0-45.09,39.09-45.09,103.31,0,64.68,6.64,105.17,45.09,105.17,36.55,0,43.19-33.51,43.19-106.1C423.39,200.75,416.75,161.19,380.2,161.19Z"/><path class="cls-2" d="M508.83,300.33h10.92c10.44,48.4,40.82,65.61,79.27,65.61,36.55,0,51.26-14,51.26-34,0-25.59-25.16-30.25-59.33-38.16-38-8.38-80.22-19.08-80.22-69.34C510.73,181.19,543,150,591.9,150c20.41,0,33.7,4.65,47.47,10.7,4.27,1.86,8.54,3.72,13.29,3.72,5.69,0,7.59-4.65,9.49-15.36h9.49v70.27H661.2C648.38,180.72,626.08,163,592.85,163c-29.43,0-46.52,11.17-46.52,29.78,0,24.66,27.53,29.78,59.33,36.76,37.5,8.84,79.27,20.48,79.27,75.39,0,47.47-32.27,75.85-85.91,75.85-24.68,0-42.72-5.58-59.81-14.43-2.85-1.86-6.17-3.72-8.07-3.72-5.22,0-8.07,3.72-12.34,18.15h-10Z"/><path class="cls-2" d="M710.56,166.78H679.7v-12.1h30.85v-60L778,77.9v76.78h63.61v12.1H778V319.41c0,26.52,5.22,40,26.11,40,22.78,0,35.6-18.15,39.87-49.79l10.92,1.4c-4.27,36.3-19,69.8-73.1,69.8-41.29,0-71.2-13.49-71.2-63.29V166.78Z"/><path class="cls-2" d="M281.43,92.59h-9.74V77.31l-9.8-25.82h11l3.75,15.85h.17l3.7-15.85h10.58L281.44,77V92.59Z"/><path class="cls-2" d="M290.1,72.1c0-14.06,4.26-21.39,13.94-21.39,10.36,0,13,7.17,13,20.61,0,14.56-3.81,22-13.89,22S290.1,85.93,290.1,72.1Zm16.52-.39c0-10.3-.95-12.32-2.91-12.32-2.18,0-3.19,2.24-3.19,12.6,0,11,.78,13.05,3,13.05S306.62,82.74,306.62,71.71Z"/><path class="cls-2" d="M329.63,92.59h-10V51.49h10.25c8.68,0,14,2.58,14,11.93,0,4.42-1.12,8.46-4.65,10.7l6.27,18.48H335l-4.7-16.46h-.62Zm.9-24.52c2,0,3.3-.9,3.3-3.92,0-3.25-1.51-3.86-2.86-3.86h-1.34v7.78Z"/><path class="cls-2" d="M357.18,67l8-15.46h10.75l-10,15.57,9.74,25.54H364.85l-5.43-16.07-2.24,3.53V92.6h-10V51.5h10V67Z"/><path class="cls-2" d="M390.16,65.15c.06-4.59-.78-6.05-2.41-6.05-1.34,0-1.9.95-1.9,2.13,0,2.69,1.85,4,4.59,5.65,4.42,2.58,10.36,5.66,10.36,13.61,0,8.79-5.21,12.77-12.38,12.77-9.18,0-12.71-4.76-12.94-13.5l10.25-1.12c.06,5.38,1.34,6.44,3.25,6.44,1.23,0,1.85-.78,1.85-2.63,0-3-2.69-4.48-5.88-6.22-4.37-2.47-9.46-5.32-9.46-13.16,0-8,5.32-12.38,13.1-12.38s11.31,4.42,11.26,13.5Z"/><path class="cls-2" d="M428.46,92.59h-10V76.52H412.9V92.59h-10V51.49h10V67.23h5.54V51.49h10Z"/><path class="cls-2" d="M444.53,85.26h3.58V92.6H431V85.26h3.58V58.83H431V51.49h17v7.34h-3.53V85.26Z"/><path class="cls-2" d="M460.43,92.59h-10V51.49h10.25c8.68,0,14,2.58,14,11.93,0,4.42-1.12,8.46-4.65,10.7l6.27,18.48H465.75l-4.7-16.46h-.62Zm.89-24.52c2,0,3.3-.9,3.3-3.92,0-3.25-1.51-3.86-2.86-3.86h-1.34v7.78Z"/><path class="cls-2" d="M497.5,76H488V83.8h11.65v8.79H478V51.49h20.66v8.79H488v7.17h9.52V76Z"/><path class="cls-2" d="M529,76H519.5V83.8h11.65v8.79H509.48V51.49h20.66v8.79H519.5v7.17H529Z"/><path class="cls-2" d="M562.05,51.49l-8.34,41.1H540.89l-9-41.1h10.81l4.31,30h.34l4.26-30Z"/><path class="cls-2" d="M583.22,76H573.7V83.8h11.65v8.79H563.68V51.49h20.66v8.79H573.7v7.17h9.52V76Z"/><path class="cls-2" d="M604.1,92.59l-6.66-21.73h-.17V92.59h-9.46V51.49h11.48l6,21.39h.22V51.49h9.41v41.1Z"/><path class="cls-2" d="M631,85.26h3.58V92.6H617.41V85.26H621V58.83h-3.53V51.49h17v7.34H631V85.26Z"/><path class="cls-2" d="M653.21,92.59l-6.66-21.73h-.17V92.59h-9.46V51.49H648.4l6,21.39h.22V51.49H664v41.1Z"/><path class="cls-2" d="M681.15,71.82h12V92.76h-7.28l-.5-3.08a8.31,8.31,0,0,1-7.11,3.58c-8.51,0-11.59-6.89-11.59-21.28C666.65,58,671,50.7,681.16,50.7c8.12,0,11.42,5.15,11.37,15.18l-9.8.78c-.06-6.16-.5-7.56-2.41-7.56-2.35,0-3.25,3.08-3.25,12.88,0,11.82,1.57,13.38,4,13.38,1.45,0,2.74-.73,3.08-3.92v-1.9h-3V71.82Z"/><g class="cls-3"><path class="cls-4" d="M891.87,31.62C896.14,33,895.8,24,900,22.53c.21-8.3,2-14.57-.49-22.53-3.79,7.65-8.62,8.58-13.18,17.13,1.06,2,2.51,13.54,5.53,14.49"/></g><g class="cls-3"><path class="cls-5" d="M904.85,22.58c.21-8.12-2.92-14.78-5.34-22.58-.87,7.73-4.49,22.55-8.44,31.59,3.87.41,6.91-8.79,13.78-9"/></g><g class="cls-3"><path class="cls-4" d="M929.2,101.64c-.36,2.52,3.68,2.54,5.94,6.37,8.17-1.46,14.68-.94,22-5-8.25-2.17-9.75-6.63-19.05-9.38-1.73,1.45-8.4,4.89-8.85,8"/></g><g class="cls-3"><path class="cls-5" d="M936.06,112.77c8-1.43,13.89-5.84,21-9.77A101.51,101.51,0,0,1,929,101.26c.38,3.85,3.65,3.44,7.11,11.51"/></g><g class="cls-3"><path class="cls-5" d="M858.57,153.29c-4.47,0-2.17,3.91-5.77,6.53,2.25,8,2.37,14.52,7.13,21.37,1.36-8.42,5.65-10.35,7.48-19.87-1.6-1.59-5.68-8-8.84-8"/></g><g class="cls-3"><path class="cls-4" d="M847.7,159.55c2.2,7.82,7.62,14.9,12.23,21.63a101.57,101.57,0,0,1-1-28.19c-3.79.76-8.08,4.28-11.22,6.56"/></g><g class="cls-3"><path class="cls-4" d="M797.91,102.2c-.8-4.4-5.74-1.18-9-4.25-7.45,3.67-13.84,5-19.72,10.9,8.53-.2,11.21,3.67,20.9,3.74,1.27-1.87,8.36-7.28,7.79-10.39"/></g><g class="cls-3"><path class="cls-5" d="M786.74,93.64c-7.29,3.59-11.73,9.46-17.52,15.22,7.25-2.82,24.66-8.25,29-6.36-1.43-3.6-8.7-6.19-11.52-8.86"/></g><g class="cls-3"><path class="cls-4" d="M822.6,40.48c3.51-2.78-2.18-6.47-1-10.75-6.74-4.85-10.9-9.87-18.9-12.27,4.19,7.43,2,11.62,6.54,20.2,2.25.24,10.88,4.78,13.36,2.82"/></g><g class="cls-6"><path class="cls-5" d="M825.89,26.43c-6.6-4.74-15.37-6.58-23.18-9,5.9,5.07,14.54,15.12,19.79,23.47,2.5-3,2.35-10.75,3.39-14.5"/></g><g class="cls-6"><path class="cls-7" d="M941.37,51c.87-19.37-17.38-18.69-26.22-29.11-8.3-9.77-17.06-2.3-22,4.48-1.72-9.87-8.67-13.75-14.13-16.94-7.35-4.3-26-11.13-32.15-2.31-5.3,7.6-14.1,9-20.69,15.05-2.71,2.5-6.18,10.88-6,15.19-4.62-2.13-9.68-2.46-15.19-2-8.55.68-17,6-16.68,8.16.59,3.65,5.87,7.51.56,16.74-5.07,8.82-8.81,19.11-6.33,28.39a23.34,23.34,0,0,0,7.88,11.93,10,10,0,0,0,3.42,1.63,26.79,26.79,0,0,0-5.72,24.58c4.39,15.12,21.31,13.57,29.88,24.42,8.76,11.09,21.49,14.89,34.21,9.4a33.79,33.79,0,0,0,6.56-3.66c2.14,5.18,6.85,8.34,10.68,8.63,9,.69,19.59-8.63,28-8.79,6-.11,18.9,1.4,23.12-.66,5.45-2.65,7.68-19.17,12.22-21.54,8.75-4.56,8-15.4,7.22-19.5-.91-4.7-3.78-9.44-7-13.07,8.11-3.39,14.47-11.78,15.2-13.29,6-12.26-7.36-24.94-6.79-37.71"/></g><g class="cls-3"><path class="cls-8" d="M906.27,84.61c-.13,0-.31.08-.35.18-.19.48.82.25,1,.18a13,13,0,0,0,1.68-.81,12,12,0,0,0,1.54-1.11c.18-.15,1.22-1.33,1.36-1.3a9,9,0,0,1,3.69,1.41c11.29,8.36-4,16.34-6.17,25.23-5.5,22.49-30.86,8.23-30,3.84.17-.16.37-.31.52-.48a11.83,11.83,0,0,0,1.69-2.32c2.51-4.39,4.52-3.19,6.74-4.19,3.14-1.41,5.26-3.8,7.28-6.58s3.8-5.94,4.11-9.38c.3-3.25-1-4.75-2.34-6.93,3-10.5.33-28.36-15.66-28.13a29,29,0,0,1-3.44-.15c.26-7.93,3.58-27.25,23.11-8.14,7.74,7.57,9.62,2,11.38,13.85a36.36,36.36,0,0,1,.19,6.92,45.22,45.22,0,0,1-1.33,9.55c-.71,2.71-1.77,5.64-3.89,7.58a4.9,4.9,0,0,1-1,.75l-.13,0"/></g><g class="cls-3"><path class="cls-8" d="M872.25,134.71c-9.72,4.67-16.49-6.52-26.79-7.09-8.3-.46-18.08-5.36-16.06-15.35,1.5-7.41,4.77-13.41,10.62-15.68-2.9-.54-7.34,1.66-10.19,4.32-5.09-1.3-26.63-16.32-22-25.47s16-6.07,19.69-15.3c1.06-2.69,4.22-8.24,7.7-7.9,1,2.55,4.07,8.12,5.78,8a13.15,13.15,0,0,1-2.49-5.67c-.22-1.72-.39-3.44-.56-5.23-.86-8.78,5.63-14.74,14.08-15.12,7.42-.33,10.14-.48,16.58-4.38,6.09-3.68,7.63,4.16,11.23,7.17-2.54,4.85-3.17,12-2.74,17-8.15-1-12.18-5.26-17.09-5.35-3.41-.06-6.59,2.28-9,4.47a33.89,33.89,0,0,0-2.88,3c-.5.58-1,1.18-1.46,1.79-.13.17-.68.91-.1.81.39-.07.71-.61,1-.86.44-.4.9-.8,1.37-1.17a23.22,23.22,0,0,1,2.87-1.93,19.54,19.54,0,0,1,5.81-2.23,15.52,15.52,0,0,1,2.05-.26c8.37-.42,10.7,6.73,25.58,6.48,19.28-.31,7.08,31.5,4.75,30.94,2.94.71,5.44-2.32,6.85-6.86.8,3.41-.32,6.94-2.17,10s-4.17,7.23-7.26,8.9c-1.81,1-3.87.48-5.75,1.47-2.51,1.31-3.81,4.16-6.27,5.53a20.36,20.36,0,0,1-7.76,2.08c-6.83.4-14.25-1.33-19-6.69-1.78-2-3.45-5.44-4.74-8.72,5.16,5.53,11.21,7.46,14.27,1-6.36,5.9-17.37-9.79-18.36-12.63C836,72.75,844,59,854.87,61.3,836.51,57.31,832,71.37,837,84.12a36.8,36.8,0,0,0,3.68,7.08c-.49,6.8,4.52,22,18.15,24.29a39.86,39.86,0,0,0,9.93.45,24.79,24.79,0,0,0,6.25-1.42,21.31,21.31,0,0,0,6.34,5.91c.32,5.33.24,9.81-9.09,14.28"/></g><g class="cls-3"><path class="cls-8" d="M787.3,88.54C779.19,73,798.82,62,794.31,46c4.1-7.18,19.89-5.34,23.84-4.06,4.29,1.39,8.65,2.69,12,6.47a36.46,36.46,0,0,0-4.21-7c-.79-4.12.63-12.54,4.69-16,6.73-5.69,13.66-8.61,19.08-15.89,4.2-5.65,19.43.14,25.66,3.88s13.4,10.55,12.45,18.29a7.67,7.67,0,0,0-6.42,3c-.34-1.66-1.84-2.75-3.2-4.55-1.87-2.48-3.71-5.61-7.43-5.22-6.59.68-9.64,4.8-16.86,3.94-7.77-.92-16.75,4.58-19.74,11.47-1,2.35-.65,4.83-.07,7.34-4.24-.23-8.38,3.44-9.68,7.38-2.93,8.84-10.66,5.28-16.13,12.44-7.7,10.09-2.6,20.65,4.48,28.42-4.73,4.09-19,5.1-25.47-7.34"/></g><g class="cls-3"><path class="cls-8" d="M849,155.3c-14.72,6.42-22.1.56-31.67-10-7.61-8.38-20.91-6.86-24.42-19-2.32-8,2.08-15.66,9-22.84,5.88.35,12.46-.31,16.42-2.37a48.9,48.9,0,0,0,8.12,5.62,29.52,29.52,0,0,0-1.19,10.13c.81,12,11.47,16.87,22.37,16.83,6.87,0,10.42,3.83,14.95,5.84,0,8-5.69,12.33-13.53,15.75"/></g><g class="cls-3"><path class="cls-8" d="M927.66,132.45c-6.32,4.35-7.45,14.59-9.58,16.85C912,155.8,903,151.63,895.15,153c-8.31,1.41-16.45,7.36-26.09,6.54-2.85-.24-4.64-3.41-5.55-7.41a18,18,0,0,0,2.89-11.46,16.56,16.56,0,0,0,8.35-1.48c11.65-4.83,11-13.82,10.82-16.08l-.49-.5c7.1,3.5,15.65,5,19.89,1.74,6.21-4.79,7.61-15.28,12.29-21.58l.47-.66c8.9-1.17,15.94,6.54,18,13,1.48,4.56-1.72,13-8.1,17.4"/></g><g class="cls-3"><path class="cls-8" d="M942.59,85.64a29.58,29.58,0,0,1-16,11.34,13.58,13.58,0,0,0-5.13-1.41c2.63-6.26,2.49-12.74-4-17.35a5.7,5.7,0,0,0-2.87-1.11,20.94,20.94,0,0,0,2.2-10.81c-.57-5.15-.66-9.79-1.57-14.88-1.22-6.82-8.82-7-13.12-11.25a42.49,42.49,0,0,0-7.25-6c3.25-5.59,10.21-15.73,21.75-5.35,9.43,8.48,19,8.08,19.85,22.75.61,9.73,11.79,25.21,6.15,34"/></g><g class="cls-3"><path class="cls-7" d="M866.83,67.87a2.52,2.52,0,0,0-1.89,0,9.58,9.58,0,0,0-2.25,1.95c-.23.22-2,.4-2.48.71-1.2.73-1.74,1.79-2.68,2.69-1.15,1.1-2.3,2.19-2.35,3.88,0,.35.18.58.09,1s-.45.58-.51.85c-.19.94.28,2.06.21,3.06,0,.58.15.62.52,1.13A4,4,0,0,1,856,85.2c.12.83.78.8,1,1.5.13.4-.09.79.26,1.13s.87.35,1.21.59c.5.35.91.85,1.4,1.23a18,18,0,0,0,3.53,2.08c1.83.83,3.86,2,6,1.4.28-.07.44-.46.69-.49s.48.18.75.17a3.37,3.37,0,0,0,1.66-.23c.47-.2.92-.64,1.41-.8.66-.23,1.23,0,1.85-.15.91-.28,1.78-2.31,2.84-1.65.75-.61.42-1.72,1-2.39.26-.31.72-.42,1-.8a11.12,11.12,0,0,0,1.09-9.15c-.48-1.38-2.1-3.28-2.92-4.54A9.25,9.25,0,0,0,876,70c-.53-.27-1.08,0-1.61-.22-.7-.25-1.09-1.2-1.9-1.38-.24,0-.44.12-.7.07a2,2,0,0,1-.86-.41,2.41,2.41,0,0,0-1.5-.55c-.7.08-.95.55-1.76.48a6,6,0,0,1-.82-.16"/></g><g class="cls-3"><path class="cls-9" d="M877.33,86.94a10.79,10.79,0,0,1-4.12,3,22.57,22.57,0,0,1-2.41.65,13.92,13.92,0,0,1-2.13.77c-.75.07-1.19-.53-1.9-.57s-1,.51-1.75,0c-.37-.24-.29-.69-.6-.94s-.67-.2-1-.36A18.37,18.37,0,0,1,861,88.21c-1.6-1.08-2.11-2.21-3.13-3.74a7.09,7.09,0,0,1-.7-5.41c.45-1.42,1.39-5.09,3-5.8.64-.28,1,.08,1.42-.13s.5-.63.8-.88a2.31,2.31,0,0,1,1.49-.52,1.58,1.58,0,0,0,1.46-.65,3.61,3.61,0,0,1,2.36-.9,8.63,8.63,0,0,1,3.93.72c7.48,2.67,10.81,9.87,5.63,16"/></g></svg>