<?xml version="1.0" encoding="utf-8"?>
<!-- Generator: Adobe Illustrator 24.0.3, SVG Export Plug-In . SVG Version: 6.00 Build 0)  -->
<svg version="1.1" id="Layer_1" xmlns="http://www.w3.org/2000/svg" xmlns:xlink="http://www.w3.org/1999/xlink" x="0px" y="0px"
	 viewBox="0 0 150 34" style="enable-background:new 0 0 150 34;" xml:space="preserve">
<style type="text/css">
	.st0{fill:#C86568;}
</style>
<g>
	<g>
		<path d="M0.03,8.38h6.72c1.28,0,2.36,0.18,3.26,0.52c0.9,0.35,1.61,0.79,2.16,1.32c0.55,0.53,0.95,1.12,1.2,1.76
			c0.26,0.64,0.38,1.24,0.38,1.83c0,1.14-0.28,2.16-0.84,3.04c-0.56,0.89-1.41,1.59-2.57,2.11l4.69,7.62h-4.32L6.6,19.41H3.71v7.18
			H0.03V8.38z M6.78,16.57c0.97,0,1.73-0.25,2.27-0.76c0.53-0.51,0.81-1.13,0.81-1.86c0-0.78-0.28-1.42-0.85-1.91
			C8.44,11.55,7.7,11.3,6.78,11.3H3.71v5.27H6.78z"/>
		<path d="M20.68,8.38h11.8v3.03h-8.36v4.29h6.15v3.06h-6.15v4.75h8.98v3.09H20.68V8.38z"/>
		<path d="M44.18,8.38h3.55l6.91,18.22h-3.83l-1.58-4.61h-6.77l-1.58,4.61h-3.6L44.18,8.38z M48.24,19.14l-2.4-7.07l-2.43,7.07
			H48.24z"/>
		<path d="M75.01,23.27c-0.28,0.42-0.65,0.84-1.14,1.28c-0.49,0.43-1.05,0.84-1.71,1.22s-1.38,0.68-2.16,0.92s-1.61,0.35-2.49,0.35
			c-1.36,0-2.61-0.24-3.74-0.71c-1.13-0.48-2.1-1.14-2.92-1.98s-1.46-1.84-1.91-2.99c-0.46-1.15-0.69-2.4-0.69-3.77
			c0-1.33,0.22-2.57,0.69-3.74c0.46-1.16,1.1-2.19,1.92-3.06c0.83-0.88,1.81-1.56,2.97-2.07c1.15-0.51,2.41-0.76,3.8-0.76
			c0.89,0,1.71,0.09,2.46,0.29c0.75,0.19,1.43,0.45,2.04,0.78c0.61,0.32,1.15,0.72,1.62,1.16s0.89,0.93,1.25,1.43l-2.43,2.16
			c-0.58-0.84-1.26-1.51-2.04-2.02c-0.78-0.51-1.75-0.76-2.91-0.76c-0.89,0-1.69,0.18-2.4,0.53c-0.71,0.36-1.31,0.83-1.81,1.42
			s-0.88,1.28-1.15,2.07c-0.26,0.79-0.4,1.62-0.4,2.5s0.13,1.69,0.4,2.46c0.26,0.77,0.64,1.43,1.13,2c0.49,0.56,1.08,1.01,1.76,1.34
			c0.68,0.33,1.45,0.49,2.31,0.49c0.79,0,1.45-0.09,2.01-0.27c0.56-0.18,1.03-0.41,1.42-0.68c0.39-0.27,0.72-0.56,0.99-0.86
			s0.5-0.56,0.72-0.78L75.01,23.27z"/>
		<path d="M85.18,11.41H79V8.38h15.79v3.03h-6.18v15.19h-3.44L85.18,11.41L85.18,11.41z"/>
		<path d="M100.06,8.38h3.44V26.6h-3.44V8.38z"/>
		<path d="M118.82,27.09c-1.33,0-2.57-0.25-3.71-0.75s-2.15-1.19-3-2.06c-0.86-0.88-1.53-1.9-2.02-3.06s-0.74-2.41-0.74-3.74
			c0-1.33,0.25-2.57,0.74-3.74c0.49-1.16,1.16-2.18,2.01-3.05c0.85-0.86,1.85-1.55,3-2.05s2.4-0.75,3.73-0.75s2.57,0.25,3.71,0.75
			c1.14,0.5,2.15,1.19,3,2.05c0.86,0.86,1.53,1.88,2.02,3.05s0.73,2.41,0.73,3.74c0,1.33-0.24,2.58-0.74,3.74
			c-0.49,1.17-1.17,2.18-2.02,3.06c-0.86,0.88-1.86,1.56-3,2.06C121.39,26.84,120.15,27.09,118.82,27.09z M118.82,23.84
			c0.89,0,1.7-0.17,2.43-0.52c0.73-0.34,1.35-0.81,1.86-1.4c0.51-0.59,0.9-1.28,1.18-2.06c0.28-0.78,0.41-1.6,0.41-2.46
			c0-0.88-0.14-1.7-0.41-2.47c-0.28-0.78-0.67-1.45-1.18-2.03c-0.51-0.58-1.13-1.04-1.86-1.38S119.71,11,118.82,11
			c-0.91,0-1.72,0.17-2.44,0.51s-1.33,0.8-1.85,1.38s-0.9,1.26-1.18,2.03s-0.41,1.6-0.41,2.47c0,0.85,0.14,1.67,0.41,2.46
			s0.67,1.47,1.18,2.06c0.51,0.59,1.12,1.06,1.85,1.41C117.1,23.67,117.92,23.84,118.82,23.84z"/>
		<path d="M134.15,8.38h3.47l8.82,12.94V8.38h3.36V26.6h-3.38l-8.9-13.11V26.6h-3.36L134.15,8.38L134.15,8.38z"/>
	</g>
	<rect y="30.48" class="st0" width="150" height="3.42"/>
</g>
</svg>
