<svg id="Layer_1" data-name="Layer 1" xmlns="http://www.w3.org/2000/svg" viewBox="0 0 694.2 145.19"><defs><style>.cls-1{fill:#017603;}.cls-2{fill:#222;}.cls-3{fill:#e53028;}</style></defs><title>spaldingtodayguardian</title><path class="cls-1" d="M129.21,139.06a12.28,12.28,0,0,1-10.15,4.47c-10.6,0-17-8.21-17-18.36,0-13.58,9.55-19,17.62-19,9.1,0,14.77,4.93,16.42,13.29h-10.6a5.31,5.31,0,0,0-5.23-4.48c-7.46,0-7.31,7.91-7.31,10.45,0,3.28,1.34,9.11,8.06,9.11a5.55,5.55,0,0,0,5.67-3.88H121.9v-7.62h14.62v19.56h-6.86Z" transform="translate(-74.19 -10.37)"/><path class="cls-1" d="M166.23,142.64h-9.55v-3.29h-.15a9.47,9.47,0,0,1-8.36,3.89,8.3,8.3,0,0,1-8.81-7.73,9.73,9.73,0,0,1,0-1.08V116.81h9.85V130.4c0,3,.3,5.07,3.29,5.07,1.79,0,3.88-.89,3.88-4.92V116.81h9.85v25.83Z" transform="translate(-74.19 -10.37)"/><path class="cls-1" d="M194.45,137a9.77,9.77,0,0,0,1.19,5.82H185.49a4.45,4.45,0,0,1-.3-2.39H185a10.45,10.45,0,0,1-8.36,3.13c-4.92,0-9.1-2.38-9.1-7.76,0-8.21,9.55-7.76,14.63-8.81,1.34-.3,2.68-.59,2.68-2.24s-1.64-2.38-3.28-2.38c-3,0-3.73,1.49-3.73,2.68h-9.11c.3-7.31,7.17-8.51,13.29-8.51,12.39,0,12.24,5.08,12.24,10.15l.15,10.31ZM185,131a16.46,16.46,0,0,1-3.88,1.2c-2.24.6-3.28,1-3.28,2.83a2.88,2.88,0,0,0,3.13,2.39,4,4,0,0,0,4.18-3.72v-.31Z" transform="translate(-74.19 -10.37)"/><path class="cls-1" d="M197.13,116.81h9.41V121h.15c1.64-3.13,3.73-4.77,7.31-4.77a9.41,9.41,0,0,1,2.84.44v8.66a11.88,11.88,0,0,0-3.88-.6c-3.88,0-6,2.24-6,7.77v10.3h-9.86v-26Z" transform="translate(-74.19 -10.37)"/><path class="cls-1" d="M244.9,142.64h-9.55V139.8h-.15c-1.19,1.64-2.84,3.44-7.61,3.44-7.32,0-10.9-7.17-10.9-13.74,0-6.12,2.39-13.43,11.05-13.43a8.45,8.45,0,0,1,7,3.43h.15V107.11h9.85ZM231,123.38c-3.58,0-4.33,3.28-4.33,6.42s.75,6.42,4.33,6.42,4.33-3.43,4.33-6.42S234.45,123.38,231,123.38Z" transform="translate(-74.19 -10.37)"/><path class="cls-1" d="M257.89,114H248v-6.87h9.85ZM248,116.81h9.85v25.83H248Z" transform="translate(-74.19 -10.37)"/><path class="cls-1" d="M286.25,137a9.85,9.85,0,0,0,1.2,5.82H277.3a4.45,4.45,0,0,1-.3-2.39h0a10.46,10.46,0,0,1-8.36,3.13c-4.93,0-9.11-2.38-9.11-7.76,0-8.21,9.56-7.76,14.63-8.81,1.35-.3,2.69-.59,2.69-2.24s-1.64-2.38-3.28-2.38c-3,0-3.74,1.49-3.74,2.68h-9.1c.3-7.31,7.16-8.51,13.28-8.51,12.39,0,12.24,5.08,12.24,10.15V137Zm-9.4-6a16.46,16.46,0,0,1-3.88,1.2c-2.24.6-3.29,1-3.29,2.83a2.9,2.9,0,0,0,3.14,2.39,3.94,3.94,0,0,0,4.17-3.72c0-.1,0-.21,0-.31Z" transform="translate(-74.19 -10.37)"/><path class="cls-1" d="M289.09,116.81h9.56v3.29h.14a9.44,9.44,0,0,1,8.36-3.88,8.28,8.28,0,0,1,8.81,7.72,6.49,6.49,0,0,1,0,1.08v17.77h-9.85V129.05c0-3-.3-5.07-3.28-5.07-1.8,0-3.89.89-3.89,4.92v13.74h-9.85V116.81Z" transform="translate(-74.19 -10.37)"/><path class="cls-2" d="M141.3,112.33l.45.45c.15.15.3.15.6.15h1a.53.53,0,0,0,.45-.15c.15,0,.3-.15.45-.3a.56.56,0,0,0,.15-.44.57.57,0,0,0-.15-.45c-.15-.15-.3-.15-.6-.3a4.74,4.74,0,0,0-.75-.15c-.29,0-.59-.15-.89-.15a2,2,0,0,1-.9-.3c-.3-.15-.59-.15-.74-.3s-.45-.3-.6-.59a1.1,1.1,0,0,1-.15-.75,2.09,2.09,0,0,1,.3-.9,1.49,1.49,0,0,1,.74-.59,2.09,2.09,0,0,1,.9-.3,2.48,2.48,0,0,1,1.05-.15,3.22,3.22,0,0,1,1.19.15c.45.15.75.15,1,.45a3.31,3.31,0,0,1,.75.59,1.79,1.79,0,0,1,.3,1h-1.79a.57.57,0,0,0-.15-.45c-.15-.15-.15-.3-.3-.3s-.3-.15-.45-.15h-1a.57.57,0,0,0-.45.15c-.15,0-.15.15-.3.3s-.15.15-.15.3,0,.3.15.3.15.15.3.15.49.11.75.15a4.41,4.41,0,0,1,1.19.29,1.24,1.24,0,0,1,.6.15,1.19,1.19,0,0,1,.74.3c.15.15.45.3.75.6a2,2,0,0,1,.3.9,2,2,0,0,1-.15.89,2.55,2.55,0,0,1-.6.75,8.81,8.81,0,0,1-1,.45,4.45,4.45,0,0,1-1.5.14,4.06,4.06,0,0,1-1.34-.14,8.81,8.81,0,0,1-1-.45,1.81,1.81,0,0,1-.75-.75,2.16,2.16,0,0,1-.3-1H141C141.15,112,141.15,112.18,141.3,112.33Z" transform="translate(-74.19 -10.37)"/><path class="cls-2" d="M150.56,107.41a3,3,0,0,1,1.19.15l.9.44a1.33,1.33,0,0,1,.45.75,1.3,1.3,0,0,1,.14.75,1.12,1.12,0,0,1-.14.74c-.15.3-.3.45-.45.75a2.54,2.54,0,0,1-.9.45,3,3,0,0,1-1.19.15h-1.79V114H147v-6.57Zm-.45,3.13h.6a.52.52,0,0,0,.44-.15c.15-.15.3-.15.3-.3a.88.88,0,0,0,.15-.59c0-.15,0-.45-.15-.45s-.15-.3-.3-.3-.29-.15-.44-.15h-1.94v1.94Z" transform="translate(-74.19 -10.37)"/><path class="cls-2" d="M157.42,107.41l3,6.57h-1.79l-.6-1.5h-3l-.6,1.5h-1.79l3-6.57Zm.15,4-1-2.39h0l-1.05,2.39Z" transform="translate(-74.19 -10.37)"/><path class="cls-2" d="M162.8,107.41v5.37h3.88V114H161v-6.57Z" transform="translate(-74.19 -10.37)"/><path class="cls-2" d="M171,107.41a4.7,4.7,0,0,1,1.49.15,3,3,0,0,1,1.2.59,2.76,2.76,0,0,1,.74,1,4.26,4.26,0,0,1,.3,1.49,4.12,4.12,0,0,1-.15,1.35,1.71,1.71,0,0,1-.74,1,3.33,3.33,0,0,1-1.2.75,5.72,5.72,0,0,1-1.64.3h-3.43v-6.72Zm-.15,5.37a1.39,1.39,0,0,0,.75-.15.73.73,0,0,0,.59-.3,1.72,1.72,0,0,0,.6-1.49,1.93,1.93,0,0,0-.15-.89,1.86,1.86,0,0,0-.45-.75,3.48,3.48,0,0,0-.74-.45,2.34,2.34,0,0,0-1.05-.15h-1.19v4.18Z" transform="translate(-74.19 -10.37)"/><path class="cls-2" d="M177.43,107.41V114h-1.79v-6.57Z" transform="translate(-74.19 -10.37)"/><path class="cls-2" d="M180.56,107.41l3.29,4.48h0v-4.48h1.64V114H183.7l-3.29-4.48h0V114h-1.64v-6.57Z" transform="translate(-74.19 -10.37)"/><path class="cls-2" d="M191.61,114a2.65,2.65,0,0,1-1.05.15,5.79,5.79,0,0,1-1.64-.3,3.3,3.3,0,0,1-1.19-.75,3.3,3.3,0,0,1-1-2.39,4.42,4.42,0,0,1,.3-1.34,2.71,2.71,0,0,1,.75-1,3.27,3.27,0,0,1,1.19-.74,5.16,5.16,0,0,1,1.64-.3,3.05,3.05,0,0,1,1.2.15,6.4,6.4,0,0,1,1,.45,1.73,1.73,0,0,1,.75.74,2.16,2.16,0,0,1,.3,1.05h-1.64a3.22,3.22,0,0,0-.6-.9,2.16,2.16,0,0,0-1.05-.3,2.31,2.31,0,0,0-1,.15,2.2,2.2,0,0,0-.6.45,1.19,1.19,0,0,0-.3.75,2,2,0,0,0-.15.89,1.23,1.23,0,0,0,.15.75c.15.15.15.45.3.74a.8.8,0,0,0,.6.45,2.07,2.07,0,0,0,1,.15,2.87,2.87,0,0,0,1.35-.3,2.47,2.47,0,0,0,.6-1h-1.8v-1H194V114H193l-.15-.75A5.43,5.43,0,0,1,191.61,114Z" transform="translate(-74.19 -10.37)"/><polygon class="cls-3" points="279.18 96.97 288.1 96.97 288.1 124.48 294.44 124.48 294.44 133.1 279.18 133.1 279.18 96.97"/><path class="cls-3" d="M418.06,115.05v7.86H417c-8.62,0-7.71,17.84.9,12.7v7.25c-20.25,7.86-20.25-30.69.15-27.81Z" transform="translate(-74.19 -10.37)"/><path class="cls-3" d="M429.55,122c-2.11,0-2.42,3.48-2.42,6.95s.16,7.41,2.27,7.41,2.42-3.93,2.42-7.41S431.82,122,429.55,122Zm0-7.26c7.86,0,10,7.11,10,14.21,0,8-2.57,14.82-10,14.82-8.92,0-10-8-10-15C419.58,122.45,421.69,114.74,429.55,114.74Z" transform="translate(-74.19 -10.37)"/><polygon class="cls-3" points="367.16 96.97 375.32 96.97 375.32 133.1 367.16 133.1 367.16 96.97"/><polygon class="cls-3" points="375.47 96.97 375.47 133.1 367.31 133.1 375.47 133.1 375.47 96.97"/><path class="cls-3" d="M489.57,116.11v6.8c-1.51-.91-7.11-2.42-7.11.75s7.11,2.12,8.17,6.35c1.66,6.2-1.21,12.7-8,13.76a12.74,12.74,0,0,1-8.46-1.21V135c1.81.91,8.77,3.33,8.77-.6,0-3.18-6.5-2.57-8-7A9.67,9.67,0,0,1,481,115.23a9.79,9.79,0,0,1,3.09-.49A10.39,10.39,0,0,1,489.57,116.11Z" transform="translate(-74.19 -10.37)"/><path class="cls-3" d="M492.74,107.49h8v10a5.82,5.82,0,0,1,4.69-2.42c5,0,6.8,5.44,7.11,9.67a156.39,156.39,0,0,1-.16,18.75h-8c.3-5.9.3-11.79.3-17.84,0-3.93-3.77-2.87-3.77-1.06v18.9h-8.17Z" transform="translate(-74.19 -10.37)"/><path class="cls-3" d="M452.08,115.35h8v2.12a5.81,5.81,0,0,1,4.69-2.42c5,0,6.8,5.44,7.1,9.67a154.34,154.34,0,0,1-.15,18.75h-8c.3-5.9.3-11.79.3-17.84,0-3.93-3.78-2.87-3.78-1.06v18.9h-8V115.35Z" transform="translate(-74.19 -10.37)"/><path class="cls-3" d="M381,115.35h8v2.12a5.81,5.81,0,0,1,4.69-2.42c5,0,6.8,5.44,7.1,9.67a154.34,154.34,0,0,1-.15,18.75h-8c.3-5.9.3-11.79.3-17.84,0-3.93-3.78-2.87-3.78-1.06v18.9h-8V115.35Z" transform="translate(-74.19 -10.37)"/><polygon class="cls-3" points="296.11 96.97 304.12 96.97 304.12 102.56 296.11 102.56 296.11 96.97"/><polygon class="cls-3" points="296.11 104.98 304.12 104.98 304.12 132.95 296.11 132.95 296.11 104.98"/><polygon class="cls-3" points="440.78 96.97 448.79 96.97 448.79 102.56 440.78 102.56 440.78 96.97"/><polygon class="cls-3" points="440.78 104.98 448.79 104.98 448.79 132.95 440.78 132.95 440.78 104.98"/><path class="cls-3" d="M525.7,115.35h12.54v5.9c-3.17,0-4.23,1.66-4.38,3.32v18.75h-8Z" transform="translate(-74.19 -10.37)"/><path class="cls-3" d="M548.83,121.7c-1.06,0-2.12,1.66-2.12,4.38,0,.15.15,1.21.15,1.21l3.93-1.21v-.75c-.15-.46-.45-3.63-2-3.63Zm9.22,8.31c-3.63,1.21-7.26,2.27-10.89,3.33,0,0-.15,5.44,7.86,2v7.26c-11.18,5-16.47-3.48-16.47-12.85,0-9.83,4.83-14.66,10.28-14.66a8.39,8.39,0,0,1,6.8,3.17c2.42,2.87,2.27,8,2.42,11.79Z" transform="translate(-74.19 -10.37)"/><path class="cls-2" d="M584.05,120.49h-4.38L581,115.2c1.05-4.08,2.87-6,4.68-6,.61,0,.91.3,1.06,1.36.15,1.51.76,2.42,2.27,2.42a2.43,2.43,0,0,0,2.42-2.44v-.13c0-2.12-1.82-3-3.78-3a10.77,10.77,0,0,0-10.43,8l-1.67,5h-4.23L570.9,122h4.23l-7.56,27.06c-.75,2.57-2.11,4.84-4.38,4.84-.61,0-.76-.15-.76-1.36,0-2.42-.45-3.63-1.81-3.63s-2.27.91-2.27,2.87c0,2.42,1.66,3.78,4.38,3.78,5.14,0,8.62-4.23,10.59-11.34l6.19-22.07h4.54v-1.66Z" transform="translate(-74.19 -10.37)"/><path class="cls-2" d="M589.34,132c1.06-4.23,2.42-8.32,2.42-10.58,0-1.21-.45-1.82-1.66-1.82-3.48,0-7.11,7.11-7.11,8,0,.46.15.61.45.61s.46-.45,2-2.72c.76-1.36,1.66-2.57,2.12-2.57a.4.4,0,0,1,.45.36v.09c0,2-5.44,19.2-5.44,19.8,0,.16.15.31.6.31h2.57c.91,0,.91-.31,1.06-.91,2.27-6.8,7.41-18.74,8.92-18.74.3,0,.3,0,.3.45s-.15,1.06-.15,1.66a1.27,1.27,0,0,0,1.17,1.36h.19c1.66,0,3-2.57,3-5.14,0-2-.76-2.72-1.82-2.72-3.48.15-6.35,6.5-9.07,12.55Z" transform="translate(-74.19 -10.37)"/><path class="cls-2" d="M613.83,123.21c0,3.78-1.81,8.47-9.67,9.22a28.61,28.61,0,0,1,3.47-8.31c1.51-2.57,3-3.18,4.23-3.18s2,.76,2,2.27Zm4.38,1.51c0-2.87-1.81-5.14-5.59-5.14-7.41,0-14.21,8.47-14.21,16.93,0,4.24,2.42,7.86,6.5,7.86,6.65,0,10.58-8.16,10.58-9.07,0-.3-.3-.45-.6-.45s-.3.61-2.27,3c-1.51,2-3.63,3.78-5.74,3.78s-3.18-1.66-3.18-5c.15-2,.15-2.72.46-2.72a49.41,49.41,0,0,0,7.25-1.21c3.78-1.51,6.8-3.93,6.8-8Z" transform="translate(-74.19 -10.37)"/><path class="cls-2" d="M633.63,123.21c0,3.78-1.81,8.47-9.67,9.22a28.64,28.64,0,0,1,3.48-8.31c1.51-2.57,3-3.18,4.23-3.18s2,.76,2,2.27Zm4.39,1.51c0-2.87-1.82-5.14-5.6-5.14-7.4,0-14.21,8.47-14.21,16.93,0,4.24,2.42,7.86,6.5,7.86,6.66,0,10.59-8.16,10.59-9.07,0-.3-.31-.45-.61-.45s-.3.61-2.27,3c-1.51,2-3.62,3.78-5.74,3.78s-3.17-1.66-3.17-5c.15-2,.15-2.72.45-2.72a49.41,49.41,0,0,0,7.25-1.21c3.78-1.51,6.81-3.93,6.81-8Z" transform="translate(-74.19 -10.37)"/><path class="cls-2" d="M652.23,121.25c-1.36.6-3.93,1.81-3.93,2.26s0,.91.15.91c.45,0,1.51-.91,3.48-1.51l-8.32,27.51c-.75,2.72-1.81,2.87-3,3s-2,.16-2,.91c0,.46.3.61.91.61,1.36,0,3-.15,4.84-.15,2.11,0,3.93.15,5.74.15.61,0,.76-.15.76-.61s-.76-.6-1.67-.75-1.66-.31-1.66-1.06c0-1.82,1.21-5,2.57-9.53a4.67,4.67,0,0,0,3.78,1.36c7,0,13.61-8.91,13.61-17.08,0-5.89-3.63-7.71-6.81-7.71a10.65,10.65,0,0,0-2.26.15c-.61.15-1.06.15-1.52.31.46-1.82,1.52-5.3,1.52-5.6s-.31-.3-1.82-.3c-2,0-2.11.15-2.27.6Zm4.08.15a7,7,0,0,1,2.57-.46c2.42,0,4.08,1.21,4.08,4.39,0,6-3.63,17.68-9.67,17.68a2.12,2.12,0,0,1-2.41-1.78,1.93,1.93,0,0,1,0-.48,23.08,23.08,0,0,1,1.06-4.24l4.38-15.11Z" transform="translate(-74.19 -10.37)"/><path class="cls-2" d="M676.11,132c1.06-4.23,2.42-8.32,2.42-10.58,0-1.21-.45-1.82-1.66-1.82-3.48,0-7.11,7.11-7.11,8,0,.46.15.61.46.61s.45-.45,2-2.72c.76-1.36,1.67-2.57,2.12-2.57a.4.4,0,0,1,.45.36.14.14,0,0,1,0,.09c0,2-5.44,19.2-5.44,19.8,0,.16.15.31.6.31h2.57c.91,0,.91-.31,1.06-.91,2.27-6.8,7.41-18.74,8.92-18.74.3,0,.3,0,.3.45s-.15,1.06-.15,1.66a1.27,1.27,0,0,0,1.18,1.36H684c1.67,0,3-2.57,3-5.14,0-2-.76-2.72-1.82-2.72-3.32.15-6.35,6.5-9.07,12.55Z" transform="translate(-74.19 -10.37)"/><path class="cls-2" d="M700.9,123.21c0,3.78-1.81,8.47-9.67,9.22a28.91,28.91,0,0,1,3.48-8.31c1.51-2.57,3-3.18,4.23-3.18a2,2,0,0,1,2,2,1.14,1.14,0,0,1,0,.26Zm4.39,1.51c0-2.87-1.82-5.14-5.59-5.14-7.41,0-14.21,8.47-14.21,16.93,0,4.24,2.41,7.86,6.5,7.86,6.65,0,10.58-8.16,10.58-9.07,0-.3-.3-.45-.61-.45s-.3.61-2.26,3c-1.52,2-3.63,3.78-5.75,3.78s-3.17-1.66-3.17-5c.15-2,.15-2.72.45-2.72a49.77,49.77,0,0,0,7.26-1.21c3.78-1.51,6.8-3.93,6.8-8Z" transform="translate(-74.19 -10.37)"/><path class="cls-2" d="M722.07,121.7c0-.91-2.72-2.12-5.59-2.12a7.68,7.68,0,0,0-7.86,7.5,1.48,1.48,0,0,0,0,.21c0,4.84,6.2,7.71,6.2,11.94,0,2.57-1.51,3.78-3.17,3.78-2.12,0-3.48-2.26-4.08-4.23s-.76-2.72-1.52-2.72-.9.3-1.2,1.81a19.41,19.41,0,0,0-.31,3.48c0,1.66,2.72,3,6.35,3a8,8,0,0,0,8.17-7.71c0-4.68-6.5-8.61-6.5-12.39a2.84,2.84,0,0,1,2.48-3.16l.24,0c3.47,0,3.62,5.45,5,5.45C721.16,126.54,722.07,122.76,722.07,121.7Z" transform="translate(-74.19 -10.37)"/><path class="cls-2" d="M739,121.44c0-.9-2.72-2.11-5.59-2.11a7.68,7.68,0,0,0-7.86,7.49V127c0,4.83,6.19,7.71,6.19,11.94,0,2.57-1.51,3.78-3.17,3.78-2.12,0-3.48-2.27-4.08-4.23s-.76-2.72-1.51-2.72-.91.3-1.21,1.81a19.33,19.33,0,0,0-.31,3.48c0,1.66,2.73,3,6.35,3a8,8,0,0,0,8.17-7.71c0-4.69-6.5-8.62-6.5-12.4a2.83,2.83,0,0,1,2.48-3.15l.24,0c3.47,0,3.63,5.44,5,5.44C738.24,126.28,739,122.5,739,121.44Z" transform="translate(-74.19 -10.37)"/><rect class="cls-2" x="260.37" y="97.04" width="1.7" height="36.78"/><path class="cls-2" d="M94.91,56.87a11.89,11.89,0,0,0,.76,4.42c1.51,4.05,6.06,4.93,10,4.93,3.41,0,8.59-1.14,8.59-6.19,0-3.41-2.9-4.42-14.53-7.71-10.74-3-22.87-5.94-22.87-19.58C76.71,17.07,90.11,10.37,104,10.37c14.65,0,27.8,5.69,28.17,22.11H112.47a5.11,5.11,0,0,0-2.4-5.43,10.33,10.33,0,0,0-6.19-1.64c-2.78,0-7.45.76-7.45,4.55.25,4.67,10.1,6.06,19.58,8.46,9.6,2.78,19.08,6.95,19.08,19.46,0,17.56-16,23.25-31.21,23.25-7.58,0-29.69-2.78-29.69-24.39Z" transform="translate(-74.19 -10.37)"/><path class="cls-2" d="M138.25,30.46h18.07v5.43h.12c2.28-3,5.31-6.57,14.41-6.57,13.9,0,20.6,13.65,20.6,26,0,11.63-4.43,25.53-21,25.53a15.86,15.86,0,0,1-13.39-6.57h-.26V95.66H138.25Zm26.41,36.77c6.69,0,8.21-6.32,8.21-12.13s-1.52-12.26-8.21-12.26-8.22,6.45-8.22,12.26S157.83,67.23,164.66,67.23Z" transform="translate(-74.19 -10.37)"/><path class="cls-2" d="M245.78,68.62c0,3.67.12,7.83,2.27,11H229a11.77,11.77,0,0,1-.63-4.67h-.13c-4,4.55-9.72,5.81-15.79,5.81-9.48,0-17.31-4.55-17.31-14.91,0-15.67,18.32-14.91,27.8-16.8,2.52-.51,5.05-1.27,5.05-4.3,0-3.29-3.16-4.55-6.19-4.55-5.69,0-7,2.91-7,5.05H197.13c.51-13.89,13.77-16,25.27-16,23.5,0,23.25,9.73,23.25,19.2l.13,20.22ZM227.84,57.5a45.19,45.19,0,0,1-7.33,2.4c-4.17,1-6.32,2-6.32,5.31,0,2.27,2.4,4.55,5.81,4.55,4.3,0,7.58-2.4,7.84-7.71Z" transform="translate(-74.19 -10.37)"/><path class="cls-2" d="M253.23,12h18.7v67.6h-18.7Z" transform="translate(-74.19 -10.37)"/><path class="cls-2" d="M330.56,79.61H312.49V74.18h-.25c-2.27,3-5.31,6.57-14.4,6.57-13.9,0-20.6-13.65-20.6-26,0-11.62,4.42-25.52,21-25.52a15.83,15.83,0,0,1,13.39,6.57h.13V12h18.82ZM304.28,42.84c-6.7,0-8.21,6.32-8.21,12.13s1.51,12.26,8.21,12.26,8.21-6.44,8.21-12.26S311,42.84,304.28,42.84Z" transform="translate(-74.19 -10.37)"/><path class="cls-2" d="M356.34,25.15h-18.7V12h18.7Zm-18.7,5.31h18.7V79.61h-18.7Z" transform="translate(-74.19 -10.37)"/><path class="cls-2" d="M363.42,30.46h18.06v6.19h.13c3.54-4.93,8.47-7.45,16.05-7.45,8.84,0,16.8,5.43,16.8,16.68V79.61h-18.7V53.84c0-5.69-.63-9.61-6.19-9.61-3.28,0-7.45,1.65-7.45,9.48v25.9h-18.7Z" transform="translate(-74.19 -10.37)"/><path class="cls-2" d="M474.74,73.3c0,9.85-2.53,23.5-25.53,23.5-11.62,0-23.88-3.16-25.65-16.43h18.58c.25.51.63,1,1,1.64a7.06,7.06,0,0,0,5.43,3.54c6.06,0,7.33-7.2,7.33-11.24V69.76h-.13a15.14,15.14,0,0,1-13.14,6.82c-14.53,0-21-10.74-21-24,0-12.76,7.32-23.5,21.35-23.5,5.56,0,10.74,2.15,12.89,7.2H456V30.33h18.71v43Zm-25.91-8.6c6.95,0,7.71-6.57,7.71-12.13S454,43,448.45,43s-8,4.55-8,9.73C440.37,58.26,442,64.7,448.83,64.7Z" transform="translate(-74.19 -10.37)"/><path class="cls-2" d="M514,29.32H495.08V12h58.75V29.32h-19V79.61H514Z" transform="translate(-74.19 -10.37)"/><path class="cls-2" d="M568.74,80.88C550.3,80.88,542,68.62,542,55S550.3,29.2,568.74,29.2,595.53,41.45,595.53,55,587.19,80.88,568.74,80.88Zm0-38c-7.2,0-8.08,6.95-8.08,12.13s.88,12.26,8.08,12.26,8.09-7,8.09-12.26S576,42.84,568.74,42.84Z" transform="translate(-74.19 -10.37)"/><path class="cls-2" d="M654.41,79.61H636.34V74.18h-.12c-2.28,3-5.31,6.57-14.41,6.57-13.9,0-20.59-13.65-20.59-26,0-11.62,4.42-25.52,21-25.52a15.85,15.85,0,0,1,13.4,6.57h.12V12h18.7v67.6ZM628,42.84c-6.7,0-8.22,6.32-8.22,12.13s1.52,12.26,8.22,12.26,8.21-6.44,8.21-12.26S634.83,42.84,628,42.84Z" transform="translate(-74.19 -10.37)"/><path class="cls-2" d="M710.77,68.62c0,3.67.12,7.83,2.27,11H694a11.77,11.77,0,0,1-.63-4.67h-.12c-4.05,4.55-9.73,5.81-15.8,5.81-9.48,0-17.31-4.55-17.31-14.91,0-15.67,18.32-14.91,27.8-16.8,2.53-.51,5.05-1.27,5.05-4.3,0-3.29-3.16-4.55-6.19-4.55-5.69,0-7,2.91-7,5.05H662.37c.51-13.89,13.78-16,25.28-16,23.5,0,23.24,9.73,23.24,19.2ZM692.83,57.5a45.19,45.19,0,0,1-7.33,2.4c-4.17,1-6.32,2-6.32,5.31,0,2.27,2.4,4.55,5.81,4.55,4.3,0,7.58-2.4,7.84-7.71V57.5Z" transform="translate(-74.19 -10.37)"/><path class="cls-2" d="M752.21,75.82c-1.51,4.43-3.16,10-6.19,13.65-5,6.06-12.38,6.06-19.84,6.06h-8.46v-15h7.33A5.51,5.51,0,0,0,727.7,80c1.14-.63,1.77-1.51,1.77-3.66s-7.2-20.47-8.21-23.25l-8.34-22.62H733l7.83,28.18H741l8-28.18h19.46Z" transform="translate(-74.19 -10.37)"/></svg>