<?xml version="1.0" encoding="UTF-8"?>
<svg width="783px" height="69px" viewBox="0 0 783 69" version="1.1" xmlns="http://www.w3.org/2000/svg" xmlns:xlink="http://www.w3.org/1999/xlink">
    <!-- Generator: Sketch 60.1 (88133) - https://sketch.com -->
    <title>WSJ Logo - Full Text 2</title>
    <desc>Created with Sketch.</desc>
    <g id="Page-1" stroke="none" stroke-width="1" fill="none" fill-rule="evenodd">
        <g id="WSJ-Logo---Full-Text-2" fill="#000000" fill-rule="nonzero">
            <g id="WSJ-Logo---Full-Text">
                <path d="M21.652,61.544 C21.652,64.567 22.53,65.151 24.481,65.641 L27.504,66.324 L27.504,67.689 L7.412,67.689 L7.412,66.324 L9.948,65.74 C11.899,65.253 12.777,64.275 12.777,61.547 L12.777,2.438 L10.631,2.438 C4.584,2.438 2.146,12.289 1.463,22.725 L0,22.725 L0,0.488 L34.429,0.488 L34.429,22.726 L32.966,22.726 C32.283,12.29 29.845,2.439 23.798,2.439 L21.652,2.439 L21.652,61.544 Z M36.575,66.323 L38.721,65.737 C40.672,65.25 41.55,64.274 41.55,61.544 L41.55,6.535 C41.55,3.804 40.672,2.926 38.721,2.438 L36.575,1.853 L36.575,0.487 L55.594,0.487 L55.594,1.853 L53.351,2.438 C51.498,2.926 50.425,3.706 50.425,6.437 L50.425,32.088 L65.153,32.088 L65.153,6.437 C65.153,3.706 64.08,2.926 62.227,2.438 L59.984,1.853 L59.984,0.487 L79.003,0.487 L79.003,1.853 L76.857,2.438 C74.907,2.926 74.029,3.804 74.029,6.535 L74.029,61.447 C74.029,64.178 74.907,65.253 76.857,65.74 L79.003,66.324 L79.003,67.689 L59.983,67.689 L59.983,66.324 L62.226,65.838 C64.079,65.351 65.152,64.276 65.152,61.547 L65.152,34.332 L50.425,34.332 L50.425,61.544 C50.425,64.274 51.498,65.348 53.351,65.835 L55.594,66.323 L55.594,67.686 L36.575,67.686 L36.575,66.323 Z M94.998,65.739 L101.728,65.739 C110.506,65.739 112.164,55.79 113.334,45.452 L114.797,45.452 L114.797,67.687 L81.148,67.687 L81.148,66.323 L83.294,65.739 C85.245,65.251 86.123,64.274 86.123,61.545 L86.123,6.632 C86.123,3.902 85.245,2.926 83.294,2.438 L81.148,1.853 L81.148,0.487 L113.822,0.487 L113.822,22.725 L112.359,22.725 C111.286,12.289 109.238,2.438 101.728,2.438 L94.998,2.438 L94.998,31.796 L98.119,31.698 C102.313,31.405 103.873,27.797 104.946,19.31 L106.409,19.31 L106.409,46.424 L104.946,46.424 C104.069,35.793 102.41,34.135 98.021,33.842 L94.998,33.744 L94.998,65.739 L94.998,65.739 Z M135.651,9.461 C134.383,3.707 133.603,2.829 131.75,2.341 L129.897,1.853 L129.897,0.487 L148.136,0.487 L148.136,1.853 L146.673,2.145 C143.552,2.828 143.844,5.949 144.722,10.143 L152.427,48.376 L158.084,17.945 L156.036,7.508 C155.256,3.802 154.963,2.632 153.013,2.144 L151.745,1.852 L151.745,0.486 L169.594,0.486 L169.594,1.852 L167.448,2.242 C164.229,2.827 164.717,6.338 165.497,10.142 L172.91,48.377 L180.225,12.191 C181.59,4.681 180.908,2.828 177.982,2.243 L175.934,1.853 L175.934,0.487 L189.296,0.487 L189.296,1.853 L187.443,2.341 C185.102,2.926 184.517,4.779 183.151,11.314 L171.252,68.079 L168.716,68.079 L159.548,23.799 L151.257,68.079 L148.038,68.079 L135.651,9.461 Z M231.04,65.739 L234.941,65.739 C243.231,65.739 245.67,55.885 246.645,45.452 L248.108,45.452 L248.108,67.687 L198.268,67.687 L198.268,66.323 L200.316,65.931 C204.51,65.153 204.51,63.983 203.437,58.128 L201.584,49.35 L189.587,49.35 L188.319,55.985 C186.856,63.495 187.636,65.346 190.563,65.931 L192.611,66.323 L192.611,67.687 L179.054,67.687 L179.054,66.323 L180.712,65.836 C183.345,65.056 184.028,63.495 185.394,56.862 L197.293,0.096 L200.219,0.096 L212.703,58.714 C213.971,64.762 214.556,66.027 218.067,66.027 C221.09,66.027 222.163,64.466 222.163,61.543 L222.163,6.534 C222.163,3.803 221.286,2.925 219.335,2.437 L217.189,1.852 L217.189,0.487 L236.501,0.487 L236.501,1.95 L233.867,2.535 C231.917,2.925 231.039,3.803 231.039,6.534 L231.04,65.739 L231.04,65.739 Z M189.978,47.108 L201.097,47.108 L195.44,19.41 L189.978,47.108 Z M264.104,65.739 L268.005,65.739 C276.296,65.739 278.734,55.885 279.709,45.452 L281.172,45.452 L281.172,67.687 L250.254,67.687 L250.254,66.323 L252.4,65.739 C254.351,65.251 255.229,64.274 255.229,61.545 L255.229,6.535 C255.229,3.804 254.351,2.926 252.4,2.438 L250.254,1.853 L250.254,0.487 L269.566,0.487 L269.566,1.95 L266.933,2.535 C264.982,2.925 264.104,3.803 264.104,6.534 L264.104,65.739 L264.104,65.739 Z M312.976,68.077 C307.32,68.077 305.37,64.178 303.517,64.178 C302.444,64.178 301.176,64.47 300.201,67.689 L299.031,67.689 L299.031,45.45 L300.494,45.45 C301.665,58.032 306.347,65.93 312.881,65.93 C317.27,65.93 320.294,61.931 320.294,54.714 C320.294,39.498 298.544,32.964 298.544,16.09 C298.544,7.02 303.226,0.094 311.516,0.094 C316.88,0.094 318.051,3.605 320.294,3.605 C321.562,3.605 322.44,2.63 322.927,0.484 L324.097,0.484 L324.097,22.722 L322.634,22.722 C321.464,11.506 318.441,2.24 311.417,2.24 C306.541,2.24 305.565,7.116 305.565,10.433 C305.565,24.966 327.315,29.94 327.315,50.226 C327.312,60.569 321.656,68.077 312.976,68.077 Z M348.868,61.544 C348.868,64.274 349.746,65.25 351.697,65.737 L354.233,66.323 L354.233,67.686 L334.629,67.686 L334.629,66.323 L337.165,65.737 C339.116,65.25 339.994,64.274 339.994,61.544 L339.994,2.438 L337.848,2.438 C331.801,2.438 329.363,12.289 328.68,22.725 L327.217,22.725 L327.217,0.488 L361.648,0.488 L361.648,22.726 L360.184,22.726 C359.501,12.29 357.064,2.439 351.016,2.439 L348.87,2.439 L348.87,61.544 L348.868,61.544 Z M363.791,66.323 L365.937,65.737 C367.888,65.25 368.766,64.274 368.766,61.544 L368.766,6.535 C368.766,3.804 367.888,2.926 365.937,2.438 L363.791,1.853 L363.791,0.487 L382.42,0.487 C390.711,0.487 398.416,5.754 398.416,16.775 C398.416,25.261 394.417,31.211 386.321,33.357 C395.197,35.014 395.197,39.21 396.075,50.424 L396.66,59.007 C396.953,63.786 397.148,64.861 398.514,64.861 C399.977,64.861 400.563,61.546 400.563,58.326 L400.563,56.668 L402.22,56.668 L402.22,58.91 C402.22,64.275 401.049,68.078 395.491,68.078 C390.028,68.078 387.493,64.957 387.101,53.742 L386.615,41.258 C386.42,35.308 384.957,34.43 382.128,34.43 L377.544,34.43 L377.544,61.545 C377.544,64.275 378.422,65.349 380.373,65.836 L382.519,66.324 L382.519,67.687 L363.792,67.687 L363.791,66.323 L363.791,66.323 Z M377.543,32.479 L380.762,32.479 C386.224,32.479 388.955,31.016 388.955,18.044 C388.955,5.072 385.346,2.439 381.445,2.439 L377.544,2.439 L377.543,32.479 L377.543,32.479 Z M416.654,65.739 L423.383,65.739 C432.16,65.739 433.821,55.79 434.989,45.452 L436.452,45.452 L436.452,67.687 L402.803,67.687 L402.803,66.323 L404.949,65.739 C406.899,65.251 407.777,64.274 407.777,61.545 L407.777,6.632 C407.777,3.902 406.899,2.926 404.949,2.438 L402.803,1.853 L402.803,0.487 L435.478,0.487 L435.478,22.725 L434.014,22.725 C432.944,12.289 430.894,2.438 423.383,2.438 L416.654,2.438 L416.654,31.796 L419.775,31.698 C423.967,31.405 425.53,27.797 426.602,19.31 L428.066,19.31 L428.066,46.424 L426.602,46.424 C425.723,35.793 424.067,34.135 419.675,33.842 L416.654,33.744 L416.654,65.739 Z M452.84,65.739 L459.57,65.739 C468.345,65.739 470.006,55.79 471.174,45.452 L472.637,45.452 L472.637,67.687 L438.99,67.687 L438.99,66.323 L441.136,65.739 C443.086,65.251 443.965,64.274 443.965,61.545 L443.965,6.632 C443.965,3.902 443.086,2.926 441.136,2.438 L438.99,1.853 L438.99,0.487 L471.664,0.487 L471.664,22.725 L470.201,22.725 C469.128,12.289 467.08,2.438 459.57,2.438 L452.84,2.438 L452.84,31.796 L455.961,31.698 C460.154,31.405 461.715,27.797 462.788,19.31 L464.252,19.31 L464.252,46.424 L462.788,46.424 C461.91,35.793 460.252,34.135 455.863,33.842 L452.84,33.744 L452.84,65.739 L452.84,65.739 Z M496.438,61.544 C496.438,64.567 497.318,65.151 499.266,65.641 L502.289,66.324 L502.289,67.689 L482.197,67.689 L482.197,66.324 L484.733,65.74 C486.681,65.253 487.562,64.275 487.562,61.547 L487.562,2.438 L485.416,2.438 C479.369,2.438 476.931,12.289 476.248,22.725 L474.785,22.725 L474.785,0.488 L509.215,0.488 L509.215,22.726 L507.752,22.726 C507.068,12.29 504.631,2.439 498.584,2.439 L496.438,2.439 L496.438,61.544 L496.438,61.544 Z M549.991,52.181 C549.991,62.619 544.721,68.077 536.629,68.077 C529.316,68.077 525.025,62.129 525.12,55.594 C525.218,50.523 528.924,47.988 531.947,48.377 C534.093,48.669 536.239,50.23 535.946,53.644 C535.653,58.521 530.384,58.326 530.191,61.349 C529.997,63.203 532.433,65.933 535.553,65.933 C541.017,65.933 541.017,59.008 541.017,53.742 L541.017,6.437 C541.017,3.706 540.137,2.926 537.994,2.438 L535.556,1.853 L535.556,0.487 L554.772,0.487 L554.772,1.853 L552.626,2.438 C550.676,2.926 549.993,3.804 549.993,6.535 L549.991,52.181 L549.991,52.181 Z M572.717,68.176 C561.306,68.176 555.745,52.766 555.745,34.038 C555.745,15.41 561.11,0 572.717,0 C584.226,0 589.785,15.41 589.785,34.038 C589.785,52.766 584.519,68.176 572.717,68.176 Z M572.717,2.243 C567.84,2.243 565.404,6.144 565.404,33.65 C565.404,62.031 567.645,66.031 572.717,66.031 C577.788,66.031 580.129,62.031 580.129,33.453 C580.129,6.145 577.788,2.243 572.717,2.243 Z M628.409,66.323 L630.554,65.737 C632.505,65.25 633.383,64.274 633.383,61.544 L633.383,6.535 C633.383,3.316 631.92,2.146 628.506,2.146 C624.215,2.146 623.142,4.097 623.142,9.656 L623.142,51.986 C623.142,62.52 619.436,68.176 610.367,68.176 C601.004,68.176 595.543,62.52 595.543,52.279 L595.543,6.535 C595.543,3.804 594.859,2.926 592.909,2.438 L590.763,1.853 L590.763,0.487 L610.172,0.487 L610.172,1.853 L607.538,2.438 C605.392,2.926 604.515,3.706 604.515,6.437 L604.515,52.961 C604.515,62.422 607.245,64.86 612.22,64.86 C618.074,64.86 620.511,61.544 620.511,51.985 L620.511,13.167 C620.511,4.974 620.413,3.023 616.904,2.243 L615.05,1.853 L615.05,0.487 L647.042,0.487 C655.332,0.487 663.037,5.754 663.037,16.775 C663.037,25.261 659.038,31.211 650.942,33.357 C659.818,35.014 659.818,39.21 660.696,50.424 L661.281,59.007 C661.574,63.786 661.767,64.861 663.135,64.861 C664.598,64.861 665.184,61.546 665.184,58.326 L665.184,56.668 L666.841,56.668 L666.841,58.91 C666.841,64.275 665.671,68.078 660.112,68.078 C654.65,68.078 652.114,64.957 651.722,53.742 L651.236,41.258 C651.041,35.308 649.578,34.43 646.75,34.43 L642.166,34.43 L642.166,61.545 C642.166,64.275 643.043,65.349 644.994,65.836 L647.14,66.324 L647.14,67.687 L628.412,67.687 L628.412,66.324 L628.409,66.324 L628.409,66.323 Z M642.161,32.479 L645.38,32.479 C650.841,32.479 653.572,31.016 653.572,18.044 C653.572,5.072 649.964,2.439 646.062,2.439 L642.161,2.439 L642.161,32.479 L642.161,32.479 Z M668.593,2.243 L667.229,1.853 L667.229,0.487 L680.004,0.487 L697.463,44.767 L697.463,12.874 C697.463,5.657 697.657,3.121 692.488,2.243 L690.831,1.853 L690.831,0.487 L705.266,0.487 L705.266,1.853 L703.902,2.243 C699.709,3.218 700.002,6.632 700.002,13.459 L700.002,67.688 L696.881,67.688 L675.032,13.948 L675.032,55.302 C675.032,63.202 675.032,65.447 681.274,66.323 L681.274,67.686 L667.227,67.686 L667.227,66.323 L668.985,66.03 C672.591,65.345 672.496,61.836 672.496,54.717 L672.496,8.095 C670.836,4.682 670.153,2.828 668.593,2.243 Z M754.423,65.739 L758.324,65.739 C766.614,65.739 769.053,55.885 770.028,45.452 L771.491,45.452 L771.491,67.687 L721.749,67.687 L721.749,66.323 L723.797,65.931 C727.991,65.153 728.089,63.983 726.918,58.128 L725.064,49.35 L713.069,49.35 L711.798,55.985 C710.335,63.495 711.116,65.346 714.042,65.931 L716.09,66.323 L716.09,67.687 L702.532,67.687 L702.532,66.323 L704.189,65.836 C706.824,65.056 707.504,63.495 708.872,56.862 L720.77,0.097 L723.698,0.097 L736.18,58.715 C737.451,64.763 737.936,66.028 741.449,66.028 C744.47,66.028 745.546,64.467 745.546,61.544 L745.546,6.534 C745.546,3.803 744.668,2.925 742.718,2.437 L740.572,1.852 L740.572,0.487 L759.884,0.487 L759.884,1.95 L757.25,2.535 C755.3,2.925 754.422,3.803 754.422,6.534 L754.423,65.739 L754.423,65.739 Z M713.458,47.108 L724.577,47.108 L718.921,19.409 L713.458,47.108 Z M783,63.396 C783,66.03 781.05,67.981 778.709,67.981 C776.368,67.981 774.417,66.03 774.417,63.396 C774.417,60.763 776.368,58.812 778.709,58.812 C781.05,58.812 783,60.764 783,63.396 Z" id="Shape"></path>
            </g>
        </g>
    </g>
</svg>